999
dxfrw 0.6.3
  0
SECTION
  2
HEADER
  9
$ACADVER
  1
AC1021
  9
$DWGCODEPAGE
  3
ANSI_1252
  9
$INSBASE
 10
0
 20
0
 30
0
  9
$EXTMIN
 10
-785.917392570828
 20
-77.5
 30
0
  9
$EXTMAX
 10
415.8621144240983
 20
1124.270108603243
 30
0
  9
$LIMMIN
 10
0
 20
0
  9
$LIMMAX
 10
420
 20
297
  9
$ORTHOMODE
 70
    0
  9
$REGENMODE
 70
    1
  9
$FILLMODE
 70
    1
  9
$QTEXTMODE
 70
    0
  9
$MIRRTEXT
 70
    0
  9
$LTSCALE
 40
1
  9
$ATTMODE
 70
    0
  9
$TEXTSIZE
 40
2.5
  9
$TRACEWID
 40
15.68
  9
$TEXTSTYLE
  7
STANDARD
  9
$CLAYER
  8
door
  9
$CELTYPE
  6
BYLAYER
  9
$CECOLOR
 62
  256
  9
$CELTSCALE
 40
1
  9
$DISPSILH
 70
    0
  9
$DIMSCALE
 40
1
  9
$DIMASZ
 40
5
  9
$DIMEXO
 40
0.625
  9
$DIMDLI
 40
3.75
  9
$DIMRND
 40
0
  9
$DIMDLE
 40
0
  9
$DIMEXE
 40
1.25
  9
$DIMTP
 40
0
  9
$DIMTM
 40
0
  9
$DIMTXT
 40
5
  9
$DIMCEN
 40
2.5
  9
$DIMTSZ
 40
0
  9
$DIMTOL
 70
    0
  9
$DIMLIM
 70
    0
  9
$DIMTIH
 70
    0
  9
$DIMTOH
 70
    0
  9
$DIMSE1
 70
    0
  9
$DIMSE2
 70
    0
  9
$DIMTAD
 70
    1
  9
$DIMZIN
 70
    1
  9
$DIMBLK
  1

  9
$DIMASO
 70
    1
  9
$DIMSHO
 70
    1
  9
$DIMPOST
  1

  9
$DIMAPOST
  1

  9
$DIMALT
 70
    0
  9
$DIMALTD
 70
    3
  9
$DIMALTF
 40
0.03937
  9
$DIMLFAC
 40
1
  9
$DIMTOFL
 70
    1
  9
$DIMTVP
 40
0
  9
$DIMTIX
 70
    0
  9
$DIMSOXD
 70
    0
  9
$DIMSAH
 70
    0
  9
$DIMBLK1
  1

  9
$DIMBLK2
  1

  9
$DIMSTYLE
  2
STANDARD
  9
$DIMCLRD
 70
    0
  9
$DIMCLRE
 70
    0
  9
$DIMCLRT
 70
    0
  9
$DIMTFAC
 40
1
  9
$DIMGAP
 40
0.625
  9
$DIMJUST
 70
    0
  9
$DIMSD1
 70
    0
  9
$DIMSD2
 70
    0
  9
$DIMTOLJ
 70
    0
  9
$DIMTZIN
 70
    8
  9
$DIMALTZ
 70
    0
  9
$DIMALTTZ
 70
    0
  9
$DIMUPT
 70
    0
  9
$DIMDEC
 70
    1
  9
$DIMTDEC
 70
    2
  9
$DIMALTU
 70
    2
  9
$DIMALTTD
 70
    3
  9
$DIMTXSTY
  7
standard
  9
$DIMAUNIT
 70
    0
  9
$DIMADEC
 70
    2
  9
$DIMALTRND
 40
0
  9
$DIMAZIN
 70
    0
  9
$DIMDSEP
 70
    0
  9
$DIMATFIT
 70
    3
  9
$DIMFRAC
 70
    0
  9
$DIMLDRBLK
  1
STANDARD
  9
$DIMLUNIT
 70
    2
  9
$DIMLWD
 70
   -2
  9
$DIMLWE
 70
   -2
  9
$DIMTMOVE
 70
    0
  9
$DIMFXL
 40
1
  9
$DIMFXLON
 70
    0
  9
$DIMJOGANG
 40
0.7854
  9
$DIMTFILL
 70
    0
  9
$DIMTFILLCLR
 70
    0
  9
$DIMARCSYM
 70
    0
  9
$DIMLTYPE
  6

  9
$DIMLTEX1
  6

  9
$DIMLTEX2
  6

  9
$LUNITS
 70
    2
  9
$LUPREC
 70
    1
  9
$SKETCHINC
 40
1
  9
$FILLETRAD
 40
0
  9
$AUNITS
 70
    0
  9
$AUPREC
 70
    2
  9
$MENU
  1
.
  9
$ELEVATION
 40
0
  9
$PELEVATION
 40
0
  9
$THICKNESS
 40
0
  9
$LIMCHECK
 70
    0
  9
$CHAMFERA
 40
0
  9
$CHAMFERB
 40
0
  9
$CHAMFERC
 40
0
  9
$CHAMFERD
 40
0
  9
$SKPOLY
 70
    0
  9
$USRTIMER
 70
    1
  9
$ANGBASE
 50
0
  9
$ANGDIR
 70
    0
  9
$PDMODE
 70
   34
  9
$PDSIZE
 40
0
  9
$PLINEWID
 40
0
  9
$SPLFRAME
 70
    0
  9
$SPLINETYPE
 70
    2
  9
$SPLINESEGS
 70
    8
  9
$HANDSEED
  5
20000
  9
$SURFTAB1
 70
    6
  9
$SURFTAB2
 70
    6
  9
$SURFTYPE
 70
    6
  9
$SURFU
 70
    6
  9
$SURFV
 70
    6
  9
$UCSBASE
  2

  9
$UCSNAME
  2

  9
$UCSORG
 10
0
 20
0
 30
0
  9
$UCSXDIR
 10
1
 20
0
 30
0
  9
$UCSYDIR
 10
0
 20
1
 30
0
  9
$UCSORTHOREF
  2

  9
$UCSORTHOVIEW
 70
    0
  9
$UCSORGTOP
 10
0
 20
0
 30
0
  9
$UCSORGBOTTOM
 10
0
 20
0
 30
0
  9
$UCSORGLEFT
 10
0
 20
0
 30
0
  9
$UCSORGRIGHT
 10
0
 20
0
 30
0
  9
$UCSORGFRONT
 10
0
 20
0
 30
0
  9
$UCSORGBACK
 10
0
 20
0
 30
0
  9
$PUCSBASE
  2

  9
$PUCSNAME
  2

  9
$PUCSORG
 10
0
 20
0
 30
0
  9
$PUCSXDIR
 10
1
 20
0
 30
0
  9
$PUCSYDIR
 10
0
 20
1
 30
0
  9
$PUCSORTHOREF
  2

  9
$PUCSORTHOVIEW
 70
    0
  9
$PUCSORGTOP
 10
0
 20
0
 30
0
  9
$PUCSORGBOTTOM
 10
0
 20
0
 30
0
  9
$PUCSORGLEFT
 10
0
 20
0
 30
0
  9
$PUCSORGRIGHT
 10
0
 20
0
 30
0
  9
$PUCSORGFRONT
 10
0
 20
0
 30
0
  9
$PUCSORGBACK
 10
0
 20
0
 30
0
  9
$USERI1
 70
    0
  9
$USERI2
 70
    0
  9
$USERI3
 70
    0
  9
$USERI4
 70
    0
  9
$USERI5
 70
    0
  9
$USERR1
 40
0
  9
$USERR2
 40
0
  9
$USERR3
 40
0
  9
$USERR4
 40
0
  9
$USERR5
 40
0
  9
$WORLDVIEW
 70
    1
  9
$SHADEDGE
 70
    3
  9
$SHADEDIF
 70
   70
  9
$TILEMODE
 70
    1
  9
$MAXACTVP
 70
   64
  9
$PINSBASE
 10
0
 20
0
 30
0
  9
$PLIMCHECK
 70
    0
  9
$PEXTMIN
 10
0
 20
0
 30
0
  9
$PEXTMAX
 10
0
 20
0
 30
0
  9
$GRIDMODE
 70
    1
  9
$SNAPSTYLE
 70
    0
  9
$GRIDUNIT
 10
0
 20
0
  9
$PLIMMIN
 10
0
 20
0
  9
$PLIMMAX
 10
29.7
 20
21
  9
$UNITMODE
 70
    0
  9
$VISRETAIN
 70
    1
  9
$PLINEGEN
 70
    0
  9
$PSLTSCALE
 70
    1
  9
$TREEDEPTH
 70
 3020
  9
$CMLSTYLE
  2
Standard
  9
$CMLJUST
 70
    0
  9
$CMLSCALE
 40
20
  9
$PROXYGRAPHICS
 70
    1
  9
$MEASUREMENT
 70
    1
  9
$CELWEIGHT
370
   -1
  9
$ENDCAPS
280
    0
  9
$JOINSTYLE
280
    0
  9
$LWDISPLAY
290
    0
  9
$INSUNITS
 70
    5
  9
$HYPERLINKBASE
  1

  9
$STYLESHEET
  1

  9
$XEDIT
290
    1
  9
$CEPSNTYPE
380
    0
  9
$PSTYLEMODE
290
    1
  9
$EXTNAMES
290
    1
  9
$PSVPSCALE
 40
1
  9
$OLESTARTUP
290
    0
  9
$SORTENTS
280
  127
  9
$INDEXCTL
280
    0
  9
$HIDETEXT
280
    1
  9
$XCLIPFRAME
290
    0
  9
$HALOGAP
280
    0
  9
$OBSCOLOR
 70
  257
  9
$OBSLTYPE
280
    0
  9
$INTERSECTIONDISPLAY
280
    0
  9
$INTERSECTIONCOLOR
 70
  257
  9
$DIMASSOC
280
    1
  9
$PROJECTNAME
  1

  9
$CAMERADISPLAY
290
    0
  9
$LENSLENGTH
 40
50
  9
$CAMERAHEIGHT
 40
0
  9
$STEPSPERSEC
 40
2
  9
$STEPSIZE
 40
50
  9
$3DDWFPREC
 40
2
  9
$PSOLWIDTH
 40
5
  9
$PSOLHEIGHT
 40
80
  9
$LOFTANG1
 40
1.570796326794897
  9
$LOFTANG2
 40
1.570796326794897
  9
$LOFTMAG1
 40
0
  9
$LOFTMAG2
 40
0
  9
$LOFTPARAM
 70
    7
  9
$LOFTNORMALS
280
    1
  9
$LATITUDE
 40
1
  9
$LONGITUDE
 40
1
  9
$NORTHDIRECTION
 40
0
  9
$TIMEZONE
 70
-8000
  9
$LIGHTGLYPHDISPLAY
280
    1
  9
$TILEMODELIGHTSYNCH
280
    1
  9
$SOLIDHIST
280
    1
  9
$SHOWHIST
280
    1
  9
$DWFFRAME
280
    2
  9
$DGNFRAME
280
    0
  9
$REALWORLDSCALE
290
    1
  9
$INTERFERECOLOR
 62
    1
  9
$CSHADOW
280
    0
  9
$SHADOWPLANELOCATION
 40
0
  0
ENDSEC
  0
SECTION
  2
CLASSES
  0
ENDSEC
  0
SECTION
  2
TABLES
  0
TABLE
  2
VPORT
  5
8
330
0
100
AcDbSymbolTable
 70
    1
  0
VPORT
  5
31
330
2
100
AcDbSymbolTableRecord
100
AcDbViewportTableRecord
  2
*ACTIVE
 70
    0
 10
0
 20
0
 11
1
 21
1
 12
387.6982061506537
 22
571.6426105287011
 13
0
 23
0
 14
10
 24
10
 15
10
 25
10
 16
0
 26
0
 36
1
 17
0
 27
0
 37
0
 40
1239.502294116689
 41
1.549467275494673
 42
50
 43
0
 44
0
 50
0
 51
0
 71
    0
 72
  100
 73
    1
 74
    3
 75
    0
 76
    1
 77
    0
 78
    0
281
    0
 65
    1
110
0
120
0
130
0
111
1
121
0
131
0
112
0
122
1
132
0
 79
    0
146
0
348
10020
 60
    7
 61
    5
292
1
282
    1
141
0
142
0
 63
  250
421
3358443
  0
ENDTAB
  0
TABLE
  2
LTYPE
  5
5
330
0
100
AcDbSymbolTable
 70
    4
  0
LTYPE
  5
14
330
5
100
AcDbSymbolTableRecord
100
AcDbLinetypeTableRecord
  2
ByBlock
 70
    0
  3

 72
   65
 73
    0
 40
0
  0
LTYPE
  5
15
330
5
100
AcDbSymbolTableRecord
100
AcDbLinetypeTableRecord
  2
ByLayer
 70
    0
  3

 72
   65
 73
    0
 40
0
  0
LTYPE
  5
16
330
5
100
AcDbSymbolTableRecord
100
AcDbLinetypeTableRecord
  2
Continuous
 70
    0
  3
Solid line
 72
   65
 73
    0
 40
0
  0
LTYPE
  5
32
330
5
100
AcDbSymbolTableRecord
100
AcDbLinetypeTableRecord
  2
DOT
 70
    0
  3
Dot . . . . . . . . . . . . . . . . . . . . . .
 72
   65
 73
    2
 40
6.35
 49
0
 74
    0
 49
-6.35
 74
    0
  0
LTYPE
  5
33
330
5
100
AcDbSymbolTableRecord
100
AcDbLinetypeTableRecord
  2
DOTTINY
 70
    0
  3
Dot (.15x) .....................................
 72
   65
 73
    2
 40
0.9525
 49
0
 74
    0
 49
-0.9525
 74
    0
  0
LTYPE
  5
34
330
5
100
AcDbSymbolTableRecord
100
AcDbLinetypeTableRecord
  2
DOT2
 70
    0
  3
Dot (.5x) .....................................
 72
   65
 73
    2
 40
3.175
 49
0
 74
    0
 49
-3.175
 74
    0
  0
LTYPE
  5
35
330
5
100
AcDbSymbolTableRecord
100
AcDbLinetypeTableRecord
  2
DOTX2
 70
    0
  3
Dot (2x) .  .  .  .  .  .  .  .  .  .  .  .  .
 72
   65
 73
    2
 40
12.7
 49
0
 74
    0
 49
-12.7
 74
    0
  0
LTYPE
  5
36
330
5
100
AcDbSymbolTableRecord
100
AcDbLinetypeTableRecord
  2
DASHED
 70
    0
  3
Dashed _ _ _ _ _ _ _ _ _ _ _ _ _ _ _ _ _
 72
   65
 73
    2
 40
19.05
 49
12.7
 74
    0
 49
-6.35
 74
    0
  0
LTYPE
  5
37
330
5
100
AcDbSymbolTableRecord
100
AcDbLinetypeTableRecord
  2
DASHEDTINY
 70
    0
  3
Dashed (.15x) _ _ _ _ _ _ _ _ _ _ _ _ _ _ _ _ _
 72
   65
 73
    2
 40
2.8575
 49
1.905
 74
    0
 49
-0.9525
 74
    0
  0
LTYPE
  5
38
330
5
100
AcDbSymbolTableRecord
100
AcDbLinetypeTableRecord
  2
DASHED2
 70
    0
  3
Dashed (.5x) _ _ _ _ _ _ _ _ _ _ _ _ _ _ _ _ _
 72
   65
 73
    2
 40
9.524999999999999
 49
6.35
 74
    0
 49
-3.175
 74
    0
  0
LTYPE
  5
39
330
5
100
AcDbSymbolTableRecord
100
AcDbLinetypeTableRecord
  2
DASHEDX2
 70
    0
  3
Dashed (2x) ____  ____  ____  ____  ____  ___
 72
   65
 73
    2
 40
38.09999999999999
 49
25.4
 74
    0
 49
-12.7
 74
    0
  0
LTYPE
  5
3A
330
5
100
AcDbSymbolTableRecord
100
AcDbLinetypeTableRecord
  2
DASHDOT
 70
    0
  3
Dash dot __ . __ . __ . __ . __ . __ . __ . __
 72
   65
 73
    4
 40
25.4
 49
12.7
 74
    0
 49
-6.35
 74
    0
 49
0
 74
    0
 49
-6.35
 74
    0
  0
LTYPE
  5
3B
330
5
100
AcDbSymbolTableRecord
100
AcDbLinetypeTableRecord
  2
DASHDOTTINY
 70
    0
  3
Dash dot (.15x) _._._._._._._._._._._._._._._.
 72
   65
 73
    4
 40
3.81
 49
1.905
 74
    0
 49
-0.9525
 74
    0
 49
0
 74
    0
 49
-0.9525
 74
    0
  0
LTYPE
  5
3C
330
5
100
AcDbSymbolTableRecord
100
AcDbLinetypeTableRecord
  2
DASHDOT2
 70
    0
  3
Dash dot (.5x) _._._._._._._._._._._._._._._.
 72
   65
 73
    4
 40
12.7
 49
6.35
 74
    0
 49
-3.175
 74
    0
 49
0
 74
    0
 49
-3.175
 74
    0
  0
LTYPE
  5
3D
330
5
100
AcDbSymbolTableRecord
100
AcDbLinetypeTableRecord
  2
DASHDOTX2
 70
    0
  3
Dash dot (2x) ____  .  ____  .  ____  .  ___
 72
   65
 73
    4
 40
50.8
 49
25.4
 74
    0
 49
-12.7
 74
    0
 49
0
 74
    0
 49
-12.7
 74
    0
  0
LTYPE
  5
3E
330
5
100
AcDbSymbolTableRecord
100
AcDbLinetypeTableRecord
  2
DIVIDE
 70
    0
  3
Divide ____ . . ____ . . ____ . . ____ . . ____
 72
   65
 73
    6
 40
31.75
 49
12.7
 74
    0
 49
-6.35
 74
    0
 49
0
 74
    0
 49
-6.35
 74
    0
 49
0
 74
    0
 49
-6.35
 74
    0
  0
LTYPE
  5
3F
330
5
100
AcDbSymbolTableRecord
100
AcDbLinetypeTableRecord
  2
DIVIDETINY
 70
    0
  3
Divide (.15x) __..__..__..__..__..__..__..__.._
 72
   65
 73
    6
 40
4.7625
 49
1.905
 74
    0
 49
-0.9525
 74
    0
 49
0
 74
    0
 49
-0.9525
 74
    0
 49
0
 74
    0
 49
-0.9525
 74
    0
  0
LTYPE
  5
40
330
5
100
AcDbSymbolTableRecord
100
AcDbLinetypeTableRecord
  2
DIVIDE2
 70
    0
  3
Divide (.5x) __..__..__..__..__..__..__..__.._
 72
   65
 73
    6
 40
15.875
 49
6.35
 74
    0
 49
-3.175
 74
    0
 49
0
 74
    0
 49
-3.175
 74
    0
 49
0
 74
    0
 49
-3.175
 74
    0
  0
LTYPE
  5
41
330
5
100
AcDbSymbolTableRecord
100
AcDbLinetypeTableRecord
  2
DIVIDEX2
 70
    0
  3
Divide (2x) ________  .  .  ________  .  .  _
 72
   65
 73
    6
 40
63.5
 49
25.4
 74
    0
 49
-12.7
 74
    0
 49
0
 74
    0
 49
-12.7
 74
    0
 49
0
 74
    0
 49
-12.7
 74
    0
  0
LTYPE
  5
42
330
5
100
AcDbSymbolTableRecord
100
AcDbLinetypeTableRecord
  2
BORDER
 70
    0
  3
Border __ __ . __ __ . __ __ . __ __ . __ __ .
 72
   65
 73
    6
 40
44.45
 49
12.7
 74
    0
 49
-6.35
 74
    0
 49
12.7
 74
    0
 49
-6.35
 74
    0
 49
0
 74
    0
 49
-6.35
 74
    0
  0
LTYPE
  5
43
330
5
100
AcDbSymbolTableRecord
100
AcDbLinetypeTableRecord
  2
BORDERTINY
 70
    0
  3
Border (.15x) __.__.__.__.__.__.__.__.__.__.__.
 72
   65
 73
    6
 40
6.6675
 49
1.905
 74
    0
 49
-0.9525
 74
    0
 49
1.905
 74
    0
 49
-0.9525
 74
    0
 49
0
 74
    0
 49
-0.9525
 74
    0
  0
LTYPE
  5
44
330
5
100
AcDbSymbolTableRecord
100
AcDbLinetypeTableRecord
  2
BORDER2
 70
    0
  3
Border (.5x) __.__.__.__.__.__.__.__.__.__.__.
 72
   65
 73
    6
 40
22.225
 49
6.35
 74
    0
 49
-3.175
 74
    0
 49
6.35
 74
    0
 49
-3.175
 74
    0
 49
0
 74
    0
 49
-3.175
 74
    0
  0
LTYPE
  5
45
330
5
100
AcDbSymbolTableRecord
100
AcDbLinetypeTableRecord
  2
BORDERX2
 70
    0
  3
Border (2x) ____  ____  .  ____  ____  .  ___
 72
   65
 73
    6
 40
88.89999999999999
 49
25.4
 74
    0
 49
-12.7
 74
    0
 49
25.4
 74
    0
 49
-12.7
 74
    0
 49
0
 74
    0
 49
-12.7
 74
    0
  0
LTYPE
  5
46
330
5
100
AcDbSymbolTableRecord
100
AcDbLinetypeTableRecord
  2
CENTER
 70
    0
  3
Center ____ _ ____ _ ____ _ ____ _ ____ _ ____
 72
   65
 73
    4
 40
50.8
 49
31.75
 74
    0
 49
-6.35
 74
    0
 49
6.35
 74
    0
 49
-6.35
 74
    0
  0
LTYPE
  5
47
330
5
100
AcDbSymbolTableRecord
100
AcDbLinetypeTableRecord
  2
CENTERTINY
 70
    0
  3
Center (.15x) ___ _ ___ _ ___ _ ___ _ ___ _ ___
 72
   65
 73
    4
 40
7.619999999999999
 49
4.7625
 74
    0
 49
-0.9525
 74
    0
 49
0.9525
 74
    0
 49
-0.9525
 74
    0
  0
LTYPE
  5
48
330
5
100
AcDbSymbolTableRecord
100
AcDbLinetypeTableRecord
  2
CENTER2
 70
    0
  3
Center (.5x) ___ _ ___ _ ___ _ ___ _ ___ _ ___
 72
   65
 73
    4
 40
28.575
 49
19.05
 74
    0
 49
-3.175
 74
    0
 49
3.175
 74
    0
 49
-3.175
 74
    0
  0
LTYPE
  5
49
330
5
100
AcDbSymbolTableRecord
100
AcDbLinetypeTableRecord
  2
CENTERX2
 70
    0
  3
Center (2x) ________  __  ________  __  _____
 72
   65
 73
    4
 40
101.6
 49
63.5
 74
    0
 49
-12.7
 74
    0
 49
12.7
 74
    0
 49
-12.7
 74
    0
  0
ENDTAB
  0
TABLE
  2
LAYER
  5
2
330
0
100
AcDbSymbolTable
 70
    1
  0
LAYER
  5
10
330
2
100
AcDbSymbolTableRecord
100
AcDbLayerTableRecord
  2
0
 70
    0
 62
    7
  6
CONTINUOUS
370
    0
390
F
  0
LAYER
  5
4A
330
2
100
AcDbSymbolTableRecord
100
AcDbLayerTableRecord
  2
Corridor
 70
    0
 62
    7
  6
DASHEDTINY
370
  200
390
F
  0
LAYER
  5
4B
330
2
100
AcDbSymbolTableRecord
100
AcDbLayerTableRecord
  2
bathroom
 70
    0
 62
    7
  6
DASHEDTINY
370
  200
390
F
  0
LAYER
  5
4C
330
2
100
AcDbSymbolTableRecord
100
AcDbLayerTableRecord
  2
bathroom-washstand
 70
    0
 62
    7
  6
CONTINUOUS
370
    0
390
F
  0
LAYER
  5
4D
330
2
100
AcDbSymbolTableRecord
100
AcDbLayerTableRecord
  2
bed
 70
    0
 62
    2
  6
CONTINUOUS
370
    0
390
F
  0
LAYER
  5
4E
330
2
100
AcDbSymbolTableRecord
100
AcDbLayerTableRecord
  2
dimension
 70
    0
 62
    1
  6
CONTINUOUS
370
    0
390
F
  0
LAYER
  5
4F
330
2
100
AcDbSymbolTableRecord
100
AcDbLayerTableRecord
  2
door
 70
    0
 62
    7
  6
CONTINUOUS
370
    0
390
F
  0
LAYER
  5
50
330
2
100
AcDbSymbolTableRecord
100
AcDbLayerTableRecord
  2
hall
 70
    0
 62
    7
  6
DASHEDTINY
370
  200
390
F
  0
LAYER
  5
51
330
2
100
AcDbSymbolTableRecord
100
AcDbLayerTableRecord
  2
kitchen
 70
    0
 62
    7
  6
CONTINUOUS
370
    0
390
F
  0
LAYER
  5
52
330
2
100
AcDbSymbolTableRecord
100
AcDbLayerTableRecord
  2
kitchen-stove
 70
    0
 62
    7
  6
CONTINUOUS
370
   -3
390
F
  0
LAYER
  5
53
330
2
100
AcDbSymbolTableRecord
100
AcDbLayerTableRecord
  2
master
 70
    0
 62
    7
  6
BORDERTINY
290
0
370
  200
390
F
  0
LAYER
  5
54
330
2
100
AcDbSymbolTableRecord
100
AcDbLayerTableRecord
  2
north-balcony
 70
    0
 62
    7
  6
CONTINUOUS
370
    0
390
F
  0
LAYER
  5
55
330
2
100
AcDbSymbolTableRecord
100
AcDbLayerTableRecord
  2
pipeline
 70
    0
 62
    7
  6
CONTINUOUS
370
    0
390
F
  0
LAYER
  5
56
330
2
100
AcDbSymbolTableRecord
100
AcDbLayerTableRecord
  2
room
 70
    0
 62
    7
  6
DASHEDTINY
370
  200
390
F
  0
LAYER
  5
57
330
2
100
AcDbSymbolTableRecord
100
AcDbLayerTableRecord
  2
sockets
 70
    0
 62
    7
  6
CONTINUOUS
370
    0
390
F
  0
LAYER
  5
58
330
2
100
AcDbSymbolTableRecord
100
AcDbLayerTableRecord
  2
study
 70
    0
 62
    7
  6
BORDERTINY
370
  200
390
F
  0
LAYER
  5
59
330
2
100
AcDbSymbolTableRecord
100
AcDbLayerTableRecord
  2
windows
 70
    0
 62
    7
  6
CONTINUOUS
370
    0
390
F
  0
ENDTAB
  0
TABLE
  2
STYLE
  5
3
330
0
100
AcDbSymbolTable
 70
    3
  0
STYLE
  5
5A
330
2
100
AcDbSymbolTableRecord
100
AcDbTextStyleTableRecord
  2
Standard
 70
    0
 40
0
 41
1
 50
0
 71
    0
 42
1
  3
txt
  4

  0
ENDTAB
  0
TABLE
  2
VIEW
  5
6
330
0
100
AcDbSymbolTable
 70
    0
  0
ENDTAB
  0
TABLE
  2
UCS
  5
7
330
0
100
AcDbSymbolTable
 70
    0
  0
ENDTAB
  0
TABLE
  2
APPID
  5
9
330
0
100
AcDbSymbolTable
 70
    1
  0
APPID
  5
12
330
9
100
AcDbSymbolTableRecord
100
AcDbRegAppTableRecord
  2
ACAD
 70
    0
  0
APPID
  5
5B
330
9
100
AcDbSymbolTableRecord
100
AcDbRegAppTableRecord
  2
LibreCad
 70
    0
  0
ENDTAB
  0
TABLE
  2
DIMSTYLE
  5
A
330
0
100
AcDbSymbolTable
 70
    1
100
AcDbDimStyleTable
 71
    1
  0
DIMSTYLE
105
5C
330
A
100
AcDbSymbolTableRecord
100
AcDbDimStyleTableRecord
  2
Standard
 70
    0
 40
1
 41
5
 42
0.625
 43
0.38
 44
1.25
 45
0
 46
0
 47
0
 48
0
 49
1
140
5
141
0.09
142
0
143
25.4
144
1
145
0
146
1
147
0.625
148
0
 71
    0
 72
    0
 73
    0
 74
    1
 75
    0
 76
    0
 77
    0
 78
    1
 79
    0
170
    0
171
    2
172
    0
173
    0
174
    0
175
    0
176
    0
177
    0
178
    0
179
    2
271
    1
272
    4
273
    2
274
    2
275
    0
276
    0
277
    2
278
    0
279
    0
280
    0
281
    0
282
    0
283
    1
284
    0
285
    0
286
    0
288
    0
289
    3
340
standard
341

371
   -2
372
   -2
  0
ENDTAB
  0
TABLE
  2
BLOCK_RECORD
  5
1
330
0
100
AcDbSymbolTable
 70
    2
  0
BLOCK_RECORD
  5
1F
330
1
100
AcDbSymbolTableRecord
100
AcDbBlockTableRecord
  2
*Model_Space
 70
    0
280
    1
281
    0
  0
BLOCK_RECORD
  5
1E
330
1
100
AcDbSymbolTableRecord
100
AcDbBlockTableRecord
  2
*Paper_Space
 70
    0
280
    1
281
    0
  0
BLOCK_RECORD
  5
5D
330
1
100
AcDbSymbolTableRecord
100
AcDbBlockTableRecord
  2
*D18
 70
    0
280
    1
281
    0
  0
BLOCK_RECORD
  5
60
330
1
100
AcDbSymbolTableRecord
100
AcDbBlockTableRecord
  2
*D7
 70
    0
280
    1
281
    0
  0
BLOCK_RECORD
  5
63
330
1
100
AcDbSymbolTableRecord
100
AcDbBlockTableRecord
  2
*D4
 70
    0
280
    1
281
    0
  0
BLOCK_RECORD
  5
66
330
1
100
AcDbSymbolTableRecord
100
AcDbBlockTableRecord
  2
*D29
 70
    0
280
    1
281
    0
  0
BLOCK_RECORD
  5
69
330
1
100
AcDbSymbolTableRecord
100
AcDbBlockTableRecord
  2
*D25
 70
    0
280
    1
281
    0
  0
BLOCK_RECORD
  5
6C
330
1
100
AcDbSymbolTableRecord
100
AcDbBlockTableRecord
  2
*D20
 70
    0
280
    1
281
    0
  0
BLOCK_RECORD
  5
6F
330
1
100
AcDbSymbolTableRecord
100
AcDbBlockTableRecord
  2
*D21
 70
    0
280
    1
281
    0
  0
BLOCK_RECORD
  5
72
330
1
100
AcDbSymbolTableRecord
100
AcDbBlockTableRecord
  2
*D28
 70
    0
280
    1
281
    0
  0
BLOCK_RECORD
  5
75
330
1
100
AcDbSymbolTableRecord
100
AcDbBlockTableRecord
  2
*D8
 70
    0
280
    1
281
    0
  0
BLOCK_RECORD
  5
78
330
1
100
AcDbSymbolTableRecord
100
AcDbBlockTableRecord
  2
*D1
 70
    0
280
    1
281
    0
  0
BLOCK_RECORD
  5
7B
330
1
100
AcDbSymbolTableRecord
100
AcDbBlockTableRecord
  2
*D13
 70
    0
280
    1
281
    0
  0
BLOCK_RECORD
  5
7E
330
1
100
AcDbSymbolTableRecord
100
AcDbBlockTableRecord
  2
*D12
 70
    0
280
    1
281
    0
  0
BLOCK_RECORD
  5
81
330
1
100
AcDbSymbolTableRecord
100
AcDbBlockTableRecord
  2
*D16
 70
    0
280
    1
281
    0
  0
BLOCK_RECORD
  5
84
330
1
100
AcDbSymbolTableRecord
100
AcDbBlockTableRecord
  2
*D33
 70
    0
280
    1
281
    0
  0
BLOCK_RECORD
  5
87
330
1
100
AcDbSymbolTableRecord
100
AcDbBlockTableRecord
  2
*D11
 70
    0
280
    1
281
    0
  0
BLOCK_RECORD
  5
8A
330
1
100
AcDbSymbolTableRecord
100
AcDbBlockTableRecord
  2
*D27
 70
    0
280
    1
281
    0
  0
BLOCK_RECORD
  5
8D
330
1
100
AcDbSymbolTableRecord
100
AcDbBlockTableRecord
  2
*D15
 70
    0
280
    1
281
    0
  0
BLOCK_RECORD
  5
90
330
1
100
AcDbSymbolTableRecord
100
AcDbBlockTableRecord
  2
*D32
 70
    0
280
    1
281
    0
  0
BLOCK_RECORD
  5
93
330
1
100
AcDbSymbolTableRecord
100
AcDbBlockTableRecord
  2
*D10
 70
    0
280
    1
281
    0
  0
BLOCK_RECORD
  5
96
330
1
100
AcDbSymbolTableRecord
100
AcDbBlockTableRecord
  2
*D9
 70
    0
280
    1
281
    0
  0
BLOCK_RECORD
  5
99
330
1
100
AcDbSymbolTableRecord
100
AcDbBlockTableRecord
  2
*D17
 70
    0
280
    1
281
    0
  0
BLOCK_RECORD
  5
9C
330
1
100
AcDbSymbolTableRecord
100
AcDbBlockTableRecord
  2
*D3
 70
    0
280
    1
281
    0
  0
BLOCK_RECORD
  5
9F
330
1
100
AcDbSymbolTableRecord
100
AcDbBlockTableRecord
  2
*D31
 70
    0
280
    1
281
    0
  0
BLOCK_RECORD
  5
A2
330
1
100
AcDbSymbolTableRecord
100
AcDbBlockTableRecord
  2
*D2
 70
    0
280
    1
281
    0
  0
BLOCK_RECORD
  5
A5
330
1
100
AcDbSymbolTableRecord
100
AcDbBlockTableRecord
  2
*D30
 70
    0
280
    1
281
    0
  0
BLOCK_RECORD
  5
A8
330
1
100
AcDbSymbolTableRecord
100
AcDbBlockTableRecord
  2
*D23
 70
    0
280
    1
281
    0
  0
BLOCK_RECORD
  5
AB
330
1
100
AcDbSymbolTableRecord
100
AcDbBlockTableRecord
  2
*D26
 70
    0
280
    1
281
    0
  0
BLOCK_RECORD
  5
AE
330
1
100
AcDbSymbolTableRecord
100
AcDbBlockTableRecord
  2
*D14
 70
    0
280
    1
281
    0
  0
BLOCK_RECORD
  5
B1
330
1
100
AcDbSymbolTableRecord
100
AcDbBlockTableRecord
  2
*D19
 70
    0
280
    1
281
    0
  0
BLOCK_RECORD
  5
B4
330
1
100
AcDbSymbolTableRecord
100
AcDbBlockTableRecord
  2
*D24
 70
    0
280
    1
281
    0
  0
BLOCK_RECORD
  5
B7
330
1
100
AcDbSymbolTableRecord
100
AcDbBlockTableRecord
  2
*D5
 70
    0
280
    1
281
    0
  0
BLOCK_RECORD
  5
BA
330
1
100
AcDbSymbolTableRecord
100
AcDbBlockTableRecord
  2
*D22
 70
    0
280
    1
281
    0
  0
BLOCK_RECORD
  5
BD
330
1
100
AcDbSymbolTableRecord
100
AcDbBlockTableRecord
  2
*D6
 70
    0
280
    1
281
    0
  0
BLOCK_RECORD
  5
C0
330
1
100
AcDbSymbolTableRecord
100
AcDbBlockTableRecord
  2
wall
 70
    0
280
    1
281
    0
  0
BLOCK_RECORD
  5
C3
330
1
100
AcDbSymbolTableRecord
100
AcDbBlockTableRecord
  2
d3
 70
    0
280
    1
281
    0
  0
BLOCK_RECORD
  5
C6
330
1
100
AcDbSymbolTableRecord
100
AcDbBlockTableRecord
  2
d3-0
 70
    0
280
    1
281
    0
  0
BLOCK_RECORD
  5
C9
330
1
100
AcDbSymbolTableRecord
100
AcDbBlockTableRecord
  2
d3-1
 70
    0
280
    1
281
    0
  0
BLOCK_RECORD
  5
CC
330
1
100
AcDbSymbolTableRecord
100
AcDbBlockTableRecord
  2
bed
 70
    0
280
    1
281
    0
  0
BLOCK_RECORD
  5
CF
330
1
100
AcDbSymbolTableRecord
100
AcDbBlockTableRecord
  2
bathroom1
 70
    0
280
    1
281
    0
  0
BLOCK_RECORD
  5
D2
330
1
100
AcDbSymbolTableRecord
100
AcDbBlockTableRecord
  2
study
 70
    0
280
    1
281
    0
  0
BLOCK_RECORD
  5
D5
330
1
100
AcDbSymbolTableRecord
100
AcDbBlockTableRecord
  2
studydoor
 70
    0
280
    1
281
    0
  0
BLOCK_RECORD
  5
D8
330
1
100
AcDbSymbolTableRecord
100
AcDbBlockTableRecord
  2
room
 70
    0
280
    1
281
    0
  0
BLOCK_RECORD
  5
DB
330
1
100
AcDbSymbolTableRecord
100
AcDbBlockTableRecord
  2
corridor
 70
    0
280
    1
281
    0
  0
BLOCK_RECORD
  5
DE
330
1
100
AcDbSymbolTableRecord
100
AcDbBlockTableRecord
  2
roombed
 70
    0
280
    1
281
    0
  0
BLOCK_RECORD
  5
E1
330
1
100
AcDbSymbolTableRecord
100
AcDbBlockTableRecord
  2
washstand
 70
    0
280
    1
281
    0
  0
ENDTAB
  0
ENDSEC
  0
SECTION
  2
BLOCKS
  0
BLOCK
  5
20
330
1F
100
AcDbEntity
  8
0
100
AcDbBlockBegin
  2
*Model_Space
 70
    0
 10
0
 20
0
 30
0
  3
*Model_Space
  1

  0
ENDBLK
  5
21
330
1F
100
AcDbEntity
  8
0
100
AcDbBlockEnd
  0
BLOCK
  5
1C
330
1B
100
AcDbEntity
  8
0
100
AcDbBlockBegin
  2
*Paper_Space
 70
    0
 10
0
 20
0
 30
0
  3
*Paper_Space
  1

  0
ENDBLK
  5
1D
330
1F
100
AcDbEntity
  8
0
100
AcDbBlockEnd
  0
BLOCK
  5
5E
330
5D
100
AcDbEntity
  8
0
100
AcDbBlockBegin
  2
*D18
 70
    1
 10
0
 20
0
  3
*D18
  1

  0
LINE
  5
E4
100
AcDbEntity
  8
dimension
  6
ByBlock
 62
    0
370
   -2
100
AcDbLine
 10
-320.9829656822691
 20
32.13600270118193
 11
-108.9829656822691
 21
32.13600270118193
  0
SOLID
  5
E5
100
AcDbEntity
  8
dimension
  6
ByBlock
 62
    0
370
   -2
100
AcDbTrace
 10
-320.9829656822691
 20
32.13600270118193
 30
0
 11
-315.9829656822691
 21
32.96857201672761
 31
0
 12
-315.9829656822691
 22
31.30343338563625
 32
0
 13
-315.9829656822691
 23
31.30343338563625
 33
0
  0
SOLID
  5
E6
100
AcDbEntity
  8
dimension
  6
ByBlock
 62
    0
370
   -2
100
AcDbTrace
 10
-108.9829656822691
 20
32.13600270118193
 30
0
 11
-113.9829656822691
 21
31.30343338563625
 31
0
 12
-113.9829656822691
 22
32.96857201672761
 32
0
 13
-113.9829656822691
 23
32.96857201672761
 33
0
  0
MTEXT
  5
E7
100
AcDbEntity
  8
dimension
  6
CONTINUOUS
 62
    0
370
   -2
100
AcDbMText
 10
-214.9829656822691
 20
35.26100270118193
 30
0
 40
5
 41
14.44444444444444
 71
    5
 72
    1
  1
212.0
  7
standard
210
0
220
0
230
1
 50
0
 73
    2
 44
1
  0
LINE
  5
E8
100
AcDbEntity
  8
dimension
  6
ByBlock
 62
    0
370
   -2
100
AcDbLine
 10
-320.9829656822691
 20
46.88039529739939
 11
-320.9829656822691
 21
30.88600270118193
  0
LINE
  5
E9
100
AcDbEntity
  8
dimension
  6
ByBlock
 62
    0
370
   -2
100
AcDbLine
 10
-108.9829656822691
 20
46.88039529739939
 11
-108.9829656822691
 21
30.88600270118193
  0
ENDBLK
  5
5F
330
5D
100
AcDbEntity
  8
0
100
AcDbBlockEnd
  0
BLOCK
  5
61
330
60
100
AcDbEntity
  8
0
100
AcDbBlockBegin
  2
*D7
 70
    1
 10
0
 20
0
  3
*D7
  1

  0
LINE
  5
EA
100
AcDbEntity
  8
dimension
  6
ByBlock
 62
    0
370
   -2
100
AcDbLine
 10
329.0227091551728
 20
51.60685944426941
 11
370.8042869433432
 21
52.42569350310683
  0
LINE
  5
EB
100
AcDbEntity
  8
dimension
  6
ByBlock
 62
    0
370
   -2
100
AcDbLine
 10
330.0428053385691
 20
-0.4442583347081593
 11
371.8243831267395
 21
0.3745757241292595
  0
LINE
  5
EC
100
AcDbEntity
  8
dimension
  6
ByBlock
 62
    0
370
   -2
100
AcDbLine
 10
369.5545269244552
 20
52.40120074522135
 11
370.5746231078514
 21
0.3500829662437829
  0
SOLID
  5
ED
100
AcDbEntity
  8
dimension
  6
ByBlock
 62
    0
370
   -2
100
AcDbTrace
 10
369.5545269244552
 20
52.40120074522135
 30
0
 11
370.4849074308147
 21
47.41847420460382
 31
0
 12
368.8200884811795
 22
47.38584713473416
 32
0
 13
368.8200884811795
 23
47.38584713473416
 33
0
  0
SOLID
  5
EE
100
AcDbEntity
  8
dimension
  6
ByBlock
 62
    0
370
   -2
100
AcDbTrace
 10
370.5746231078514
 20
0.3500829662437829
 30
0
 11
369.6442426014918
 21
5.332809506861321
 31
0
 12
371.3090615511271
 22
5.36543657673098
 32
0
 13
371.3090615511271
 23
5.36543657673098
 33
0
  0
MTEXT
  5
EF
100
AcDbEntity
  8
dimension
  6
CONTINUOUS
 62
    0
370
   -2
100
AcDbMText
 10
373.1889750633735
 20
26.43687375044626
 30
0
 40
5
 41
10.55555555555587
 71
    5
 72
    1
  1
52.1
  7
standard
210
0
220
0
230
1
 50
271.1227371748226
 73
    2
 44
1
  0
ENDBLK
  5
62
330
60
100
AcDbEntity
  8
0
100
AcDbBlockEnd
  0
BLOCK
  5
64
330
63
100
AcDbEntity
  8
0
100
AcDbBlockBegin
  2
*D4
 70
    1
 10
0
 20
0
  3
*D4
  1

  0
LINE
  5
F0
100
AcDbEntity
  8
dimension
  6
ByBlock
 62
    0
370
   -2
100
AcDbLine
 10
-0.6249999999999893
 20
477.6709972605304
 11
-30.29463451022819
 21
477.6709972605304
  0
LINE
  5
F1
100
AcDbEntity
  8
dimension
  6
ByBlock
 62
    0
370
   -2
100
AcDbLine
 10
-0.6250000000000053
 20
-0.3583428336538076
 11
-30.29463451022821
 21
-0.358342833653804
  0
LINE
  5
F2
100
AcDbEntity
  8
dimension
  6
ByBlock
 62
    0
370
   -2
100
AcDbLine
 10
-29.04463451022819
 20
477.6709972605304
 11
-29.04463451022821
 21
-0.3583428336538041
  0
SOLID
  5
F3
100
AcDbEntity
  8
dimension
  6
ByBlock
 62
    0
370
   -2
100
AcDbTrace
 10
-29.04463451022819
 20
477.6709972605304
 30
0
 11
-28.21206519468251
 21
472.6709972605304
 31
0
 12
-29.87720382577387
 22
472.6709972605304
 32
0
 13
-29.87720382577387
 23
472.6709972605304
 33
0
  0
SOLID
  5
F4
100
AcDbEntity
  8
dimension
  6
ByBlock
 62
    0
370
   -2
100
AcDbTrace
 10
-29.04463451022821
 20
-0.3583428336538041
 30
0
 11
-29.87720382577389
 21
4.641657166346196
 31
0
 12
-28.21206519468253
 22
4.641657166346196
 32
0
 13
-28.21206519468253
 23
4.641657166346196
 33
0
  0
MTEXT
  5
F5
100
AcDbEntity
  8
dimension
  6
CONTINUOUS
 62
    0
370
   -2
100
AcDbMText
 10
-32.1696345102282
 20
238.6563272134383
 30
0
 40
5
 41
16.11111111111111
 71
    5
 72
    1
  1
478.0
  7
standard
210
0
220
0
230
1
 50
90
 73
    2
 44
1
  0
ENDBLK
  5
65
330
63
100
AcDbEntity
  8
0
100
AcDbBlockEnd
  0
BLOCK
  5
67
330
66
100
AcDbEntity
  8
0
100
AcDbBlockBegin
  2
*D29
 70
    1
 10
0
 20
0
  3
*D29
  1

  0
LINE
  5
F6
100
AcDbEntity
  8
dimension
  6
ByBlock
 62
    0
370
   -2
100
AcDbLine
 10
249.3156193191474
 20
451.0115622482465
 11
249.3156193191474
 21
474
  0
SOLID
  5
F7
100
AcDbEntity
  8
dimension
  6
ByBlock
 62
    0
370
   -2
100
AcDbTrace
 10
249.3156193191474
 20
451.0115622482465
 30
0
 11
248.4830500036017
 21
456.0115622482465
 31
0
 12
250.1481886346931
 22
456.0115622482465
 32
0
 13
250.1481886346931
 23
456.0115622482465
 33
0
  0
SOLID
  5
F8
100
AcDbEntity
  8
dimension
  6
ByBlock
 62
    0
370
   -2
100
AcDbTrace
 10
249.3156193191474
 20
474
 30
0
 11
250.1481886346931
 21
469
 31
0
 12
248.4830500036017
 22
469
 32
0
 13
248.4830500036017
 23
469
 33
0
  0
MTEXT
  5
F9
100
AcDbEntity
  8
dimension
  6
CONTINUOUS
 62
    0
370
   -2
100
AcDbMText
 10
246.1906193191474
 20
462.5057811241232
 30
0
 40
5
 41
11.66666666666698
 71
    5
 72
    1
  1
23.0
  7
standard
210
0
220
0
230
1
 50
90
 73
    2
 44
1
  0
LINE
  5
FA
100
AcDbEntity
  8
dimension
  6
ByBlock
 62
    0
370
   -2
100
AcDbLine
 10
254.275
 20
451.0115622482465
 11
248.0656193191474
 21
451.0115622482465
  0
LINE
  5
FB
100
AcDbEntity
  8
dimension
  6
ByBlock
 62
    0
370
   -2
100
AcDbLine
 10
254.275
 20
474
 11
248.0656193191474
 21
474
  0
ENDBLK
  5
68
330
66
100
AcDbEntity
  8
0
100
AcDbBlockEnd
  0
BLOCK
  5
6A
330
69
100
AcDbEntity
  8
0
100
AcDbBlockBegin
  2
*D25
 70
    1
 10
0
 20
0
  3
*D25
  1

  0
LINE
  5
FC
100
AcDbEntity
  8
dimension
  6
ByBlock
 62
    0
370
   -2
100
AcDbLine
 10
-365.6780198673897
 20
974.8065420082551
 11
-626.1780198673897
 21
974.8065420082551
  0
SOLID
  5
FD
100
AcDbEntity
  8
dimension
  6
ByBlock
 62
    0
370
   -2
100
AcDbTrace
 10
-365.6780198673897
 20
974.8065420082551
 30
0
 11
-370.6780198673897
 21
973.9739726927094
 31
0
 12
-370.6780198673897
 22
975.6391113238008
 32
0
 13
-370.6780198673897
 23
975.6391113238008
 33
0
  0
SOLID
  5
FE
100
AcDbEntity
  8
dimension
  6
ByBlock
 62
    0
370
   -2
100
AcDbTrace
 10
-626.1780198673897
 20
974.8065420082551
 30
0
 11
-621.1780198673897
 21
975.6391113238008
 31
0
 12
-621.1780198673897
 22
973.9739726927094
 32
0
 13
-621.1780198673897
 23
973.9739726927094
 33
0
  0
MTEXT
  5
FF
100
AcDbEntity
  8
dimension
  6
CONTINUOUS
 62
    0
370
   -2
100
AcDbMText
 10
-495.9280198673897
 20
977.9315420082551
 30
0
 40
5
 41
15.55555555555618
 71
    5
 72
    1
  1
260.5
  7
standard
210
0
220
0
230
1
 50
360
 73
    2
 44
1
  0
LINE
  5
100
100
AcDbEntity
  8
dimension
  6
ByBlock
 62
    0
370
   -2
100
AcDbLine
 10
-365.6780198673897
 20
961.925
 11
-365.6780198673897
 21
976.0565420082551
  0
LINE
  5
101
100
AcDbEntity
  8
dimension
  6
ByBlock
 62
    0
370
   -2
100
AcDbLine
 10
-626.1780198673897
 20
961.925
 11
-626.1780198673897
 21
976.0565420082551
  0
ENDBLK
  5
6B
330
69
100
AcDbEntity
  8
0
100
AcDbBlockEnd
  0
BLOCK
  5
6D
330
6C
100
AcDbEntity
  8
0
100
AcDbBlockBegin
  2
*D20
 70
    1
 10
0
 20
0
  3
*D20
  1

  0
LINE
  5
102
100
AcDbEntity
  8
dimension
  6
ByBlock
 62
    0
370
   -2
100
AcDbLine
 10
368.6982969079976
 20
1061.861040842675
 11
368.6982969079976
 21
690.3613670882359
  0
SOLID
  5
103
100
AcDbEntity
  8
dimension
  6
ByBlock
 62
    0
370
   -2
100
AcDbTrace
 10
368.6982969079976
 20
1061.861040842675
 30
0
 11
369.5308662235433
 21
1056.861040842675
 31
0
 12
367.8657275924519
 22
1056.861040842675
 32
0
 13
367.8657275924519
 23
1056.861040842675
 33
0
  0
SOLID
  5
104
100
AcDbEntity
  8
dimension
  6
ByBlock
 62
    0
370
   -2
100
AcDbTrace
 10
368.6982969079976
 20
690.3613670882359
 30
0
 11
367.8657275924519
 21
695.3613670882359
 31
0
 12
369.5308662235433
 22
695.3613670882359
 32
0
 13
369.5308662235433
 23
695.3613670882359
 33
0
  0
MTEXT
  5
105
100
AcDbEntity
  8
dimension
  6
CONTINUOUS
 62
    0
370
   -2
100
AcDbMText
 10
365.5732969079976
 20
876.1112039654554
 30
0
 40
5
 41
14.44444444444506
 71
    5
 72
    1
  1
371.5
  7
standard
210
0
220
0
230
1
 50
90
 73
    2
 44
1
  0
LINE
  5
106
100
AcDbEntity
  8
dimension
  6
ByBlock
 62
    0
370
   -2
100
AcDbLine
 10
328.6829076551654
 20
1061.861040842675
 11
369.9482969079976
 21
1061.861040842675
  0
LINE
  5
107
100
AcDbEntity
  8
dimension
  6
ByBlock
 62
    0
370
   -2
100
AcDbLine
 10
329.1752493508736
 20
690.3613670882359
 11
369.9482969079976
 21
690.3613670882359
  0
ENDBLK
  5
6E
330
6C
100
AcDbEntity
  8
0
100
AcDbBlockEnd
  0
BLOCK
  5
70
330
6F
100
AcDbEntity
  8
0
100
AcDbBlockBegin
  2
*D21
 70
    1
 10
0
 20
0
  3
*D21
  1

  0
LINE
  5
108
100
AcDbEntity
  8
dimension
  6
ByBlock
 62
    0
370
   -2
100
AcDbLine
 10
56.0581465213636
 20
1118.645108603243
 11
328.0579076551654
 21
1118.645108603243
  0
SOLID
  5
109
100
AcDbEntity
  8
dimension
  6
ByBlock
 62
    0
370
   -2
100
AcDbTrace
 10
56.0581465213636
 20
1118.645108603243
 30
0
 11
61.0581465213636
 21
1119.477677918789
 31
0
 12
61.0581465213636
 22
1117.812539287697
 32
0
 13
61.0581465213636
 23
1117.812539287697
 33
0
  0
SOLID
  5
10A
100
AcDbEntity
  8
dimension
  6
ByBlock
 62
    0
370
   -2
100
AcDbTrace
 10
328.0579076551654
 20
1118.645108603243
 30
0
 11
323.0579076551654
 21
1117.812539287697
 31
0
 12
323.0579076551654
 22
1119.477677918789
 32
0
 13
323.0579076551654
 23
1119.477677918789
 33
0
  0
MTEXT
  5
10B
100
AcDbEntity
  8
dimension
  6
CONTINUOUS
 62
    0
370
   -2
100
AcDbMText
 10
192.0580270882645
 20
1121.770108603243
 30
0
 40
5
 41
15.55555555555556
 71
    5
 72
    1
  1
272.0
  7
standard
210
0
220
0
230
1
 50
0
 73
    2
 44
1
  0
LINE
  5
10C
100
AcDbEntity
  8
dimension
  6
ByBlock
 62
    0
370
   -2
100
AcDbLine
 10
56.05814652136357
 20
1062.125564554027
 11
56.0581465213636
 21
1119.895108603243
  0
LINE
  5
10D
100
AcDbEntity
  8
dimension
  6
ByBlock
 62
    0
370
   -2
100
AcDbLine
 10
328.0579076551654
 20
1062.486040842675
 11
328.0579076551654
 21
1119.895108603243
  0
ENDBLK
  5
71
330
6F
100
AcDbEntity
  8
0
100
AcDbBlockEnd
  0
BLOCK
  5
73
330
72
100
AcDbEntity
  8
0
100
AcDbBlockBegin
  2
*D28
 70
    1
 10
0
 20
0
  3
*D28
  1

  0
LINE
  5
10E
100
AcDbEntity
  8
dimension
  6
ByBlock
 62
    0
370
   -2
100
AcDbLine
 10
108.9466604551086
 20
663.4539328012524
 11
108.9466604551086
 21
509.4539328012524
  0
SOLID
  5
10F
100
AcDbEntity
  8
dimension
  6
ByBlock
 62
    0
370
   -2
100
AcDbTrace
 10
108.9466604551086
 20
663.4539328012524
 30
0
 11
109.7792297706543
 21
658.4539328012524
 31
0
 12
108.1140911395629
 22
658.4539328012524
 32
0
 13
108.1140911395629
 23
658.4539328012524
 33
0
  0
SOLID
  5
110
100
AcDbEntity
  8
dimension
  6
ByBlock
 62
    0
370
   -2
100
AcDbTrace
 10
108.9466604551086
 20
509.4539328012524
 30
0
 11
108.1140911395629
 21
514.4539328012524
 31
0
 12
109.7792297706543
 22
514.4539328012524
 32
0
 13
109.7792297706543
 23
514.4539328012524
 33
0
  0
MTEXT
  5
111
100
AcDbEntity
  8
dimension
  6
CONTINUOUS
 62
    0
370
   -2
100
AcDbMText
 10
105.8216604551086
 20
586.4539328012524
 30
0
 40
5
 41
15.00000000000031
 71
    5
 72
    1
  1
154.0
  7
standard
210
0
220
0
230
1
 50
90
 73
    2
 44
1
  0
LINE
  5
112
100
AcDbEntity
  8
dimension
  6
ByBlock
 62
    0
370
   -2
100
AcDbLine
 10
101.6054598057303
 20
663.4539328012524
 11
110.1966604551086
 21
663.4539328012524
  0
LINE
  5
113
100
AcDbEntity
  8
dimension
  6
ByBlock
 62
    0
370
   -2
100
AcDbLine
 10
101.6054598057303
 20
509.4539328012524
 11
110.1966604551086
 21
509.4539328012524
  0
ENDBLK
  5
74
330
72
100
AcDbEntity
  8
0
100
AcDbBlockEnd
  0
BLOCK
  5
76
330
75
100
AcDbEntity
  8
0
100
AcDbBlockBegin
  2
*D8
 70
    1
 10
0
 20
0
  3
*D8
  1

  0
LINE
  5
114
100
AcDbEntity
  8
dimension
  6
ByBlock
 62
    0
370
   -2
100
AcDbLine
 10
-1.378206027474025
 20
390.5373844773495
 11
-18.61417627759211
 21
390.5389796783564
  0
LINE
  5
115
100
AcDbEntity
  8
dimension
  6
ByBlock
 62
    0
370
   -2
100
AcDbLine
 10
-1.396466208895677
 20
193.2381460906956
 11
-18.63243645901376
 21
193.2397412917025
  0
LINE
  5
116
100
AcDbEntity
  8
dimension
  6
ByBlock
 62
    0
370
   -2
100
AcDbLine
 10
-17.36417628294563
 20
390.5388639899895
 11
-17.38243646436728
 21
193.2396256033356
  0
SOLID
  5
117
100
AcDbEntity
  8
dimension
  6
ByBlock
 62
    0
370
   -2
100
AcDbTrace
 10
-17.36417628294563
 20
390.5388639899895
 30
0
 11
-16.53206972443329
 21
385.5387869565361
 31
0
 12
-18.19720834839317
 22
385.5389410662711
 32
0
 13
-18.19720834839317
 23
385.5389410662711
 33
0
  0
SOLID
  5
118
100
AcDbEntity
  8
dimension
  6
ByBlock
 62
    0
370
   -2
100
AcDbTrace
 10
-17.38243646436728
 20
193.2396256033356
 30
0
 11
-18.21454302287962
 21
198.2397026367891
 31
0
 12
-16.54940439891974
 22
198.239548527054
 32
0
 13
-16.54940439891974
 23
198.239548527054
 33
0
  0
MTEXT
  5
119
100
AcDbEntity
  8
dimension
  6
CONTINUOUS
 62
    0
370
   -2
100
AcDbMText
 10
-20.49830636027266
 20
291.8895340175798
 30
0
 40
5
 41
14.44444444444476
 71
    5
 72
    1
  1
197.3
  7
standard
210
0
220
0
230
1
 50
89.99469723586279
 73
    2
 44
1
  0
ENDBLK
  5
77
330
75
100
AcDbEntity
  8
0
100
AcDbBlockEnd
  0
BLOCK
  5
79
330
78
100
AcDbEntity
  8
0
100
AcDbBlockBegin
  2
*D1
 70
    1
 10
0
 20
0
  3
*D1
  1

  0
LINE
  5
11A
100
AcDbEntity
  8
dimension
  6
ByBlock
 62
    0
370
   -2
100
AcDbLine
 10
329.8152936666376
 20
441.1532644153673
 11
329.8106036358948
 21
453.1901711215388
  0
LINE
  5
11B
100
AcDbEntity
  8
dimension
  6
ByBlock
 62
    0
370
   -2
100
AcDbLine
 10
199.4672383939103
 20
441.1024759194997
 11
199.4625483631675
 21
453.1393826256712
  0
LINE
  5
11C
100
AcDbEntity
  8
dimension
  6
ByBlock
 62
    0
370
   -2
100
AcDbLine
 10
329.8110906827854
 20
451.9401712164246
 11
199.463035410058
 21
451.8893827205571
  0
SOLID
  5
11D
100
AcDbEntity
  8
dimension
  6
ByBlock
 62
    0
370
   -2
100
AcDbTrace
 10
329.8110906827854
 20
451.9401712164246
 30
0
 11
324.8114154625659
 21
451.1056537765159
 31
0
 12
324.8107666620918
 22
452.7707922812087
 32
0
 13
324.8107666620918
 23
452.7707922812087
 33
0
  0
SOLID
  5
11E
100
AcDbEntity
  8
dimension
  6
ByBlock
 62
    0
370
   -2
100
AcDbTrace
 10
199.463035410058
 20
451.8893827205571
 30
0
 11
204.4627106302775
 21
452.7239001604659
 31
0
 12
204.4633594307516
 22
451.058761655773
 32
0
 13
204.4633594307516
 23
451.058761655773
 33
0
  0
MTEXT
  5
11F
100
AcDbEntity
  8
dimension
  6
CONTINUOUS
 62
    0
370
   -2
100
AcDbMText
 10
264.6358454291952
 20
455.0397767312762
 30
0
 40
5
 41
14.44444444444506
 71
    5
 72
    1
  1
130.3
  7
standard
210
0
220
0
230
1
 50
0.02232458556955849
 73
    2
 44
1
  0
ENDBLK
  5
7A
330
78
100
AcDbEntity
  8
0
100
AcDbBlockEnd
  0
BLOCK
  5
7C
330
7B
100
AcDbEntity
  8
0
100
AcDbBlockBegin
  2
*D13
 70
    1
 10
0
 20
0
  3
*D13
  1

  0
LINE
  5
120
100
AcDbEntity
  8
dimension
  6
ByBlock
 62
    0
370
   -2
100
AcDbLine
 10
56.55048821707172
 20
674.3843669350027
 11
138.7202037061315
 21
674.3843669350027
  0
SOLID
  5
121
100
AcDbEntity
  8
dimension
  6
ByBlock
 62
    0
370
   -2
100
AcDbTrace
 10
56.55048821707172
 20
674.3843669350027
 30
0
 11
61.55048821707172
 21
675.2169362505484
 31
0
 12
61.55048821707172
 22
673.551797619457
 32
0
 13
61.55048821707172
 23
673.551797619457
 33
0
  0
SOLID
  5
122
100
AcDbEntity
  8
dimension
  6
ByBlock
 62
    0
370
   -2
100
AcDbTrace
 10
138.7202037061315
 20
674.3843669350027
 30
0
 11
133.7202037061315
 21
673.551797619457
 31
0
 12
133.7202037061315
 22
675.2169362505484
 32
0
 13
133.7202037061315
 23
675.2169362505484
 33
0
  0
MTEXT
  5
123
100
AcDbEntity
  8
dimension
  6
CONTINUOUS
 62
    0
370
   -2
100
AcDbMText
 10
97.63534596160159
 20
677.5093669350027
 30
0
 40
5
 41
11.66666666666667
 71
    5
 72
    1
  1
82.2
  7
standard
210
0
220
0
230
1
 50
0
 73
    2
 44
1
  0
LINE
  5
124
100
AcDbEntity
  8
dimension
  6
ByBlock
 62
    0
370
   -2
100
AcDbLine
 10
56.55048821707172
 20
689.3758907995882
 11
56.55048821707172
 21
673.1343669350027
  0
LINE
  5
125
100
AcDbEntity
  8
dimension
  6
ByBlock
 62
    0
370
   -2
100
AcDbLine
 10
138.7202037061315
 20
688.7723759941078
 11
138.7202037061315
 21
673.1343669350027
  0
ENDBLK
  5
7D
330
7B
100
AcDbEntity
  8
0
100
AcDbBlockEnd
  0
BLOCK
  5
7F
330
7E
100
AcDbEntity
  8
0
100
AcDbBlockBegin
  2
*D12
 70
    1
 10
0
 20
0
  3
*D12
  1

  0
LINE
  5
126
100
AcDbEntity
  8
dimension
  6
ByBlock
 62
    0
370
   -2
100
AcDbLine
 10
328.9279009544131
 20
441.7540188105269
 11
370.0860389844455
 21
441.8713508529785
  0
LINE
  5
127
100
AcDbEntity
  8
dimension
  6
ByBlock
 62
    0
370
   -2
100
AcDbLine
 10
329.3424805276296
 20
296.3263679970834
 11
370.5006185576621
 21
296.443700039535
  0
LINE
  5
128
100
AcDbEntity
  8
dimension
  6
ByBlock
 62
    0
370
   -2
100
AcDbLine
 10
368.8360440636908
 20
441.8677874153663
 11
369.2506236369074
 21
296.4401366019228
  0
SOLID
  5
129
100
AcDbEntity
  8
dimension
  6
ByBlock
 62
    0
370
   -2
100
AcDbTrace
 10
368.8360440636908
 20
441.8677874153663
 30
0
 11
369.6828637466264
 21
436.8701811793989
 31
0
 12
368.0177318816532
 22
436.8654342852967
 32
0
 13
368.0177318816532
 23
436.8654342852967
 33
0
  0
SOLID
  5
12A
100
AcDbEntity
  8
dimension
  6
ByBlock
 62
    0
370
   -2
100
AcDbTrace
 10
369.2506236369074
 20
296.4401366019228
 30
0
 11
368.4038039539718
 21
301.4377428378903
 31
0
 12
370.068935818945
 22
301.4424897319924
 32
0
 13
370.068935818945
 23
301.4424897319924
 33
0
  0
MTEXT
  5
12B
100
AcDbEntity
  8
dimension
  6
CONTINUOUS
 62
    0
370
   -2
100
AcDbMText
 10
372.1683211521857
 20
369.1628706026752
 30
0
 40
5
 41
15.55555555555587
 71
    5
 72
    1
  1
145.4
  7
standard
210
0
220
0
230
1
 50
270.1633361698252
 73
    2
 44
1
  0
ENDBLK
  5
80
330
7E
100
AcDbEntity
  8
0
100
AcDbBlockEnd
  0
BLOCK
  5
82
330
81
100
AcDbEntity
  8
0
100
AcDbBlockBegin
  2
*D16
 70
    1
 10
0
 20
0
  3
*D16
  1

  0
LINE
  5
12C
100
AcDbEntity
  8
dimension
  6
ByBlock
 62
    0
370
   -2
100
AcDbLine
 10
328.3713793006613
 20
662.2055988637885
 11
254.8473159918406
 21
662.2055988637885
  0
SOLID
  5
12D
100
AcDbEntity
  8
dimension
  6
ByBlock
 62
    0
370
   -2
100
AcDbTrace
 10
328.3713793006613
 20
662.2055988637885
 30
0
 11
323.3713793006613
 21
661.3730295482428
 31
0
 12
323.3713793006613
 22
663.0381681793342
 32
0
 13
323.3713793006613
 23
663.0381681793342
 33
0
  0
SOLID
  5
12E
100
AcDbEntity
  8
dimension
  6
ByBlock
 62
    0
370
   -2
100
AcDbTrace
 10
254.8473159918406
 20
662.2055988637885
 30
0
 11
259.8473159918406
 21
663.0381681793342
 31
0
 12
259.8473159918406
 22
661.3730295482428
 32
0
 13
259.8473159918406
 23
661.3730295482428
 33
0
  0
MTEXT
  5
12F
100
AcDbEntity
  8
dimension
  6
CONTINUOUS
 62
    0
370
   -2
100
AcDbMText
 10
291.609347646251
 20
665.3305988637885
 30
0
 40
5
 41
11.66666666666729
 71
    5
 72
    1
  1
73.5
  7
standard
210
0
220
0
230
1
 50
360
 73
    2
 44
1
  0
LINE
  5
130
100
AcDbEntity
  8
dimension
  6
ByBlock
 62
    0
370
   -2
100
AcDbLine
 10
328.3713793006613
 20
650.4365622482466
 11
328.3713793006613
 21
663.4555988637885
  0
LINE
  5
131
100
AcDbEntity
  8
dimension
  6
ByBlock
 62
    0
370
   -2
100
AcDbLine
 10
254.8473159918406
 20
650.4111390201316
 11
254.8473159918406
 21
663.4555988637885
  0
ENDBLK
  5
83
330
81
100
AcDbEntity
  8
0
100
AcDbBlockEnd
  0
BLOCK
  5
85
330
84
100
AcDbEntity
  8
0
100
AcDbBlockBegin
  2
*D33
 70
    1
 10
0
 20
0
  3
*D33
  1

  0
LINE
  5
132
100
AcDbEntity
  8
dimension
  6
ByBlock
 62
    0
370
   -2
100
AcDbLine
 10
-370.9125523897065
 20
621
 11
-370.9125523897065
 21
748.6479109270497
  0
SOLID
  5
133
100
AcDbEntity
  8
dimension
  6
ByBlock
 62
    0
370
   -2
100
AcDbTrace
 10
-370.9125523897065
 20
621
 30
0
 11
-371.7451217052522
 21
626
 31
0
 12
-370.0799830741608
 22
626
 32
0
 13
-370.0799830741608
 23
626
 33
0
  0
SOLID
  5
134
100
AcDbEntity
  8
dimension
  6
ByBlock
 62
    0
370
   -2
100
AcDbTrace
 10
-370.9125523897065
 20
748.6479109270497
 30
0
 11
-370.0799830741608
 21
743.6479109270497
 31
0
 12
-371.7451217052522
 22
743.6479109270497
 32
0
 13
-371.7451217052522
 23
743.6479109270497
 33
0
  0
MTEXT
  5
135
100
AcDbEntity
  8
dimension
  6
CONTINUOUS
 62
    0
370
   -2
100
AcDbMText
 10
-374.0375523897065
 20
684.8239554635248
 30
0
 40
5
 41
14.44444444444476
 71
    5
 72
    1
  1
127.6
  7
standard
210
0
220
0
230
1
 50
90
 73
    2
 44
1
  0
LINE
  5
136
100
AcDbEntity
  8
dimension
  6
ByBlock
 62
    0
370
   -2
100
AcDbLine
 10
-366.325
 20
621
 11
-372.1625523897065
 21
621
  0
LINE
  5
137
100
AcDbEntity
  8
dimension
  6
ByBlock
 62
    0
370
   -2
100
AcDbLine
 10
-366.325
 20
748.6479109270497
 11
-372.1625523897065
 21
748.6479109270497
  0
ENDBLK
  5
86
330
84
100
AcDbEntity
  8
0
100
AcDbBlockEnd
  0
BLOCK
  5
88
330
87
100
AcDbEntity
  8
0
100
AcDbBlockBegin
  2
*D11
 70
    1
 10
0
 20
0
  3
*D11
  1

  0
LINE
  5
138
100
AcDbEntity
  8
dimension
  6
ByBlock
 62
    0
370
   -2
100
AcDbLine
 10
327.9762557881127
 20
441.4631325196719
 11
410.8609665714562
 21
441.6902139190784
  0
LINE
  5
139
100
AcDbEntity
  8
dimension
  6
ByBlock
 62
    0
370
   -2
100
AcDbLine
 10
329.1859665319143
 20
-0.08128896793140494
 11
412.0706773152579
 21
0.1457924314750418
  0
LINE
  5
13A
100
AcDbEntity
  8
dimension
  6
ByBlock
 62
    0
370
   -2
100
AcDbLine
 10
409.6109712627414
 20
441.686789274397
 11
410.8206820065431
 21
0.1423677867936312
  0
SOLID
  5
13B
100
AcDbEntity
  8
dimension
  6
ByBlock
 62
    0
370
   -2
100
AcDbTrace
 10
409.6109712627414
 20
441.686789274397
 30
0
 11
410.4572360323566
 21
436.6890890428008
 31
0
 12
408.7921036505775
 22
436.6845270362754
 32
0
 13
408.7921036505775
 23
436.6845270362754
 33
0
  0
SOLID
  5
13C
100
AcDbEntity
  8
dimension
  6
ByBlock
 62
    0
370
   -2
100
AcDbTrace
 10
410.8206820065431
 20
0.1423677867936312
 30
0
 11
409.9744172369279
 21
5.140068018389797
 31
0
 12
411.639549618707
 22
5.144630024915219
 32
0
 13
411.639549618707
 23
5.144630024915219
 33
0
  0
MTEXT
  5
13D
100
AcDbEntity
  8
dimension
  6
CONTINUOUS
 62
    0
370
   -2
100
AcDbMText
 10
413.340814906429
 20
220.9231401422988
 30
0
 40
5
 41
15.55555555555587
 71
    5
 72
    1
  1
441.5
  7
standard
210
0
220
0
230
1
 50
270.1569743456378
 73
    2
 44
1
  0
ENDBLK
  5
89
330
87
100
AcDbEntity
  8
0
100
AcDbBlockEnd
  0
BLOCK
  5
8B
330
8A
100
AcDbEntity
  8
0
100
AcDbBlockBegin
  2
*D27
 70
    1
 10
0
 20
0
  3
*D27
  1

  0
LINE
  5
13E
100
AcDbEntity
  8
dimension
  6
ByBlock
 62
    0
370
   -2
100
AcDbLine
 10
23.48045980573031
 20
653.6799627306516
 11
100.9804598057303
 21
653.6799627306516
  0
SOLID
  5
13F
100
AcDbEntity
  8
dimension
  6
ByBlock
 62
    0
370
   -2
100
AcDbTrace
 10
23.48045980573031
 20
653.6799627306516
 30
0
 11
28.48045980573031
 21
654.5125320461973
 31
0
 12
28.48045980573031
 22
652.8473934151059
 32
0
 13
28.48045980573031
 23
652.8473934151059
 33
0
  0
SOLID
  5
140
100
AcDbEntity
  8
dimension
  6
ByBlock
 62
    0
370
   -2
100
AcDbTrace
 10
100.9804598057303
 20
653.6799627306516
 30
0
 11
95.98045980573031
 21
652.8473934151059
 31
0
 12
95.98045980573031
 22
654.5125320461973
 32
0
 13
95.98045980573031
 23
654.5125320461973
 33
0
  0
MTEXT
  5
141
100
AcDbEntity
  8
dimension
  6
CONTINUOUS
 62
    0
370
   -2
100
AcDbMText
 10
62.23045980573031
 20
656.8049627306516
 30
0
 40
5
 41
11.66666666666698
 71
    5
 72
    1
  1
77.5
  7
standard
210
0
220
0
230
1
 50
0
 73
    2
 44
1
  0
LINE
  5
142
100
AcDbEntity
  8
dimension
  6
ByBlock
 62
    0
370
   -2
100
AcDbLine
 10
23.48045980573031
 20
662.8289328012524
 11
23.48045980573031
 21
652.4299627306516
  0
LINE
  5
143
100
AcDbEntity
  8
dimension
  6
ByBlock
 62
    0
370
   -2
100
AcDbLine
 10
100.9804598057303
 20
662.8289328012524
 11
100.9804598057303
 21
652.4299627306516
  0
ENDBLK
  5
8C
330
8A
100
AcDbEntity
  8
0
100
AcDbBlockEnd
  0
BLOCK
  5
8E
330
8D
100
AcDbEntity
  8
0
100
AcDbBlockBegin
  2
*D15
 70
    1
 10
0
 20
0
  3
*D15
  1

  0
LINE
  5
144
100
AcDbEntity
  8
dimension
  6
ByBlock
 62
    0
370
   -2
100
AcDbLine
 10
124.8713793006613
 20
676.6121722824306
 11
328.3713793006613
 21
676.6121722824306
  0
SOLID
  5
145
100
AcDbEntity
  8
dimension
  6
ByBlock
 62
    0
370
   -2
100
AcDbTrace
 10
124.8713793006613
 20
676.6121722824306
 30
0
 11
129.8713793006613
 21
677.4447415979763
 31
0
 12
129.8713793006613
 22
675.7796029668849
 32
0
 13
129.8713793006613
 23
675.7796029668849
 33
0
  0
SOLID
  5
146
100
AcDbEntity
  8
dimension
  6
ByBlock
 62
    0
370
   -2
100
AcDbTrace
 10
328.3713793006613
 20
676.6121722824306
 30
0
 11
323.3713793006613
 21
675.7796029668849
 31
0
 12
323.3713793006613
 22
677.4447415979763
 32
0
 13
323.3713793006613
 23
677.4447415979763
 33
0
  0
MTEXT
  5
147
100
AcDbEntity
  8
dimension
  6
CONTINUOUS
 62
    0
370
   -2
100
AcDbMText
 10
226.6213793006613
 20
679.7371722824306
 30
0
 40
5
 41
15.55555555555618
 71
    5
 72
    1
  1
203.5
  7
standard
210
0
220
0
230
1
 50
0
 73
    2
 44
1
  0
LINE
  5
148
100
AcDbEntity
  8
dimension
  6
ByBlock
 62
    0
370
   -2
100
AcDbLine
 10
124.8713793006613
 20
650.4365622482466
 11
124.8713793006613
 21
677.8621722824306
  0
LINE
  5
149
100
AcDbEntity
  8
dimension
  6
ByBlock
 62
    0
370
   -2
100
AcDbLine
 10
328.3713793006613
 20
650.4365622482466
 11
328.3713793006613
 21
677.8621722824306
  0
ENDBLK
  5
8F
330
8D
100
AcDbEntity
  8
0
100
AcDbBlockEnd
  0
BLOCK
  5
91
330
90
100
AcDbEntity
  8
0
100
AcDbBlockBegin
  2
*D32
 70
    1
 10
0
 20
0
  3
*D32
  1

  0
LINE
  5
14A
100
AcDbEntity
  8
dimension
  6
ByBlock
 62
    0
370
   -2
100
AcDbLine
 10
-351.362111501206
 20
508
 11
-351.362111501206
 21
0
  0
SOLID
  5
14B
100
AcDbEntity
  8
dimension
  6
ByBlock
 62
    0
370
   -2
100
AcDbTrace
 10
-351.362111501206
 20
508
 30
0
 11
-350.5295421856603
 21
503
 31
0
 12
-352.1946808167517
 22
503
 32
0
 13
-352.1946808167517
 23
503
 33
0
  0
SOLID
  5
14C
100
AcDbEntity
  8
dimension
  6
ByBlock
 62
    0
370
   -2
100
AcDbTrace
 10
-351.362111501206
 20
0
 30
0
 11
-352.1946808167517
 21
5
 31
0
 12
-350.5295421856603
 22
5
 32
0
 13
-350.5295421856603
 23
5
 33
0
  0
MTEXT
  5
14D
100
AcDbEntity
  8
dimension
  6
CONTINUOUS
 62
    0
370
   -2
100
AcDbMText
 10
-354.487111501206
 20
254
 30
0
 40
5
 41
15.55555555555587
 71
    5
 72
    1
  1
508.0
  7
standard
210
0
220
0
230
1
 50
90
 73
    2
 44
1
  0
LINE
  5
14E
100
AcDbEntity
  8
dimension
  6
ByBlock
 62
    0
370
   -2
100
AcDbLine
 10
-365.075
 20
508
 11
-350.112111501206
 21
508
  0
LINE
  5
14F
100
AcDbEntity
  8
dimension
  6
ByBlock
 62
    0
370
   -2
100
AcDbLine
 10
-365.075
 20
0
 11
-350.112111501206
 21
0
  0
ENDBLK
  5
92
330
90
100
AcDbEntity
  8
0
100
AcDbBlockEnd
  0
BLOCK
  5
94
330
93
100
AcDbEntity
  8
0
100
AcDbBlockBegin
  2
*D10
 70
    1
 10
0
 20
0
  3
*D10
  1

  0
LINE
  5
150
100
AcDbEntity
  8
dimension
  6
ByBlock
 62
    0
370
   -2
100
AcDbLine
 10
277.2044398749223
 20
-0.625000000000028
 11
277.2044398749223
 21
-21.3999443553869
  0
LINE
  5
151
100
AcDbEntity
  8
dimension
  6
ByBlock
 62
    0
370
   -2
100
AcDbLine
 10
330.0052855653836
 20
-0.6250000000000262
 11
330.0052855653836
 21
-21.3999443553869
  0
LINE
  5
152
100
AcDbEntity
  8
dimension
  6
ByBlock
 62
    0
370
   -2
100
AcDbLine
 10
277.2044398749223
 20
-20.1499443553869
 11
330.0052855653836
 21
-20.1499443553869
  0
SOLID
  5
153
100
AcDbEntity
  8
dimension
  6
ByBlock
 62
    0
370
   -2
100
AcDbTrace
 10
277.2044398749223
 20
-20.1499443553869
 30
0
 11
282.2044398749223
 21
-19.31737503984122
 31
0
 12
282.2044398749223
 22
-20.98251367093259
 32
0
 13
282.2044398749223
 23
-20.98251367093259
 33
0
  0
SOLID
  5
154
100
AcDbEntity
  8
dimension
  6
ByBlock
 62
    0
370
   -2
100
AcDbTrace
 10
330.0052855653836
 20
-20.1499443553869
 30
0
 11
325.0052855653836
 21
-20.98251367093258
 31
0
 12
325.0052855653836
 22
-19.31737503984122
 32
0
 13
325.0052855653836
 23
-19.31737503984122
 33
0
  0
MTEXT
  5
155
100
AcDbEntity
  8
dimension
  6
CONTINUOUS
 62
    0
370
   -2
100
AcDbMText
 10
303.6048627201529
 20
-17.0249443553869
 30
0
 40
5
 41
11.66666666666698
 71
    5
 72
    1
  1
52.8
  7
standard
210
0
220
0
230
1
 50
0
 73
    2
 44
1
  0
ENDBLK
  5
95
330
93
100
AcDbEntity
  8
0
100
AcDbBlockEnd
  0
BLOCK
  5
97
330
96
100
AcDbEntity
  8
0
100
AcDbBlockBegin
  2
*D9
 70
    1
 10
0
 20
0
  3
*D9
  1

  0
LINE
  5
156
100
AcDbEntity
  8
dimension
  6
ByBlock
 62
    0
370
   -2
100
AcDbLine
 10
0.726873045387371
 20
-2.096045254722288
 11
0.3952469950650796
 21
-25.97312087792476
  0
LINE
  5
157
100
AcDbEntity
  8
dimension
  6
ByBlock
 62
    0
370
   -2
100
AcDbLine
 10
53.68667204036224
 20
-2.831598018541402
 11
53.35504599003994
 21
-26.70867364174388
  0
LINE
  5
158
100
AcDbEntity
  8
dimension
  6
ByBlock
 62
    0
370
   -2
100
AcDbLine
 10
0.4126064319285286
 20
-24.72324142375657
 11
53.37240542690339
 21
-25.45879418757568
  0
SOLID
  5
159
100
AcDbEntity
  8
dimension
  6
ByBlock
 62
    0
370
   -2
100
AcDbTrace
 10
0.4126064319285286
 20
-24.72324142375657
 30
0
 11
5.423686596175434
 21
-23.96019014587322
 31
0
 12
5.40056190102718
 22
-25.6251681965475
 32
0
 13
5.40056190102718
 23
-25.6251681965475
 33
0
  0
SOLID
  5
15A
100
AcDbEntity
  8
dimension
  6
ByBlock
 62
    0
370
   -2
100
AcDbTrace
 10
53.37240542690339
 20
-25.45879418757568
 30
0
 11
48.36132526265649
 21
-26.22184546545903
 31
0
 12
48.38444995780474
 22
-24.55686741478475
 32
0
 13
48.38444995780474
 23
-24.55686741478475
 33
0
  0
MTEXT
  5
15B
100
AcDbEntity
  8
dimension
  6
CONTINUOUS
 62
    0
370
   -2
100
AcDbMText
 10
26.93590452157458
 20
-21.96631917024564
 30
0
 40
5
 41
11.66666666666729
 71
    5
 72
    1
  1
53.0
  7
standard
210
0
220
0
230
1
 50
359.2042764472607
 73
    2
 44
1
  0
ENDBLK
  5
98
330
96
100
AcDbEntity
  8
0
100
AcDbBlockEnd
  0
BLOCK
  5
9A
330
99
100
AcDbEntity
  8
0
100
AcDbBlockBegin
  2
*D17
 70
    1
 10
0
 20
0
  3
*D17
  1

  0
LINE
  5
15C
100
AcDbEntity
  8
dimension
  6
ByBlock
 62
    0
370
   -2
100
AcDbLine
 10
-90.81913806855763
 20
244.5053952973994
 11
-90.81913806855763
 21
47.50539529739939
  0
SOLID
  5
15D
100
AcDbEntity
  8
dimension
  6
ByBlock
 62
    0
370
   -2
100
AcDbTrace
 10
-90.81913806855763
 20
244.5053952973994
 30
0
 11
-89.98656875301195
 21
239.5053952973994
 31
0
 12
-91.65170738410332
 22
239.5053952973994
 32
0
 13
-91.65170738410332
 23
239.5053952973994
 33
0
  0
SOLID
  5
15E
100
AcDbEntity
  8
dimension
  6
ByBlock
 62
    0
370
   -2
100
AcDbTrace
 10
-90.81913806855763
 20
47.50539529739939
 30
0
 11
-91.65170738410332
 21
52.50539529739939
 31
0
 12
-89.98656875301195
 22
52.50539529739939
 32
0
 13
-89.98656875301195
 23
52.50539529739939
 33
0
  0
MTEXT
  5
15F
100
AcDbEntity
  8
dimension
  6
CONTINUOUS
 62
    0
370
   -2
100
AcDbMText
 10
-93.94413806855763
 20
146.0053952973994
 30
0
 40
5
 41
14.44444444444444
 71
    5
 72
    1
  1
197.0
  7
standard
210
0
220
0
230
1
 50
90
 73
    2
 44
1
  0
LINE
  5
160
100
AcDbEntity
  8
dimension
  6
ByBlock
 62
    0
370
   -2
100
AcDbLine
 10
-108.3579656822691
 20
244.5053952973994
 11
-89.56913806855763
 21
244.5053952973994
  0
LINE
  5
161
100
AcDbEntity
  8
dimension
  6
ByBlock
 62
    0
370
   -2
100
AcDbLine
 10
-108.3579656822691
 20
47.50539529739939
 11
-89.56913806855763
 21
47.50539529739939
  0
ENDBLK
  5
9B
330
99
100
AcDbEntity
  8
0
100
AcDbBlockEnd
  0
BLOCK
  5
9D
330
9C
100
AcDbEntity
  8
0
100
AcDbBlockBegin
  2
*D3
 70
    1
 10
0
 20
0
  3
*D3
  1

  0
LINE
  5
162
100
AcDbEntity
  8
dimension
  6
ByBlock
 62
    0
370
   -2
100
AcDbLine
 10
-0.625
 20
477.3126544268766
 11
-18.09211318172911
 21
477.3126544268766
  0
LINE
  5
163
100
AcDbEntity
  8
dimension
  6
ByBlock
 62
    0
370
   -2
100
AcDbLine
 10
-0.6250000000000209
 20
390.9520315163081
 11
-18.09211318172913
 21
390.9520315163081
  0
LINE
  5
164
100
AcDbEntity
  8
dimension
  6
ByBlock
 62
    0
370
   -2
100
AcDbLine
 10
-16.84211318172911
 20
477.3126544268766
 11
-16.84211318172913
 21
390.9520315163081
  0
SOLID
  5
165
100
AcDbEntity
  8
dimension
  6
ByBlock
 62
    0
370
   -2
100
AcDbTrace
 10
-16.84211318172911
 20
477.3126544268766
 30
0
 11
-16.00954386618343
 21
472.3126544268766
 31
0
 12
-17.67468249727479
 22
472.3126544268766
 32
0
 13
-17.67468249727479
 23
472.3126544268766
 33
0
  0
SOLID
  5
166
100
AcDbEntity
  8
dimension
  6
ByBlock
 62
    0
370
   -2
100
AcDbTrace
 10
-16.84211318172913
 20
390.9520315163081
 30
0
 11
-17.67468249727481
 21
395.9520315163081
 31
0
 12
-16.00954386618345
 22
395.9520315163081
 32
0
 13
-16.00954386618345
 23
395.9520315163081
 33
0
  0
MTEXT
  5
167
100
AcDbEntity
  8
dimension
  6
CONTINUOUS
 62
    0
370
   -2
100
AcDbMText
 10
-19.96711318172912
 20
434.1323429715924
 30
0
 40
5
 41
12.22222222222253
 71
    5
 72
    1
  1
86.4
  7
standard
210
0
220
0
230
1
 50
90
 73
    2
 44
1
  0
ENDBLK
  5
9E
330
9C
100
AcDbEntity
  8
0
100
AcDbBlockEnd
  0
BLOCK
  5
A0
330
9F
100
AcDbEntity
  8
0
100
AcDbBlockBegin
  2
*D31
 70
    1
 10
0
 20
0
  3
*D31
  1

  0
LINE
  5
168
100
AcDbEntity
  8
dimension
  6
ByBlock
 62
    0
370
   -2
100
AcDbLine
 10
-352.7959345507165
 20
961.3
 11
-352.7959345507165
 21
621
  0
SOLID
  5
169
100
AcDbEntity
  8
dimension
  6
ByBlock
 62
    0
370
   -2
100
AcDbTrace
 10
-352.7959345507165
 20
961.3
 30
0
 11
-351.9633652351708
 21
956.3
 31
0
 12
-353.6285038662622
 22
956.3
 32
0
 13
-353.6285038662622
 23
956.3
 33
0
  0
SOLID
  5
16A
100
AcDbEntity
  8
dimension
  6
ByBlock
 62
    0
370
   -2
100
AcDbTrace
 10
-352.7959345507165
 20
621
 30
0
 11
-353.6285038662622
 21
626
 31
0
 12
-351.9633652351708
 22
626
 32
0
 13
-351.9633652351708
 23
626
 33
0
  0
MTEXT
  5
16B
100
AcDbEntity
  8
dimension
  6
CONTINUOUS
 62
    0
370
   -2
100
AcDbMText
 10
-355.9209345507165
 20
791.15
 30
0
 40
5
 41
16.11111111111173
 71
    5
 72
    1
  1
340.3
  7
standard
210
0
220
0
230
1
 50
90
 73
    2
 44
1
  0
LINE
  5
16C
100
AcDbEntity
  8
dimension
  6
ByBlock
 62
    0
370
   -2
100
AcDbLine
 10
-365.075
 20
961.3
 11
-351.5459345507165
 21
961.3
  0
LINE
  5
16D
100
AcDbEntity
  8
dimension
  6
ByBlock
 62
    0
370
   -2
100
AcDbLine
 10
-365.075
 20
621
 11
-351.5459345507165
 21
621
  0
ENDBLK
  5
A1
330
9F
100
AcDbEntity
  8
0
100
AcDbBlockEnd
  0
BLOCK
  5
A3
330
A2
100
AcDbEntity
  8
0
100
AcDbBlockBegin
  2
*D2
 70
    1
 10
0
 20
0
  3
*D2
  1

  0
LINE
  5
16E
100
AcDbEntity
  8
dimension
  6
ByBlock
 62
    0
370
   -2
100
AcDbLine
 10
-0.625
 20
137.31227292562
 11
-17.10592066115705
 21
137.31227292562
  0
LINE
  5
16F
100
AcDbEntity
  8
dimension
  6
ByBlock
 62
    0
370
   -2
100
AcDbLine
 10
-0.625
 20
3.540961811029987e-16
 11
-17.10592066115705
 21
9.69142588858655e-15
  0
LINE
  5
170
100
AcDbEntity
  8
dimension
  6
ByBlock
 62
    0
370
   -2
100
AcDbLine
 10
-15.85592066115705
 20
137.31227292562
 11
-15.85592066115705
 21
8.983233526380553e-15
  0
SOLID
  5
171
100
AcDbEntity
  8
dimension
  6
ByBlock
 62
    0
370
   -2
100
AcDbTrace
 10
-15.85592066115705
 20
137.31227292562
 30
0
 11
-15.02335134561137
 21
132.31227292562
 31
0
 12
-16.68848997670273
 22
132.31227292562
 32
0
 13
-16.68848997670273
 23
132.31227292562
 33
0
  0
SOLID
  5
172
100
AcDbEntity
  8
dimension
  6
ByBlock
 62
    0
370
   -2
100
AcDbTrace
 10
-15.85592066115705
 20
8.983233526380553e-15
 30
0
 11
-16.68848997670273
 21
5.000000000000009
 31
0
 12
-15.02335134561137
 22
5.000000000000009
 32
0
 13
-15.02335134561137
 23
5.000000000000009
 33
0
  0
MTEXT
  5
173
100
AcDbEntity
  8
dimension
  6
CONTINUOUS
 62
    0
370
   -2
100
AcDbMText
 10
-18.98092066115705
 20
68.65613646281
 30
0
 40
5
 41
14.44444444444506
 71
    5
 72
    1
  1
137.3
  7
standard
210
0
220
0
230
1
 50
90
 73
    2
 44
1
  0
ENDBLK
  5
A4
330
A2
100
AcDbEntity
  8
0
100
AcDbBlockEnd
  0
BLOCK
  5
A6
330
A5
100
AcDbEntity
  8
0
100
AcDbBlockBegin
  2
*D30
 70
    1
 10
0
 20
0
  3
*D30
  1

  0
LINE
  5
174
100
AcDbEntity
  8
dimension
  6
ByBlock
 62
    0
370
   -2
100
AcDbLine
 10
-288.0831233927689
 20
622.4539328012524
 11
-288.0831233927689
 21
509.4539328012524
  0
SOLID
  5
175
100
AcDbEntity
  8
dimension
  6
ByBlock
 62
    0
370
   -2
100
AcDbTrace
 10
-288.0831233927689
 20
622.4539328012524
 30
0
 11
-287.2505540772232
 21
617.4539328012524
 31
0
 12
-288.9156927083146
 22
617.4539328012524
 32
0
 13
-288.9156927083146
 23
617.4539328012524
 33
0
  0
SOLID
  5
176
100
AcDbEntity
  8
dimension
  6
ByBlock
 62
    0
370
   -2
100
AcDbTrace
 10
-288.0831233927689
 20
509.4539328012524
 30
0
 11
-288.9156927083146
 21
514.4539328012524
 31
0
 12
-287.2505540772232
 22
514.4539328012524
 32
0
 13
-287.2505540772232
 23
514.4539328012524
 33
0
  0
MTEXT
  5
177
100
AcDbEntity
  8
dimension
  6
CONTINUOUS
 62
    0
370
   -2
100
AcDbMText
 10
-291.2081233927689
 20
565.9539328012524
 30
0
 40
5
 41
13.33333333333365
 71
    5
 72
    1
  1
113.0
  7
standard
210
0
220
0
230
1
 50
90
 73
    2
 44
1
  0
LINE
  5
178
100
AcDbEntity
  8
dimension
  6
ByBlock
 62
    0
370
   -2
100
AcDbLine
 10
-288.7081233927689
 20
622.4539328012524
 11
-289.3331233927689
 21
622.4539328012524
  0
LINE
  5
179
100
AcDbEntity
  8
dimension
  6
ByBlock
 62
    0
370
   -2
100
AcDbLine
 10
-288.7081233927689
 20
509.4539328012524
 11
-289.3331233927689
 21
509.4539328012524
  0
ENDBLK
  5
A7
330
A5
100
AcDbEntity
  8
0
100
AcDbBlockEnd
  0
BLOCK
  5
A9
330
A8
100
AcDbEntity
  8
0
100
AcDbBlockBegin
  2
*D23
 70
    1
 10
0
 20
0
  3
*D23
  1

  0
LINE
  5
17A
100
AcDbEntity
  8
dimension
  6
ByBlock
 62
    0
370
   -2
100
AcDbLine
 10
-641.6731136613972
 20
961.3
 11
-641.6731136613972
 21
581.3
  0
SOLID
  5
17B
100
AcDbEntity
  8
dimension
  6
ByBlock
 62
    0
370
   -2
100
AcDbTrace
 10
-641.6731136613972
 20
961.3
 30
0
 11
-640.8405443458515
 21
956.3
 31
0
 12
-642.5056829769429
 22
956.3
 32
0
 13
-642.5056829769429
 23
956.3
 33
0
  0
SOLID
  5
17C
100
AcDbEntity
  8
dimension
  6
ByBlock
 62
    0
370
   -2
100
AcDbTrace
 10
-641.6731136613972
 20
581.3
 30
0
 11
-642.5056829769429
 21
586.3
 31
0
 12
-640.8405443458515
 22
586.3
 32
0
 13
-640.8405443458515
 23
586.3
 33
0
  0
MTEXT
  5
17D
100
AcDbEntity
  8
dimension
  6
CONTINUOUS
 62
    0
370
   -2
100
AcDbMText
 10
-644.7981136613972
 20
771.3
 30
0
 40
5
 41
15.55555555555587
 71
    5
 72
    1
  1
380.0
  7
standard
210
0
220
0
230
1
 50
90
 73
    2
 44
1
  0
LINE
  5
17E
100
AcDbEntity
  8
dimension
  6
ByBlock
 62
    0
370
   -2
100
AcDbLine
 10
-626.8030198673897
 20
961.3
 11
-642.9231136613972
 21
961.3
  0
LINE
  5
17F
100
AcDbEntity
  8
dimension
  6
ByBlock
 62
    0
370
   -2
100
AcDbLine
 10
-626.8030198673897
 20
581.3
 11
-642.9231136613972
 21
581.3
  0
ENDBLK
  5
AA
330
A8
100
AcDbEntity
  8
0
100
AcDbBlockEnd
  0
BLOCK
  5
AC
330
AB
100
AcDbEntity
  8
0
100
AcDbBlockBegin
  2
*D26
 70
    1
 10
0
 20
0
  3
*D26
  1

  0
LINE
  5
180
100
AcDbEntity
  8
dimension
  6
ByBlock
 62
    0
370
   -2
100
AcDbLine
 10
-756.9780198673897
 20
589.0306985755806
 11
-626.1780198673897
 21
589.0306985755806
  0
SOLID
  5
181
100
AcDbEntity
  8
dimension
  6
ByBlock
 62
    0
370
   -2
100
AcDbTrace
 10
-756.9780198673897
 20
589.0306985755806
 30
0
 11
-751.9780198673897
 21
589.8632678911263
 31
0
 12
-751.9780198673897
 22
588.1981292600349
 32
0
 13
-751.9780198673897
 23
588.1981292600349
 33
0
  0
SOLID
  5
182
100
AcDbEntity
  8
dimension
  6
ByBlock
 62
    0
370
   -2
100
AcDbTrace
 10
-626.1780198673897
 20
589.0306985755806
 30
0
 11
-631.1780198673897
 21
588.1981292600349
 31
0
 12
-631.1780198673897
 22
589.8632678911263
 32
0
 13
-631.1780198673897
 23
589.8632678911263
 33
0
  0
MTEXT
  5
183
100
AcDbEntity
  8
dimension
  6
CONTINUOUS
 62
    0
370
   -2
100
AcDbMText
 10
-691.5780198673897
 20
592.1556985755806
 30
0
 40
5
 41
14.44444444444476
 71
    5
 72
    1
  1
130.8
  7
standard
210
0
220
0
230
1
 50
0
 73
    2
 44
1
  0
LINE
  5
184
100
AcDbEntity
  8
dimension
  6
ByBlock
 62
    0
370
   -2
100
AcDbLine
 10
-756.9780198673897
 20
581.925
 11
-756.9780198673897
 21
590.2806985755806
  0
LINE
  5
185
100
AcDbEntity
  8
dimension
  6
ByBlock
 62
    0
370
   -2
100
AcDbLine
 10
-626.1780198673897
 20
581.925
 11
-626.1780198673897
 21
590.2806985755806
  0
ENDBLK
  5
AD
330
AB
100
AcDbEntity
  8
0
100
AcDbBlockEnd
  0
BLOCK
  5
AF
330
AE
100
AcDbEntity
  8
0
100
AcDbBlockBegin
  2
*D14
 70
    1
 10
0
 20
0
  3
*D14
  1

  0
LINE
  5
186
100
AcDbEntity
  8
dimension
  6
ByBlock
 62
    0
370
   -2
100
AcDbLine
 10
399.9066069657537
 20
649.8115622482466
 11
399.9066069657537
 21
451.0115622482465
  0
SOLID
  5
187
100
AcDbEntity
  8
dimension
  6
ByBlock
 62
    0
370
   -2
100
AcDbTrace
 10
399.9066069657537
 20
649.8115622482466
 30
0
 11
400.7391762812994
 21
644.8115622482466
 31
0
 12
399.074037650208
 22
644.8115622482466
 32
0
 13
399.074037650208
 23
644.8115622482466
 33
0
  0
SOLID
  5
188
100
AcDbEntity
  8
dimension
  6
ByBlock
 62
    0
370
   -2
100
AcDbTrace
 10
399.9066069657537
 20
451.0115622482465
 30
0
 11
399.074037650208
 21
456.0115622482465
 31
0
 12
400.7391762812994
 22
456.0115622482465
 32
0
 13
400.7391762812994
 23
456.0115622482465
 33
0
  0
MTEXT
  5
189
100
AcDbEntity
  8
dimension
  6
CONTINUOUS
 62
    0
370
   -2
100
AcDbMText
 10
396.7816069657537
 20
550.4115622482466
 30
0
 40
5
 41
14.44444444444444
 71
    5
 72
    1
  1
198.8
  7
standard
210
0
220
0
230
1
 50
90
 73
    2
 44
1
  0
LINE
  5
18A
100
AcDbEntity
  8
dimension
  6
ByBlock
 62
    0
370
   -2
100
AcDbLine
 10
328.9963793006613
 20
649.8115622482466
 11
401.1566069657537
 21
649.8115622482466
  0
LINE
  5
18B
100
AcDbEntity
  8
dimension
  6
ByBlock
 62
    0
370
   -2
100
AcDbLine
 10
328.9963793006613
 20
451.0115622482465
 11
401.1566069657537
 21
451.0115622482465
  0
ENDBLK
  5
B0
330
AE
100
AcDbEntity
  8
0
100
AcDbBlockEnd
  0
BLOCK
  5
B2
330
B1
100
AcDbEntity
  8
0
100
AcDbBlockBegin
  2
*D19
 70
    1
 10
0
 20
0
  3
*D19
  1

  0
LINE
  5
18C
100
AcDbEntity
  8
dimension
  6
ByBlock
 62
    0
370
   -2
100
AcDbLine
 10
33.62914029239552
 20
1061.500564554027
 11
33.6291402923955
 21
784.2795932476523
  0
SOLID
  5
18D
100
AcDbEntity
  8
dimension
  6
ByBlock
 62
    0
370
   -2
100
AcDbTrace
 10
33.62914029239552
 20
1061.500564554027
 30
0
 11
34.4617096079412
 21
1056.500564554027
 31
0
 12
32.79657097684984
 22
1056.500564554027
 32
0
 13
32.79657097684984
 23
1056.500564554027
 33
0
  0
SOLID
  5
18E
100
AcDbEntity
  8
dimension
  6
ByBlock
 62
    0
370
   -2
100
AcDbTrace
 10
33.6291402923955
 20
784.2795932476523
 30
0
 11
32.79657097684981
 21
789.2795932476523
 31
0
 12
34.46170960794118
 22
789.2795932476523
 32
0
 13
34.46170960794118
 23
789.2795932476523
 33
0
  0
MTEXT
  5
18F
100
AcDbEntity
  8
dimension
  6
CONTINUOUS
 62
    0
370
   -2
100
AcDbMText
 10
30.50414029239552
 20
922.8900789008399
 30
0
 40
5
 41
15.55555555555556
 71
    5
 72
    1
  1
277.2
  7
standard
210
0
220
0
230
1
 50
90
 73
    2
 44
1
  0
LINE
  5
190
100
AcDbEntity
  8
dimension
  6
ByBlock
 62
    0
370
   -2
100
AcDbLine
 10
55.43314652136357
 20
1061.500564554027
 11
32.37914029239552
 21
1061.500564554027
  0
LINE
  5
191
100
AcDbEntity
  8
dimension
  6
ByBlock
 62
    0
370
   -2
100
AcDbLine
 10
55.82391406223531
 20
784.2795932476523
 11
32.3791402923955
 21
784.2795932476523
  0
ENDBLK
  5
B3
330
B1
100
AcDbEntity
  8
0
100
AcDbBlockEnd
  0
BLOCK
  5
B5
330
B4
100
AcDbEntity
  8
0
100
AcDbBlockBegin
  2
*D24
 70
    1
 10
0
 20
0
  3
*D24
  1

  0
LINE
  5
192
100
AcDbEntity
  8
dimension
  6
ByBlock
 62
    0
370
   -2
100
AcDbLine
 10
-756.9780198673895
 20
-24.59374303231836
 11
-365.6780198673897
 21
-24.59374303231836
  0
SOLID
  5
193
100
AcDbEntity
  8
dimension
  6
ByBlock
 62
    0
370
   -2
100
AcDbTrace
 10
-756.9780198673895
 20
-24.59374303231836
 30
0
 11
-751.9780198673895
 21
-23.76117371677268
 31
0
 12
-751.9780198673895
 22
-25.42631234786404
 32
0
 13
-751.9780198673895
 23
-25.42631234786404
 33
0
  0
SOLID
  5
194
100
AcDbEntity
  8
dimension
  6
ByBlock
 62
    0
370
   -2
100
AcDbTrace
 10
-365.6780198673897
 20
-24.59374303231836
 30
0
 11
-370.6780198673897
 21
-25.42631234786404
 31
0
 12
-370.6780198673897
 22
-23.76117371677268
 32
0
 13
-370.6780198673897
 23
-23.76117371677268
 33
0
  0
MTEXT
  5
195
100
AcDbEntity
  8
dimension
  6
CONTINUOUS
 62
    0
370
   -2
100
AcDbMText
 10
-561.3280198673897
 20
-21.46874303231836
 30
0
 40
5
 41
14.44444444444506
 71
    5
 72
    1
  1
391.3
  7
standard
210
0
220
0
230
1
 50
0
 73
    2
 44
1
  0
LINE
  5
196
100
AcDbEntity
  8
dimension
  6
ByBlock
 62
    0
370
   -2
100
AcDbLine
 10
-756.9780198673897
 20
-0.625
 11
-756.9780198673895
 21
-25.84374303231836
  0
LINE
  5
197
100
AcDbEntity
  8
dimension
  6
ByBlock
 62
    0
370
   -2
100
AcDbLine
 10
-365.6780198673897
 20
-0.625
 11
-365.6780198673897
 21
-25.84374303231836
  0
ENDBLK
  5
B6
330
B4
100
AcDbEntity
  8
0
100
AcDbBlockEnd
  0
BLOCK
  5
B8
330
B7
100
AcDbEntity
  8
0
100
AcDbBlockBegin
  2
*D5
 70
    1
 10
0
 20
0
  3
*D5
  1

  0
LINE
  5
198
100
AcDbEntity
  8
dimension
  6
ByBlock
 62
    0
370
   -2
100
AcDbLine
 10
329.0228279810952
 20
247.8059904810563
 11
370.5697475465631
 21
247.8861968894839
  0
LINE
  5
199
100
AcDbEntity
  8
dimension
  6
ByBlock
 62
    0
370
   -2
100
AcDbLine
 10
329.3994309961707
 20
52.72562867201105
 11
370.9463505616386
 21
52.80583508043862
  0
LINE
  5
19A
100
AcDbEntity
  8
dimension
  6
ByBlock
 62
    0
370
   -2
100
AcDbLine
 10
369.3197498758301
 20
247.8837837665674
 11
369.6963528909056
 21
52.80342195752215
  0
SOLID
  5
19B
100
AcDbEntity
  8
dimension
  6
ByBlock
 62
    0
370
   -2
100
AcDbTrace
 10
369.3197498758301
 20
247.8837837665674
 30
0
 11
370.1619701316206
 21
242.8854003573116
 31
0
 12
368.4968346033713
 22
242.8821858099597
 32
0
 13
368.4968346033713
 23
242.8821858099597
 33
0
  0
SOLID
  5
19C
100
AcDbEntity
  8
dimension
  6
ByBlock
 62
    0
370
   -2
100
AcDbTrace
 10
369.6963528909056
 20
52.80342195752215
 30
0
 11
368.854132635115
 21
57.80180536677801
 31
0
 12
370.5192681633644
 22
57.80501991412984
 32
0
 13
370.5192681633644
 23
57.80501991412984
 33
0
  0
MTEXT
  5
19D
100
AcDbEntity
  8
dimension
  6
CONTINUOUS
 62
    0
370
   -2
100
AcDbMText
 10
372.6330455602002
 20
150.349635669336
 30
0
 40
5
 41
13.33333333333364
 71
    5
 72
    1
  1
195.1
  7
standard
210
0
220
0
230
1
 50
270.1106094755519
 73
    2
 44
1
  0
ENDBLK
  5
B9
330
B7
100
AcDbEntity
  8
0
100
AcDbBlockEnd
  0
BLOCK
  5
BB
330
BA
100
AcDbEntity
  8
0
100
AcDbBlockBegin
  2
*D22
 70
    1
 10
0
 20
0
  3
*D22
  1

  0
LINE
  5
19E
100
AcDbEntity
  8
dimension
  6
ByBlock
 62
    0
370
   -2
100
AcDbLine
 10
-780.292392570828
 20
581.3
 11
-780.292392570828
 21
0
  0
SOLID
  5
19F
100
AcDbEntity
  8
dimension
  6
ByBlock
 62
    0
370
   -2
100
AcDbTrace
 10
-780.292392570828
 20
581.3
 30
0
 11
-779.4598232552823
 21
576.3
 31
0
 12
-781.1249618863737
 22
576.3
 32
0
 13
-781.1249618863737
 23
576.3
 33
0
  0
SOLID
  5
1A0
100
AcDbEntity
  8
dimension
  6
ByBlock
 62
    0
370
   -2
100
AcDbTrace
 10
-780.292392570828
 20
0
 30
0
 11
-781.1249618863737
 21
5
 31
0
 12
-779.4598232552823
 22
5
 32
0
 13
-779.4598232552823
 23
5
 33
0
  0
MTEXT
  5
1A1
100
AcDbEntity
  8
dimension
  6
CONTINUOUS
 62
    0
370
   -2
100
AcDbMText
 10
-783.417392570828
 20
290.65
 30
0
 40
5
 41
14.44444444444506
 71
    5
 72
    1
  1
581.3
  7
standard
210
0
220
0
230
1
 50
90
 73
    2
 44
1
  0
LINE
  5
1A2
100
AcDbEntity
  8
dimension
  6
ByBlock
 62
    0
370
   -2
100
AcDbLine
 10
-757.6030198673897
 20
581.3
 11
-781.542392570828
 21
581.3
  0
LINE
  5
1A3
100
AcDbEntity
  8
dimension
  6
ByBlock
 62
    0
370
   -2
100
AcDbLine
 10
-757.6030198673897
 20
7.654042494670958e-17
 11
-781.542392570828
 21
1.530808498934192e-16
  0
ENDBLK
  5
BC
330
BA
100
AcDbEntity
  8
0
100
AcDbBlockEnd
  0
BLOCK
  5
BE
330
BD
100
AcDbEntity
  8
0
100
AcDbBlockBegin
  2
*D6
 70
    1
 10
0
 20
0
  3
*D6
  1

  0
LINE
  5
1A4
100
AcDbEntity
  8
dimension
  6
ByBlock
 62
    0
370
   -2
100
AcDbLine
 10
329.3994309903356
 20
295.6345764144418
 11
370.1406328820921
 21
295.7134241685319
  0
LINE
  5
1A5
100
AcDbEntity
  8
dimension
  6
ByBlock
 62
    0
370
   -2
100
AcDbLine
 10
329.4923552082262
 20
247.6199643889901
 11
370.2335570999827
 21
247.6988121430802
  0
LINE
  5
1A6
100
AcDbEntity
  8
dimension
  6
ByBlock
 62
    0
370
   -2
100
AcDbLine
 10
368.8906352230294
 20
295.7110050079903
 11
368.98355944092
 21
247.6963929825386
  0
SOLID
  5
1A7
100
AcDbEntity
  8
dimension
  6
ByBlock
 62
    0
370
   -2
100
AcDbTrace
 10
368.8906352230294
 20
295.7110050079903
 30
0
 11
369.7328796215475
 21
290.7126256668084
 31
0
 12
368.0677441088442
 22
290.7094030766703
 32
0
 13
368.0677441088442
 23
290.7094030766703
 33
0
  0
SOLID
  5
1A8
100
AcDbEntity
  8
dimension
  6
ByBlock
 62
    0
370
   -2
100
AcDbTrace
 10
368.98355944092
 20
247.6963929825386
 30
0
 11
368.1413150424019
 21
252.6947723237204
 31
0
 12
369.8064505551051
 22
252.6979949138585
 32
0
 13
369.8064505551051
 23
252.6979949138585
 33
0
  0
MTEXT
  5
1A9
100
AcDbEntity
  8
dimension
  6
CONTINUOUS
 62
    0
370
   -2
100
AcDbMText
 10
372.0620914796315
 20
271.7097468966185
 30
0
 40
5
 41
12.22222222222222
 71
    5
 72
    1
  1
48.0
  7
standard
210
0
220
0
230
1
 50
270.1108862204205
 73
    2
 44
1
  0
ENDBLK
  5
BF
330
BD
100
AcDbEntity
  8
0
100
AcDbBlockEnd
  0
BLOCK
  5
C1
330
C0
100
AcDbEntity
  8
0
100
AcDbBlockBegin
  2
wall
 70
    0
 10
0
 20
0
  3
wall
  1

  0
LINE
  5
1AA
100
AcDbEntity
  8
master
  6
ByLayer
 62
  256
370
   -1
100
AcDbLine
 10
-63.1404958677686
 20
-207.1797520661157
 11
266.2595041322314
 21
-207.1797520661157
  0
LINE
  5
1AB
100
AcDbEntity
  8
master
  6
ByLayer
 62
  256
370
   -1
100
AcDbLine
 10
-63.1404958677686
 20
-207.1797520661157
 11
-63.1404958677686
 21
270.3202479338843
  0
LINE
  5
1AC
100
AcDbEntity
  8
master
  6
ByLayer
 62
  256
370
   -1
100
AcDbLine
 10
266.2595041322314
 20
-207.1797520661157
 11
266.2595041322314
 21
234.3202479338843
  0
LINE
  5
1AD
100
AcDbEntity
  8
master
  6
ByLayer
 62
  256
370
   -1
100
AcDbLine
 10
266.2595041322314
 20
234.3202479338843
 11
44.8595041322314
 21
234.3202479338843
  0
LINE
  5
1AE
100
AcDbEntity
  8
master
  6
ByLayer
 62
  256
370
   -1
100
AcDbLine
 10
44.8595041322314
 20
234.3202479338843
 11
44.8595041322314
 21
270.3202479338843
  0
LINE
  5
1AF
100
AcDbEntity
  8
master
  6
ByLayer
 62
  256
370
   -1
100
AcDbLine
 10
44.8595041322314
 20
270.3202479338843
 11
-63.1404958677686
 21
270.3202479338843
  0
ENDBLK
  5
C2
330
C0
100
AcDbEntity
  8
0
100
AcDbBlockEnd
  0
BLOCK
  5
C4
330
C3
100
AcDbEntity
  8
0
100
AcDbBlockBegin
  2
d3
 70
    0
 10
0
 20
0
  3
d3
  1

  0
LINE
  5
1B0
100
AcDbEntity
  8
0
  6
CONTINUOUS
 62
    7
370
   70
100
AcDbLine
 10
5.15
 20
-61.5
 11
5.15
 21
-60.75
  0
LINE
  5
1B1
100
AcDbEntity
  8
0
  6
CONTINUOUS
 62
    7
370
   70
100
AcDbLine
 10
5.15
 20
-60.75
 11
5.600000000000001
 21
-60.75
  0
LINE
  5
1B2
100
AcDbEntity
  8
0
  6
CONTINUOUS
 62
    7
370
   70
100
AcDbLine
 10
5.600000000000001
 20
-60.75
 11
5.600000000000001
 21
-61.08000000000004
  0
LINE
  5
1B3
100
AcDbEntity
  8
0
  6
CONTINUOUS
 62
    7
370
   70
100
AcDbLine
 10
5.600000000000001
 20
-61.08000000000004
 11
5.48
 21
-61.08000000000004
  0
LINE
  5
1B4
100
AcDbEntity
  8
0
  6
CONTINUOUS
 62
    7
370
   70
100
AcDbLine
 10
5.48
 20
-61.08000000000004
 11
5.48
 21
-61.48000000000002
  0
LINE
  5
1B5
100
AcDbEntity
  8
0
  6
CONTINUOUS
 62
    7
370
   70
100
AcDbLine
 10
5.460000000000001
 20
-61.5
 11
5.15
 21
-61.5
  0
LINE
  5
1B6
100
AcDbEntity
  8
0
  6
CONTINUOUS
 62
    7
370
   70
100
AcDbLine
 10
11.85
 20
-61.5
 11
11.85
 21
-60.75
  0
LINE
  5
1B7
100
AcDbEntity
  8
0
  6
CONTINUOUS
 62
    7
370
   70
100
AcDbLine
 10
11.85
 20
-60.75
 11
11.4
 21
-60.75
  0
LINE
  5
1B8
100
AcDbEntity
  8
0
  6
CONTINUOUS
 62
    7
370
   70
100
AcDbLine
 10
11.4
 20
-60.75
 11
11.4
 21
-61.08000000000004
  0
LINE
  5
1B9
100
AcDbEntity
  8
0
  6
CONTINUOUS
 62
    7
370
   70
100
AcDbLine
 10
11.4
 20
-61.08000000000004
 11
11.52
 21
-61.08000000000004
  0
LINE
  5
1BA
100
AcDbEntity
  8
0
  6
CONTINUOUS
 62
    7
370
   70
100
AcDbLine
 10
11.52
 20
-61.08000000000004
 11
11.52
 21
-61.5
  0
LINE
  5
1BB
100
AcDbEntity
  8
0
  6
CONTINUOUS
 62
    7
370
   70
100
AcDbLine
 10
11.52
 20
-61.5
 11
11.85
 21
-61.5
  0
ARC
  5
1BC
100
AcDbEntity
  8
0
  6
CONTINUOUS
 62
    7
370
   70
100
AcDbCircle
 10
5.5
 20
-61.5
 40
6
100
AcDbArc
 50
270
 51
0
  0
LINE
  5
1BD
100
AcDbEntity
  8
0
  6
CONTINUOUS
 62
    7
370
   70
100
AcDbLine
 10
5.15
 20
-60.75
 11
4.95
 21
-60.75
  0
LINE
  5
1BE
100
AcDbEntity
  8
0
  6
CONTINUOUS
 62
    7
370
   70
100
AcDbLine
 10
4.95
 20
-60.75
 11
4.95
 21
-61.5
  0
LINE
  5
1BF
100
AcDbEntity
  8
0
  6
CONTINUOUS
 62
    7
370
   70
100
AcDbLine
 10
4.95
 20
-61.5
 11
5.15
 21
-61.5
  0
LINE
  5
1C0
100
AcDbEntity
  8
0
  6
CONTINUOUS
 62
    7
370
   70
100
AcDbLine
 10
5.15
 20
-61.5
 11
5.15
 21
-60.75
  0
LINE
  5
1C1
100
AcDbEntity
  8
0
  6
CONTINUOUS
 62
    7
370
   70
100
AcDbLine
 10
11.85
 20
-60.75
 11
12.05
 21
-60.75
  0
LINE
  5
1C2
100
AcDbEntity
  8
0
  6
CONTINUOUS
 62
    7
370
   70
100
AcDbLine
 10
12.05
 20
-60.75
 11
12.05
 21
-61.5
  0
LINE
  5
1C3
100
AcDbEntity
  8
0
  6
CONTINUOUS
 62
    7
370
   70
100
AcDbLine
 10
12.05
 20
-61.5
 11
11.85
 21
-61.5
  0
LINE
  5
1C4
100
AcDbEntity
  8
0
  6
CONTINUOUS
 62
    7
370
   70
100
AcDbLine
 10
11.85
 20
-61.5
 11
11.85
 21
-60.75
  0
LINE
  5
1C5
100
AcDbEntity
  8
0
  6
CONTINUOUS
 62
    7
370
   70
100
AcDbLine
 10
5.48
 20
-67.5
 11
5.48
 21
-61.51999999999998
  0
LINE
  5
1C6
100
AcDbEntity
  8
0
  6
CONTINUOUS
 62
    7
370
   70
100
AcDbLine
 10
5.48
 20
-61.51999999999998
 11
5.88
 21
-61.51999999999998
  0
LINE
  5
1C7
100
AcDbEntity
  8
0
  6
CONTINUOUS
 62
    7
370
   70
100
AcDbLine
 10
5.88
 20
-61.51999999999998
 11
5.88
 21
-67.5
  0
LINE
  5
1C8
100
AcDbEntity
  8
0
  6
CONTINUOUS
 62
    7
370
   70
100
AcDbLine
 10
5.88
 20
-67.5
 11
5.48
 21
-67.5
  0
ENDBLK
  5
C5
330
C3
100
AcDbEntity
  8
0
100
AcDbBlockEnd
  0
BLOCK
  5
C7
330
C6
100
AcDbEntity
  8
0
100
AcDbBlockBegin
  2
d3-0
 70
    0
 10
0
 20
0
  3
d3-0
  1

  0
LINE
  5
1C9
100
AcDbEntity
  8
0
  6
CONTINUOUS
 62
    7
370
   70
100
AcDbLine
 10
5.15
 20
-61.5
 11
5.15
 21
-60.75
  0
LINE
  5
1CA
100
AcDbEntity
  8
0
  6
CONTINUOUS
 62
    7
370
   70
100
AcDbLine
 10
5.15
 20
-60.75
 11
5.600000000000001
 21
-60.75
  0
LINE
  5
1CB
100
AcDbEntity
  8
0
  6
CONTINUOUS
 62
    7
370
   70
100
AcDbLine
 10
5.600000000000001
 20
-60.75
 11
5.600000000000001
 21
-61.07999999999998
  0
LINE
  5
1CC
100
AcDbEntity
  8
0
  6
CONTINUOUS
 62
    7
370
   70
100
AcDbLine
 10
5.600000000000001
 20
-61.07999999999998
 11
5.48
 21
-61.07999999999998
  0
LINE
  5
1CD
100
AcDbEntity
  8
0
  6
CONTINUOUS
 62
    7
370
   70
100
AcDbLine
 10
5.48
 20
-61.07999999999998
 11
5.48
 21
-61.48000000000002
  0
LINE
  5
1CE
100
AcDbEntity
  8
0
  6
CONTINUOUS
 62
    7
370
   70
100
AcDbLine
 10
5.460000000000001
 20
-61.5
 11
5.15
 21
-61.5
  0
LINE
  5
1CF
100
AcDbEntity
  8
0
  6
CONTINUOUS
 62
    7
370
   70
100
AcDbLine
 10
11.85
 20
-61.5
 11
11.85
 21
-60.75
  0
LINE
  5
1D0
100
AcDbEntity
  8
0
  6
CONTINUOUS
 62
    7
370
   70
100
AcDbLine
 10
11.85
 20
-60.75
 11
11.4
 21
-60.75
  0
LINE
  5
1D1
100
AcDbEntity
  8
0
  6
CONTINUOUS
 62
    7
370
   70
100
AcDbLine
 10
11.4
 20
-60.75
 11
11.4
 21
-61.07999999999998
  0
LINE
  5
1D2
100
AcDbEntity
  8
0
  6
CONTINUOUS
 62
    7
370
   70
100
AcDbLine
 10
11.4
 20
-61.07999999999998
 11
11.52
 21
-61.07999999999998
  0
LINE
  5
1D3
100
AcDbEntity
  8
0
  6
CONTINUOUS
 62
    7
370
   70
100
AcDbLine
 10
11.52
 20
-61.07999999999998
 11
11.52
 21
-61.5
  0
LINE
  5
1D4
100
AcDbEntity
  8
0
  6
CONTINUOUS
 62
    7
370
   70
100
AcDbLine
 10
11.52
 20
-61.5
 11
11.85
 21
-61.5
  0
ARC
  5
1D5
100
AcDbEntity
  8
0
  6
CONTINUOUS
 62
    7
370
   70
100
AcDbCircle
 10
5.5
 20
-61.5
 40
6
100
AcDbArc
 50
270
 51
0
  0
LINE
  5
1D6
100
AcDbEntity
  8
0
  6
CONTINUOUS
 62
    7
370
   70
100
AcDbLine
 10
5.15
 20
-60.75
 11
4.949999999999999
 21
-60.75
  0
LINE
  5
1D7
100
AcDbEntity
  8
0
  6
CONTINUOUS
 62
    7
370
   70
100
AcDbLine
 10
4.949999999999999
 20
-60.75
 11
4.949999999999999
 21
-61.5
  0
LINE
  5
1D8
100
AcDbEntity
  8
0
  6
CONTINUOUS
 62
    7
370
   70
100
AcDbLine
 10
4.949999999999999
 20
-61.5
 11
5.15
 21
-61.5
  0
LINE
  5
1D9
100
AcDbEntity
  8
0
  6
CONTINUOUS
 62
    7
370
   70
100
AcDbLine
 10
5.15
 20
-61.5
 11
5.15
 21
-60.75
  0
LINE
  5
1DA
100
AcDbEntity
  8
0
  6
CONTINUOUS
 62
    7
370
   70
100
AcDbLine
 10
11.85
 20
-60.75
 11
12.05
 21
-60.75
  0
LINE
  5
1DB
100
AcDbEntity
  8
0
  6
CONTINUOUS
 62
    7
370
   70
100
AcDbLine
 10
12.05
 20
-60.75
 11
12.05
 21
-61.5
  0
LINE
  5
1DC
100
AcDbEntity
  8
0
  6
CONTINUOUS
 62
    7
370
   70
100
AcDbLine
 10
12.05
 20
-61.5
 11
11.85
 21
-61.5
  0
LINE
  5
1DD
100
AcDbEntity
  8
0
  6
CONTINUOUS
 62
    7
370
   70
100
AcDbLine
 10
11.85
 20
-61.5
 11
11.85
 21
-60.75
  0
LINE
  5
1DE
100
AcDbEntity
  8
0
  6
CONTINUOUS
 62
    7
370
   70
100
AcDbLine
 10
5.48
 20
-67.5
 11
5.48
 21
-61.51999999999998
  0
LINE
  5
1DF
100
AcDbEntity
  8
0
  6
CONTINUOUS
 62
    7
370
   70
100
AcDbLine
 10
5.48
 20
-61.51999999999998
 11
5.879999999999999
 21
-61.51999999999998
  0
LINE
  5
1E0
100
AcDbEntity
  8
0
  6
CONTINUOUS
 62
    7
370
   70
100
AcDbLine
 10
5.879999999999999
 20
-61.51999999999998
 11
5.879999999999999
 21
-67.5
  0
LINE
  5
1E1
100
AcDbEntity
  8
0
  6
CONTINUOUS
 62
    7
370
   70
100
AcDbLine
 10
5.879999999999999
 20
-67.5
 11
5.48
 21
-67.5
  0
ENDBLK
  5
C8
330
C6
100
AcDbEntity
  8
0
100
AcDbBlockEnd
  0
BLOCK
  5
CA
330
C9
100
AcDbEntity
  8
0
100
AcDbBlockBegin
  2
d3-1
 70
    0
 10
0
 20
0
  3
d3-1
  1

  0
LINE
  5
1E2
100
AcDbEntity
  8
0
  6
CONTINUOUS
 62
    7
370
   70
100
AcDbLine
 10
5.150000000000006
 20
-61.5
 11
5.150000000000006
 21
-60.75
  0
LINE
  5
1E3
100
AcDbEntity
  8
0
  6
CONTINUOUS
 62
    7
370
   70
100
AcDbLine
 10
5.150000000000006
 20
-60.75
 11
5.599999999999994
 21
-60.75
  0
LINE
  5
1E4
100
AcDbEntity
  8
0
  6
CONTINUOUS
 62
    7
370
   70
100
AcDbLine
 10
5.599999999999994
 20
-60.75
 11
5.599999999999994
 21
-61.08000000000004
  0
LINE
  5
1E5
100
AcDbEntity
  8
0
  6
CONTINUOUS
 62
    7
370
   70
100
AcDbLine
 10
5.599999999999994
 20
-61.08000000000004
 11
5.480000000000004
 21
-61.08000000000004
  0
LINE
  5
1E6
100
AcDbEntity
  8
0
  6
CONTINUOUS
 62
    7
370
   70
100
AcDbLine
 10
5.480000000000004
 20
-61.08000000000004
 11
5.480000000000004
 21
-61.48000000000002
  0
LINE
  5
1E7
100
AcDbEntity
  8
0
  6
CONTINUOUS
 62
    7
370
   70
100
AcDbLine
 10
5.460000000000008
 20
-61.5
 11
5.150000000000006
 21
-61.5
  0
LINE
  5
1E8
100
AcDbEntity
  8
0
  6
CONTINUOUS
 62
    7
370
   70
100
AcDbLine
 10
11.84999999999999
 20
-61.5
 11
11.84999999999999
 21
-60.75
  0
LINE
  5
1E9
100
AcDbEntity
  8
0
  6
CONTINUOUS
 62
    7
370
   70
100
AcDbLine
 10
11.84999999999999
 20
-60.75
 11
11.40000000000001
 21
-60.75
  0
LINE
  5
1EA
100
AcDbEntity
  8
0
  6
CONTINUOUS
 62
    7
370
   70
100
AcDbLine
 10
11.40000000000001
 20
-60.75
 11
11.40000000000001
 21
-61.08000000000004
  0
LINE
  5
1EB
100
AcDbEntity
  8
0
  6
CONTINUOUS
 62
    7
370
   70
100
AcDbLine
 10
11.40000000000001
 20
-61.08000000000004
 11
11.52
 21
-61.08000000000004
  0
LINE
  5
1EC
100
AcDbEntity
  8
0
  6
CONTINUOUS
 62
    7
370
   70
100
AcDbLine
 10
11.52
 20
-61.08000000000004
 11
11.52
 21
-61.5
  0
LINE
  5
1ED
100
AcDbEntity
  8
0
  6
CONTINUOUS
 62
    7
370
   70
100
AcDbLine
 10
11.52
 20
-61.5
 11
11.84999999999999
 21
-61.5
  0
ARC
  5
1EE
100
AcDbEntity
  8
0
  6
CONTINUOUS
 62
    7
370
   70
100
AcDbCircle
 10
5.5
 20
-61.5
 40
6
100
AcDbArc
 50
270
 51
0
  0
LINE
  5
1EF
100
AcDbEntity
  8
0
  6
CONTINUOUS
 62
    7
370
   70
100
AcDbLine
 10
5.150000000000006
 20
-60.75
 11
4.950000000000003
 21
-60.75
  0
LINE
  5
1F0
100
AcDbEntity
  8
0
  6
CONTINUOUS
 62
    7
370
   70
100
AcDbLine
 10
4.950000000000003
 20
-60.75
 11
4.950000000000003
 21
-61.5
  0
LINE
  5
1F1
100
AcDbEntity
  8
0
  6
CONTINUOUS
 62
    7
370
   70
100
AcDbLine
 10
4.950000000000003
 20
-61.5
 11
5.150000000000006
 21
-61.5
  0
LINE
  5
1F2
100
AcDbEntity
  8
0
  6
CONTINUOUS
 62
    7
370
   70
100
AcDbLine
 10
5.150000000000006
 20
-61.5
 11
5.150000000000006
 21
-60.75
  0
LINE
  5
1F3
100
AcDbEntity
  8
0
  6
CONTINUOUS
 62
    7
370
   70
100
AcDbLine
 10
11.84999999999999
 20
-60.75
 11
12.05
 21
-60.75
  0
LINE
  5
1F4
100
AcDbEntity
  8
0
  6
CONTINUOUS
 62
    7
370
   70
100
AcDbLine
 10
12.05
 20
-60.75
 11
12.05
 21
-61.5
  0
LINE
  5
1F5
100
AcDbEntity
  8
0
  6
CONTINUOUS
 62
    7
370
   70
100
AcDbLine
 10
12.05
 20
-61.5
 11
11.84999999999999
 21
-61.5
  0
LINE
  5
1F6
100
AcDbEntity
  8
0
  6
CONTINUOUS
 62
    7
370
   70
100
AcDbLine
 10
11.84999999999999
 20
-61.5
 11
11.84999999999999
 21
-60.75
  0
LINE
  5
1F7
100
AcDbEntity
  8
0
  6
CONTINUOUS
 62
    7
370
   70
100
AcDbLine
 10
5.480000000000004
 20
-67.5
 11
5.480000000000004
 21
-61.51999999999998
  0
LINE
  5
1F8
100
AcDbEntity
  8
0
  6
CONTINUOUS
 62
    7
370
   70
100
AcDbLine
 10
5.480000000000004
 20
-61.51999999999998
 11
5.879999999999995
 21
-61.51999999999998
  0
LINE
  5
1F9
100
AcDbEntity
  8
0
  6
CONTINUOUS
 62
    7
370
   70
100
AcDbLine
 10
5.879999999999995
 20
-61.51999999999998
 11
5.879999999999995
 21
-67.5
  0
LINE
  5
1FA
100
AcDbEntity
  8
0
  6
CONTINUOUS
 62
    7
370
   70
100
AcDbLine
 10
5.879999999999995
 20
-67.5
 11
5.480000000000004
 21
-67.5
  0
ENDBLK
  5
CB
330
C9
100
AcDbEntity
  8
0
100
AcDbBlockEnd
  0
BLOCK
  5
CD
330
CC
100
AcDbEntity
  8
0
100
AcDbBlockBegin
  2
bed
 70
    0
 10
0
 20
0
  3
bed
  1

  0
LINE
  5
1FB
100
AcDbEntity
  8
bed
  6
ByLayer
 62
  256
370
   -1
100
AcDbLine
 10
-70.16322314049587
 20
-193.5537190082645
 11
138.8367768595041
 21
-193.5537190082645
  0
LINE
  5
1FC
100
AcDbEntity
  8
bed
  6
ByLayer
 62
  256
370
   -1
100
AcDbLine
 10
138.8367768595041
 20
-193.5537190082645
 11
138.8367768595041
 21
2.446280991735534
  0
LINE
  5
1FD
100
AcDbEntity
  8
bed
  6
ByLayer
 62
  256
370
   -1
100
AcDbLine
 10
138.8367768595041
 20
2.446280991735534
 11
-70.16322314049587
 21
2.446280991735534
  0
LINE
  5
1FE
100
AcDbEntity
  8
bed
  6
ByLayer
 62
  256
370
   -1
100
AcDbLine
 10
-70.16322314049587
 20
2.446280991735534
 11
-70.16322314049587
 21
-193.5537190082645
  0
ENDBLK
  5
CE
330
CC
100
AcDbEntity
  8
0
100
AcDbBlockEnd
  0
BLOCK
  5
D0
330
CF
100
AcDbEntity
  8
0
100
AcDbBlockBegin
  2
bathroom1
 70
    0
 10
0
 20
0
  3
bathroom1
  1

  0
LINE
  5
1FF
100
AcDbEntity
  8
0
  6
ByLayer
 62
  256
370
   -1
100
AcDbLine
 10
-142.4686028257457
 20
-200.3751962323391
 11
61.03139717425432
 21
-200.3751962323391
  0
LINE
  5
200
100
AcDbEntity
  8
0
  6
ByLayer
 62
  256
370
   -1
100
AcDbLine
 10
61.03139717425432
 20
-200.3751962323391
 11
61.03139717425432
 21
-1.575196232339067
  0
LINE
  5
201
100
AcDbEntity
  8
0
  6
ByLayer
 62
  256
370
   -1
100
AcDbLine
 10
61.03139717425432
 20
-1.575196232339067
 11
-142.4686028257457
 21
-1.575196232339067
  0
LINE
  5
202
100
AcDbEntity
  8
0
  6
ByLayer
 62
  256
370
   -1
100
AcDbLine
 10
-142.4686028257457
 20
-1.575196232339067
 11
-142.4686028257457
 21
-200.3751962323391
  0
ENDBLK
  5
D1
330
CF
100
AcDbEntity
  8
0
100
AcDbBlockEnd
  0
BLOCK
  5
D3
330
D2
100
AcDbEntity
  8
0
100
AcDbBlockBegin
  2
study
 70
    0
 10
0
 20
0
  3
study
  1

  0
LINE
  5
203
100
AcDbEntity
  8
study
  6
ByLayer
 62
  256
370
   -1
100
AcDbLine
 10
0.7295915357976143
 20
-53.26018211322585
 11
372.2295915357976
 21
-53.26018211322585
  0
LINE
  5
204
100
AcDbEntity
  8
study
  6
ByLayer
 62
  256
370
   -1
100
AcDbLine
 10
372.2295915357976
 20
-53.26018211322585
 11
372.2295915357976
 21
218.7398178867741
  0
LINE
  5
205
100
AcDbEntity
  8
study
  6
ByLayer
 62
  256
370
   -1
100
AcDbLine
 10
372.2295915357976
 20
218.7398178867741
 11
0.7295915357976143
 21
218.7398178867741
  0
LINE
  5
206
100
AcDbEntity
  8
study
  6
ByLayer
 62
  256
370
   -1
100
AcDbLine
 10
0.7295915357976143
 20
218.7398178867741
 11
0.7295915357976143
 21
-53.26018211322585
  0
ENDBLK
  5
D4
330
D2
100
AcDbEntity
  8
0
100
AcDbBlockEnd
  0
BLOCK
  5
D6
330
D5
100
AcDbEntity
  8
0
100
AcDbBlockBegin
  2
studydoor
 70
    0
 10
0
 20
0
  3
studydoor
  1

  0
LINE
  5
207
100
AcDbEntity
  8
door
  6
ByLayer
 62
  256
370
  200
100
AcDbLine
 10
-62.80619796127556
 20
51.55099080955543
 11
-62.80619796127556
 21
-30.64900919044456
  0
ARC
  5
208
100
AcDbEntity
  8
door
  6
DOT2
 62
  256
370
   50
100
AcDbCircle
 10
-62.80619796127556
 20
51.55099080955543
 40
82.2
100
AcDbArc
 50
270
 51
0
  0
ENDBLK
  5
D7
330
D5
100
AcDbEntity
  8
0
100
AcDbBlockEnd
  0
BLOCK
  5
D9
330
D8
100
AcDbEntity
  8
0
100
AcDbBlockBegin
  2
room
 70
    0
 10
0
 20
0
  3
room
  1

  0
LINE
  5
209
100
AcDbEntity
  8
room
  6
ByLayer
 62
  256
370
   -1
100
AcDbLine
 10
300
 20
-140
 11
300
 21
340
  0
LINE
  5
20A
100
AcDbEntity
  8
room
  6
ByLayer
 62
  256
370
   -1
100
AcDbLine
 10
300
 20
340
 11
196.5
 21
340
  0
LINE
  5
20B
100
AcDbEntity
  8
room
  6
ByLayer
 62
  256
370
   -1
100
AcDbLine
 10
196.5
 20
340
 11
196.5
 21
281.2
  0
LINE
  5
20C
100
AcDbEntity
  8
room
  6
ByLayer
 62
  256
370
   -1
100
AcDbLine
 10
196.5
 20
281.2
 11
-1.600000000000023
 21
281.2
  0
LINE
  5
20D
100
AcDbEntity
  8
room
  6
ByLayer
 62
  256
370
   -1
100
AcDbLine
 10
-1.600000000000023
 20
281.2
 11
-1.600000000000023
 21
-140
  0
LINE
  5
20E
100
AcDbEntity
  8
room
  6
ByLayer
 62
  256
370
   -1
100
AcDbLine
 10
-1.600000000000023
 20
-140
 11
300
 21
-140
  0
ENDBLK
  5
DA
330
D8
100
AcDbEntity
  8
0
100
AcDbBlockEnd
  0
BLOCK
  5
DC
330
DB
100
AcDbEntity
  8
0
100
AcDbBlockBegin
  2
corridor
 70
    0
 10
0
 20
0
  3
corridor
  1

  0
LINE
  5
20F
100
AcDbEntity
  8
Corridor
  6
ByLayer
 62
  256
370
   -1
100
AcDbLine
 10
300
 20
-100
 11
-167
 21
-100
  0
LINE
  5
210
100
AcDbEntity
  8
Corridor
  6
ByLayer
 62
  256
370
   -1
100
AcDbLine
 10
-167
 20
13
 11
134
 21
13
  0
LINE
  5
211
100
AcDbEntity
  8
Corridor
  6
ByLayer
 62
  256
370
   -1
100
AcDbLine
 10
134
 20
13
 11
134
 21
54
  0
LINE
  5
212
100
AcDbEntity
  8
Corridor
  6
ByLayer
 62
  256
370
   -1
100
AcDbLine
 10
222.5
 20
54
 11
300
 21
54
  0
LINE
  5
213
100
AcDbEntity
  8
Corridor
  6
ByLayer
 62
  256
370
   -1
100
AcDbLine
 10
300
 20
54
 11
300
 21
-100
  0
ENDBLK
  5
DD
330
DB
100
AcDbEntity
  8
0
100
AcDbBlockEnd
  0
BLOCK
  5
DF
330
DE
100
AcDbEntity
  8
0
100
AcDbBlockBegin
  2
roombed
 70
    0
 10
0
 20
0
  3
roombed
  1

  0
LINE
  5
214
100
AcDbEntity
  8
bed
  6
ByLayer
 62
  256
370
   -1
100
AcDbLine
 10
210.9798438208031
 20
-138.324533365957
 11
-1.020156179196903
 21
-138.324533365957
  0
LINE
  5
215
100
AcDbEntity
  8
bed
  6
ByLayer
 62
  256
370
   -1
100
AcDbLine
 10
-1.020156179196903
 20
-138.324533365957
 11
-1.020156179196903
 21
58.675466634043
  0
LINE
  5
216
100
AcDbEntity
  8
bed
  6
ByLayer
 62
  256
370
   -1
100
AcDbLine
 10
-1.020156179196903
 20
58.675466634043
 11
210.9798438208031
 21
58.675466634043
  0
LINE
  5
217
100
AcDbEntity
  8
bed
  6
ByLayer
 62
  256
370
   -1
100
AcDbLine
 10
210.9798438208031
 20
58.675466634043
 11
210.9798438208031
 21
-138.324533365957
  0
ENDBLK
  5
E0
330
DE
100
AcDbEntity
  8
0
100
AcDbBlockEnd
  0
BLOCK
  5
E2
330
E1
100
AcDbEntity
  8
0
100
AcDbBlockBegin
  2
washstand
 70
    0
 10
0
 20
0
  3
washstand
  1

  0
LINE
  5
218
100
AcDbEntity
  8
bathroom-washstand
  6
ByLayer
 62
  256
370
   -1
100
AcDbLine
 10
-38.878
 20
123.53
 11
-38.8731
 21
-0.169957
  0
LINE
  5
219
100
AcDbEntity
  8
bathroom-washstand
  6
ByLayer
 62
  256
370
   -1
100
AcDbLine
 10
19.7269
 20
123.53
 11
-38.8731
 21
123.53
  0
LINE
  5
21A
100
AcDbEntity
  8
bathroom-washstand
  6
ByLayer
 62
  256
370
   -1
100
AcDbLine
 10
19.7269
 20
-0.169957
 11
19.7269
 21
123.53
  0
LINE
  5
21B
100
AcDbEntity
  8
bathroom-washstand
  6
ByLayer
 62
  256
370
   -1
100
AcDbLine
 10
-38.8731
 20
-0.169957
 11
19.7269
 21
-0.169957
  0
ENDBLK
  5
E3
330
E1
100
AcDbEntity
  8
0
100
AcDbBlockEnd
  0
ENDSEC
  0
SECTION
  2
ENTITIES
  0
HATCH
  5
21C
100
AcDbEntity
  8
door
  6
ByLayer
 62
  256
370
   -1
100
AcDbHatch
 10
0
 20
0
 30
0
210
0
220
0
230
1
  2
ansi31
 70
    0
 71
    0
 91
    1
 92
    0
 93
    4
 72
    1
 10
-355.4061747814412
 20
905.5724523226949
 11
-359.7479605117555
 21
905.5724523226949
 72
    1
 10
-359.7479605117555
 20
905.5724523226949
 11
-359.7479605117555
 21
819.9770000000001
 72
    1
 10
-359.7479605117555
 20
819.9770000000001
 11
-355.4061747814411
 21
819.9770000000001
 72
    1
 10
-355.4061747814411
 20
819.9770000000001
 11
-355.4061747814412
 21
905.5724523226949
 97
    0
 75
    0
 76
    1
 52
0
 41
1
 77
    0
 78
    0
 98
    0
  0
HATCH
  5
21D
100
AcDbEntity
  8
door
  6
ByLayer
 62
  256
370
   -1
100
AcDbHatch
 10
0
 20
0
 30
0
210
0
220
0
230
1
  2
ansi31
 70
    0
 71
    0
 91
    1
 92
    0
 93
    4
 72
    1
 10
-351.064
 20
833.0029999999998
 11
-355.406
 21
833.0029999999999
 72
    1
 10
-355.406
 20
833.0029999999999
 11
-355.406
 21
747.407
 72
    1
 10
-355.406
 20
747.407
 11
-351.064
 21
747.407
 72
    1
 10
-351.064
 20
747.407
 11
-351.064
 21
833.0029999999998
 97
    0
 75
    0
 76
    1
 52
0
 41
1
 77
    0
 78
    0
 98
    0
  0
HATCH
  5
21E
100
AcDbEntity
  8
pipeline
  6
ByLayer
 62
  256
370
   -1
100
AcDbHatch
 10
0
 20
0
 30
0
210
0
220
0
230
1
  2
escher
 70
    0
 71
    0
 91
    1
 92
    0
 93
    4
 72
    1
 10
-162
 20
979.5
 11
-162
 21
1015
 72
    1
 10
-162
 20
1015
 11
-177
 21
1015
 72
    1
 10
-177
 20
1015
 11
-177
 21
979.5
 72
    1
 10
-177
 20
979.5
 11
-162
 21
979.5
 97
    0
 75
    0
 76
    1
 52
0
 41
1
 77
    0
 78
    0
 98
    0
  0
HATCH
  5
21F
100
AcDbEntity
  8
pipeline
  6
ByLayer
 62
  256
370
   -1
100
AcDbHatch
 10
0
 20
0
 30
0
210
0
220
0
230
1
  2
arcs_2
 70
    0
 71
    0
 91
    1
 92
    0
 93
    6
 72
    1
 10
-148
 20
692
 11
-195.5
 21
692
 72
    1
 10
-195.5
 20
692
 11
-195.5
 21
718
 72
    1
 10
-195.5
 20
718
 11
-168
 21
718
 72
    1
 10
-168
 20
718
 11
-168
 21
737.8
 72
    1
 10
-168
 20
737.8
 11
-148
 21
737.8
 72
    1
 10
-148
 20
737.8
 11
-148
 21
692
 97
    0
 75
    0
 76
    1
 52
0
 41
1
 77
    0
 78
    0
 98
    0
  0
HATCH
  5
220
100
AcDbEntity
  8
pipeline
  6
ByLayer
 62
  256
370
   -1
100
AcDbHatch
 10
0
 20
0
 30
0
210
0
220
0
230
1
  2
escher
 70
    0
 71
    0
 91
    1
 92
    0
 93
    4
 72
    1
 10
328.4
 20
649.8
 11
254.9
 21
649.8
 72
    1
 10
254.9
 20
649.8
 11
254.9
 21
632.8
 72
    1
 10
254.9
 20
632.8
 11
328.4
 21
632.8
 72
    1
 10
328.4
 20
632.8
 11
328.4
 21
649.8
 97
    0
 75
    0
 76
    1
 52
0
 41
1
 77
    0
 78
    0
 98
    0
  0
HATCH
  5
221
100
AcDbEntity
  8
door
  6
ByLayer
 62
  256
370
   -1
100
AcDbHatch
 10
0
 20
0
 30
0
210
0
220
0
230
1
  2
ansi31
 70
    0
 71
    0
 91
    1
 92
    0
 93
    4
 72
    1
 10
-24.8
 20
890
 11
-24.8
 21
894
 72
    1
 10
-24.8
 20
894
 11
-99.3
 21
894
 72
    1
 10
-99.3
 20
894
 11
-99.3
 21
890
 72
    1
 10
-99.3
 20
890
 11
-24.8
 21
890
 97
    0
 75
    0
 76
    1
 52
0
 41
1
 77
    0
 78
    0
 98
    0
  0
HATCH
  5
222
100
AcDbEntity
  8
door
  6
ByLayer
 62
  256
370
   -1
100
AcDbHatch
 10
0
 20
0
 30
0
210
0
220
0
230
1
  2
ansi31
 70
    0
 71
    0
 91
    1
 92
    0
 93
    4
 72
    1
 10
-136.4
 20
986
 11
21.5
 21
986
 72
    1
 10
21.5
 20
986
 11
21.5
 21
979
 72
    1
 10
21.5
 20
979
 11
-136.4
 21
979
 72
    1
 10
-136.4
 20
979
 11
-136.4
 21
986
 97
    0
 75
    0
 76
    1
 52
0
 41
1
 77
    0
 78
    0
 98
    0
  0
LINE
  5
223
100
AcDbEntity
  8
windows
  6
ByLayer
 62
  256
370
   -1
100
AcDbLine
 10
53.5
 20
0
 11
53.5
 21
4.5
  0
LINE
  5
224
100
AcDbEntity
  8
windows
  6
ByLayer
 62
  256
370
   -1
100
AcDbLine
 10
53.5
 20
4.5
 11
277.1
 21
4.5
  0
LINE
  5
225
100
AcDbEntity
  8
windows
  6
ByLayer
 62
  256
370
   -1
100
AcDbLine
 10
277.1
 20
4.5
 11
277.1
 21
0
  0
LINE
  5
226
100
AcDbEntity
  8
windows
  6
ByLayer
 62
  256
370
   -1
100
AcDbLine
 10
277.1
 20
0
 11
270.4
 21
0
  0
LINE
  5
227
100
AcDbEntity
  8
windows
  6
ByLayer
 62
  256
370
   -1
100
AcDbLine
 10
270.4
 20
0
 11
270.4
 21
-77.5
  0
LINE
  5
228
100
AcDbEntity
  8
windows
  6
ByLayer
 62
  256
370
   -1
100
AcDbLine
 10
270.4
 20
-77.5
 11
64.8
 21
-77.5
  0
LINE
  5
229
100
AcDbEntity
  8
windows
  6
ByLayer
 62
  256
370
   -1
100
AcDbLine
 10
64.8
 20
-77.5
 11
64.8
 21
0
  0
LINE
  5
22A
100
AcDbEntity
  8
windows
  6
ByLayer
 62
  256
370
   -1
100
AcDbLine
 10
64.8
 20
0
 11
53.5
 21
0
  0
LWPOLYLINE
  5
22B
100
AcDbEntity
  8
sockets
  6
ByLayer
 62
  256
370
   -1
100
AcDbPolyline
 90
    4
 70
    1
 43
0
 10
327.4
 20
12.3
 10
331.4
 20
12.3
 10
331.4
 20
52.6
 10
327.4
 20
52.6
  0
LWPOLYLINE
  5
22C
100
AcDbEntity
  8
sockets
  6
ByLayer
 62
  256
370
   -1
100
AcDbPolyline
 90
    4
 70
    1
 43
0
 10
327.4
 20
247.6
 10
331.4
 20
247.6
 10
331.4
 20
295.1
 10
327.4
 20
295.1
  0
LWPOLYLINE
  5
22D
100
AcDbEntity
  8
sockets
  6
ByLayer
 62
  256
370
   -1
100
AcDbPolyline
 90
    4
 70
    1
 43
0
 10
-2
 20
138
 10
2
 20
138
 10
2
 20
190
 10
-2
 20
190
  0
INSERT
  5
22E
100
AcDbEntity
  8
master
  6
ByLayer
 62
  256
370
   -1
100
AcDbBlockReference
  2
wall
 10
63.1404958677686
 20
207.1797520661157
 30
0
 41
1
 42
1
 43
0
 50
0
 70
    1
 71
    1
 44
0
 45
0
  0
DIMENSION
  5
22F
100
AcDbEntity
  8
dimension
  6
ByLayer
 62
  256
370
   -1
100
AcDbDimension
  2
*D1
 10
199.463035410058
 20
451.8893827205571
 30
0
 11
264.6358454291952
 21
455.0397767312762
 31
0
 70
   33
 71
    5
  3
Standard
 53
0
210
0
220
0
230
1
100
AcDbAlignedDimension
 13
329.8155371900829
 23
440.5282644628102
 33
0
 14
199.4674819173556
 24
440.4774759669427
 34
0
  0
INSERT
  5
230
100
AcDbEntity
  8
bed
  6
ByLayer
 62
  256
370
   -1
100
AcDbBlockReference
  2
bed
 10
189.9245867768595
 20
245.5712809917355
 30
0
 41
1
 42
1
 43
0
 50
0
 70
    1
 71
    1
 44
0
 45
0
  0
DIMENSION
  5
231
100
AcDbEntity
  8
dimension
  6
ByLayer
 62
  256
370
   -1
100
AcDbDimension
  2
*D2
 10
-15.85592066115705
 20
3.883580497044073e-15
 30
0
 11
-18.98092066115705
 21
68.65613646281
 31
0
 70
   33
 71
    5
  3
Standard
 53
0
210
0
220
0
230
1
100
AcDbAlignedDimension
 13
0
 23
137.31227292562
 33
0
 14
0
 24
0
 34
0
  0
DIMENSION
  5
232
100
AcDbEntity
  8
dimension
  6
ByLayer
 62
  256
370
   -1
100
AcDbDimension
  2
*D3
 10
-16.84211318172913
 20
390.9520315163081
 30
0
 11
-19.96711318172912
 21
434.1323429715924
 31
0
 70
   33
 71
    5
  3
Standard
 53
0
210
0
220
0
230
1
100
AcDbAlignedDimension
 13
0
 23
477.3126544268766
 33
0
 14
-2.083292370856478e-14
 24
390.9520315163081
 34
0
  0
DIMENSION
  5
233
100
AcDbEntity
  8
dimension
  6
ByLayer
 62
  256
370
   -1
100
AcDbDimension
  2
*D4
 10
-29.04463451022821
 20
-0.3583428336538077
 30
0
 11
-32.1696345102282
 21
238.6563272134383
 31
0
 70
   33
 71
    5
  3
Standard
 53
0
210
0
220
0
230
1
100
AcDbAlignedDimension
 13
1.06581410364015e-14
 23
477.6709972605304
 33
0
 14
-5.338550491327978e-15
 24
-0.3583428336538077
 34
0
  0
DIMENSION
  5
234
100
AcDbEntity
  8
dimension
  6
ByLayer
 62
  256
370
   -1
100
AcDbDimension
  2
*D5
 10
369.6963528909056
 20
52.80342195752215
 30
0
 11
372.6330455602002
 21
150.349635669336
 31
0
 70
   33
 71
    5
  3
Standard
 53
0
210
0
220
0
230
1
100
AcDbAlignedDimension
 13
328.3978291457288
 23
247.8047839195981
 33
0
 14
328.7744321608043
 24
52.72442211055281
 34
0
  0
DIMENSION
  5
235
100
AcDbEntity
  8
dimension
  6
ByLayer
 62
  256
370
   -1
100
AcDbDimension
  2
*D6
 10
368.98355944092
 20
247.6963929825386
 30
0
 11
372.0620914796315
 21
271.7097468966185
 31
0
 70
   33
 71
    5
  3
Standard
 53
0
210
0
220
0
230
1
100
AcDbAlignedDimension
 13
328.7744321608042
 23
295.633366834171
 33
0
 14
328.8673563786948
 24
247.6187548087193
 34
0
  0
DIMENSION
  5
236
100
AcDbEntity
  8
dimension
  6
ByLayer
 62
  256
370
   -1
100
AcDbDimension
  2
*D7
 10
370.5746231078514
 20
0.3500829662437825
 30
0
 11
373.1889750633735
 21
26.43687375044626
 31
0
 70
   33
 71
    5
  3
Standard
 53
0
210
0
220
0
230
1
100
AcDbAlignedDimension
 13
328.3978291457288
 23
51.59461306532667
 33
0
 14
329.417925329125
 24
-0.4565047136508977
 34
0
  0
DIMENSION
  5
237
100
AcDbEntity
  8
dimension
  6
ByLayer
 62
  256
370
   -1
100
AcDbDimension
  2
*D8
 10
-17.38243646436728
 20
193.2396256033356
 30
0
 11
-20.49830636027266
 21
291.8895340175798
 31
0
 70
   33
 71
    5
  3
Standard
 53
0
210
0
220
0
230
1
100
AcDbAlignedDimension
 13
-0.7532060301507849
 23
390.537326633166
 33
0
 14
-0.7714662115724361
 24
193.2380882465121
 34
0
  0
DIMENSION
  5
238
100
AcDbEntity
  8
dimension
  6
ByLayer
 62
  256
370
   -1
100
AcDbDimension
  2
*D9
 10
53.37240542690341
 20
-25.45879418757568
 30
0
 11
26.93590452157458
 21
-21.96631917024564
 31
0
 70
   33
 71
    5
 72
    0
  3
Standard
 53
0
210
0
220
0
230
1
100
AcDbAlignedDimension
 13
0.7355527638190954
 23
-1.471105527638191
 33
0
 14
53.69535175879396
 24
-2.206658291457305
 34
0
  0
DIMENSION
  5
239
100
AcDbEntity
  8
dimension
  6
ByLayer
 62
  256
370
   -1
100
AcDbDimension
  2
*D10
 10
330.0052855653836
 20
-20.1499443553869
 30
0
 11
303.6048627201529
 21
-17.0249443553869
 31
0
 70
   33
 71
    5
 72
    0
  3
Standard
 53
0
210
0
220
0
230
1
100
AcDbAlignedDimension
 13
277.2044398749223
 23
-2.797762022055394e-14
 33
0
 14
330.0052855653836
 24
-2.618642617629959e-14
 34
0
  0
DIMENSION
  5
23A
100
AcDbEntity
  8
dimension
  6
ByLayer
 62
  256
370
   -1
100
AcDbDimension
  2
*D11
 10
410.8206820065431
 20
0.1423677867936458
 30
0
 11
413.340814906429
 21
220.9231401422988
 31
0
 70
   33
 71
    5
  3
Standard
 53
0
210
0
220
0
230
1
100
AcDbAlignedDimension
 13
327.3512581337553
 23
441.4614201973312
 33
0
 14
328.560968877557
 24
-0.08300129027211023
 34
0
  0
DIMENSION
  5
23B
100
AcDbEntity
  8
dimension
  6
ByLayer
 62
  256
370
   -1
100
AcDbDimension
  2
*D12
 10
369.2506236369074
 20
296.4401366019228
 30
0
 11
372.1683211521857
 21
369.1628706026752
 31
0
 70
   33
 71
    5
  3
Standard
 53
0
210
0
220
0
230
1
100
AcDbAlignedDimension
 13
328.3029034940358
 23
441.7522370917208
 33
0
 14
328.7174830672523
 24
296.3245862782773
 34
0
  0
INSERT
  5
23C
100
AcDbEntity
  8
master
  6
ByLayer
 62
  256
370
   -1
100
AcDbBlockReference
  2
bathroom1
 10
267.339982126407
 20
651.3867584805856
 30
0
 41
1
 42
1
 43
0
 50
0
 70
    1
 71
    1
 44
0
 45
0
  0
LINE
  5
23D
100
AcDbEntity
  8
door
  6
ByLayer
 62
  256
370
  140
100
AcDbLine
 10
132.2295915357976
 20
452.4438730369642
 11
132.2295915357976
 21
518.9438730369642
  0
ARC
  5
23E
100
AcDbEntity
  8
door
  6
DOTTINY
 62
  256
370
   50
100
AcDbCircle
 10
132.2295915357976
 20
452.4438730369642
 40
66.5
100
AcDbArc
 50
0
 51
90
  0
INSERT
  5
23F
100
AcDbEntity
  8
study
  6
ByLayer
 62
  256
370
   -1
100
AcDbBlockReference
  2
study
 10
275.2910809233325
 20
689.5611915138128
 30
0
 41
1
 42
1
 43
0
 50
90.07593299999998
 70
    1
 71
    1
 44
0
 45
0
  0
INSERT
  5
240
100
AcDbEntity
  8
study
  6
ByLayer
 62
  256
370
   -1
100
AcDbBlockReference
  2
studydoor
 10
108.1182485537686
 20
757.5054670644379
 30
0
 41
1
 42
1
 43
0
 50
90.07593299999998
 70
    1
 71
    1
 44
0
 45
0
  0
DIMENSION
  5
241
100
AcDbEntity
  8
dimension
  6
ByLayer
 62
  256
370
   -1
100
AcDbDimension
  2
*D13
 10
138.7202037061315
 20
674.3843669350027
 30
0
 11
97.63534596160159
 21
677.5093669350027
 31
0
 70
   32
 71
    5
 72
    0
  3
Standard
 53
0
210
0
220
0
230
1
100
AcDbAlignedDimension
 13
56.55048821707172
 23
690.0008907995882
 33
0
 14
138.7202037061315
 24
689.3973759941078
 34
0
100
AcDbRotatedDimension
  0
DIMENSION
  5
242
100
AcDbEntity
  8
dimension
  6
ByLayer
 62
  256
370
   -1
100
AcDbDimension
  2
*D14
 10
399.9066069657537
 20
451.0115622482465
 30
0
 11
396.7816069657537
 21
550.4115622482466
 31
0
 70
   32
 71
    5
 72
    0
  3
Standard
 53
0
210
0
220
0
230
1
100
AcDbAlignedDimension
 13
328.3713793006613
 23
649.8115622482466
 33
0
 14
328.3713793006613
 24
451.0115622482465
 34
0
 50
90
100
AcDbRotatedDimension
  0
DIMENSION
  5
243
100
AcDbEntity
  8
dimension
  6
ByLayer
 62
  256
370
   -1
100
AcDbDimension
  2
*D15
 10
328.3713793006613
 20
676.6121722824306
 30
0
 11
226.6213793006613
 21
679.7371722824306
 31
0
 70
   32
 71
    5
 72
    0
  3
Standard
 53
0
210
0
220
0
230
1
100
AcDbAlignedDimension
 13
124.8713793006613
 23
649.8115622482466
 33
0
 14
328.3713793006613
 24
649.8115622482466
 34
0
100
AcDbRotatedDimension
  0
DIMENSION
  5
244
100
AcDbEntity
  8
dimension
  6
ByLayer
 62
  256
370
   -1
100
AcDbDimension
  2
*D16
 10
254.8473159918406
 20
662.2055988637885
 30
0
 11
291.609347646251
 21
665.3305988637885
 31
0
 70
   32
 71
    5
 72
    0
  3
Standard
 53
0
210
0
220
0
230
1
100
AcDbAlignedDimension
 13
328.3713793006613
 23
649.8115622482466
 33
0
 14
254.8473159918406
 24
649.7861390201316
 34
0
100
AcDbRotatedDimension
  0
LINE
  5
245
100
AcDbEntity
  8
door
  6
ByLayer
 62
  256
370
  140
100
AcDbLine
 10
23.18128287307812
 20
477.5
 11
23.06430082981634
 21
396.0697176982254
  0
ARC
  5
246
100
AcDbEntity
  8
door
  6
DOTTINY
 62
  256
370
   50
100
AcDbCircle
 10
22.72051872531875
 20
477.1562178955023
 40
82.28019947086902
100
AcDbArc
 50
270.2393932087789
 51
0.2393932087789395
  0
INSERT
  5
247
100
AcDbEntity
  8
room
  6
DASHED2
 62
  256
370
  200
100
AcDbBlockReference
  2
room
 10
-320
 20
140
 30
0
 41
1
 42
1
 43
0
 50
0
 70
    1
 71
    1
 44
0
 45
0
  0
INSERT
  5
248
100
AcDbEntity
  8
bed
  6
ByLayer
 62
  256
370
   -1
100
AcDbBlockReference
  2
roombed
 10
-319.9628095030722
 20
185.8299286633564
 30
0
 41
1
 42
1
 43
0
 50
0
 70
    1
 71
    1
 44
0
 45
0
  0
DIMENSION
  5
249
100
AcDbEntity
  8
dimension
  6
ByLayer
 62
  256
370
   -1
100
AcDbDimension
  2
*D17
 10
-90.81913806855763
 20
47.50539529739939
 30
0
 11
-93.94413806855763
 21
146.0053952973994
 31
0
 70
   32
 71
    5
  3
Standard
 53
0
210
0
220
0
230
1
100
AcDbAlignedDimension
 13
-108.9829656822691
 23
244.5053952973994
 33
0
 14
-108.9829656822691
 24
47.50539529739939
 34
0
 50
90
100
AcDbRotatedDimension
  0
DIMENSION
  5
24A
100
AcDbEntity
  8
dimension
  6
ByLayer
 62
  256
370
   -1
100
AcDbDimension
  2
*D18
 10
-108.9829656822691
 20
32.13600270118193
 30
0
 11
-214.9829656822691
 21
35.26100270118193
 31
0
 70
   32
 71
    5
  3
Standard
 53
0
210
0
220
0
230
1
100
AcDbAlignedDimension
 13
-320.9829656822691
 23
47.50539529739939
 33
0
 14
-108.9829656822691
 24
47.50539529739939
 34
0
100
AcDbRotatedDimension
  0
LINE
  5
24B
100
AcDbEntity
  8
hall
  6
ByLayer
 62
  256
370
   -1
100
AcDbLine
 10
-365.6780198673897
 20
0
 11
-756.9780198673897
 21
0
  0
LINE
  5
24C
100
AcDbEntity
  8
hall
  6
ByLayer
 62
  256
370
   -1
100
AcDbLine
 10
-756.9780198673897
 20
0
 11
-756.9780198673897
 21
581.3
  0
LINE
  5
24D
100
AcDbEntity
  8
hall
  6
ByLayer
 62
  256
370
   -1
100
AcDbLine
 10
-756.9780198673897
 20
581.3
 11
-626.1780198673897
 21
581.3
  0
LINE
  5
24E
100
AcDbEntity
  8
hall
  6
ByLayer
 62
  256
370
   -1
100
AcDbLine
 10
-626.1780198673897
 20
581.3
 11
-626.1780198673897
 21
961.3
  0
LINE
  5
24F
100
AcDbEntity
  8
hall
  6
ByLayer
 62
  256
370
   -1
100
AcDbLine
 10
-626.1780198673897
 20
961.3
 11
-365.6780198673897
 21
961.3
  0
DIMENSION
  5
250
100
AcDbEntity
  8
dimension
  6
ByLayer
 62
  256
370
   -1
100
AcDbDimension
  2
*D19
 10
33.6291402923955
 20
784.2795932476523
 30
0
 11
30.50414029239552
 21
922.8900789008399
 31
0
 70
   32
 71
    5
 72
    0
  3
Standard
 53
0
210
0
220
0
230
1
100
AcDbAlignedDimension
 13
56.05814652136357
 23
1061.500564554027
 33
0
 14
56.44891406223531
 24
784.2795932476523
 34
0
 50
90
100
AcDbRotatedDimension
  0
INSERT
  5
251
100
AcDbEntity
  8
Corridor
  6
ByLayer
 62
  256
370
   -1
100
AcDbBlockReference
  2
corridor
 10
-199.0195401942697
 20
609.4539328012524
 30
0
 41
1
 42
1
 43
0
 50
0
 70
    1
 71
    1
 44
0
 45
0
  0
LINE
  5
252
100
AcDbEntity
  8
bathroom
  6
ByLayer
 62
  256
370
   -1
100
AcDbLine
 10
-65
 20
663.4539328012524
 11
-65
 21
680
  0
LINE
  5
253
100
AcDbEntity
  8
bathroom
  6
ByLayer
 62
  256
370
   -1
100
AcDbLine
 10
-65
 20
680
 11
-136.0049080395046
 21
680
  0
LINE
  5
254
100
AcDbEntity
  8
bathroom
  6
ByLayer
 62
  256
370
   -1
100
AcDbLine
 10
-136.0049080395046
 20
680
 11
-136
 21
869
  0
LINE
  5
255
100
AcDbEntity
  8
bathroom
  6
ByLayer
 62
  256
370
   -1
100
AcDbLine
 10
-136
 20
869
 11
-50.2
 21
869
  0
LINE
  5
256
100
AcDbEntity
  8
bathroom
  6
ByLayer
 62
  256
370
   -1
100
AcDbLine
 10
-136.4336701975354
 20
1060.938750067548
 11
21.5
 21
1060.9
  0
LINE
  5
257
100
AcDbEntity
  8
bathroom
  6
ByLayer
 62
  256
370
   -1
100
AcDbLine
 10
21.5
 20
1060.9
 11
21.5
 21
663.4539328012524
  0
LINE
  5
258
100
AcDbEntity
  8
bathroom
  6
ByLayer
 62
  256
370
   -1
100
AcDbLine
 10
-50.2
 20
869
 11
-50.2
 21
890
  0
LINE
  5
259
100
AcDbEntity
  8
bathroom
  6
ByLayer
 62
  256
370
   -1
100
AcDbLine
 10
-136.4
 20
890
 11
-50.2
 21
890
  0
DIMENSION
  5
25A
100
AcDbEntity
  8
dimension
  6
ByLayer
 62
  256
370
   -1
100
AcDbDimension
  2
*D20
 10
368.6982969079976
 20
686.4331773491901
 30
0
 11
365.5732969079976
 21
876.1112039654554
 31
0
 70
   32
 71
    5
 72
    0
  3
Standard
 53
0
210
0
220
0
230
1
100
AcDbAlignedDimension
 13
328.0579076551654
 23
1061.861040842675
 33
0
 14
328.5502493508736
 24
690.3613670882359
 34
0
 50
90
100
AcDbRotatedDimension
  0
DIMENSION
  5
25B
100
AcDbEntity
  8
dimension
  6
ByLayer
 62
  256
370
   -1
100
AcDbDimension
  2
*D21
 10
328.0579076551654
 20
1118.645108603243
 30
0
 11
192.0580270882645
 21
1121.770108603243
 31
0
 70
   32
 71
    5
 72
    0
  3
Standard
 53
0
210
0
220
0
230
1
100
AcDbAlignedDimension
 13
56.05814652136357
 23
1061.500564554027
 33
0
 14
328.0579076551654
 24
1061.861040842675
 34
0
100
AcDbRotatedDimension
  0
DIMENSION
  5
25C
100
AcDbEntity
  8
dimension
  6
ByLayer
 62
  256
370
   -1
100
AcDbDimension
  2
*D22
 10
-780.292392570828
 20
2.855187190539424e-15
 30
0
 11
-783.417392570828
 21
290.65
 31
0
 70
   32
 71
    5
 72
    0
  3
Standard
 53
0
210
0
220
0
230
1
100
AcDbAlignedDimension
 13
-756.9780198673897
 23
581.3
 33
0
 14
-756.9780198673897
 24
0
 34
0
 50
90
100
AcDbRotatedDimension
  0
DIMENSION
  5
25D
100
AcDbEntity
  8
dimension
  6
ByLayer
 62
  256
370
   -1
100
AcDbDimension
  2
*D23
 10
-641.6731136613972
 20
581.3
 30
0
 11
-644.7981136613972
 21
771.3
 31
0
 70
   32
 71
    5
 72
    0
  3
Standard
 53
0
210
0
220
0
230
1
100
AcDbAlignedDimension
 13
-626.1780198673897
 23
961.3
 33
0
 14
-626.1780198673897
 24
581.3
 34
0
 50
90
100
AcDbRotatedDimension
  0
DIMENSION
  5
25E
100
AcDbEntity
  8
dimension
  6
ByLayer
 62
  256
370
   -1
100
AcDbDimension
  2
*D24
 10
-365.6780198673897
 20
-24.59374303231836
 30
0
 11
-561.3280198673897
 21
-21.46874303231836
 31
0
 70
   32
 71
    5
 72
    0
  3
Standard
 53
0
210
0
220
0
230
1
100
AcDbAlignedDimension
 13
-756.9780198673897
 23
0
 33
0
 14
-365.6780198673897
 24
0
 34
0
100
AcDbRotatedDimension
  0
DIMENSION
  5
25F
100
AcDbEntity
  8
dimension
  6
ByLayer
 62
  256
370
   -1
100
AcDbDimension
  2
*D25
 10
-626.1780198673897
 20
974.8065420082551
 30
0
 11
-495.9280198673897
 21
977.9315420082551
 31
0
 70
   32
 71
    5
 72
    0
  3
Standard
 53
0
210
0
220
0
230
1
100
AcDbAlignedDimension
 13
-365.6780198673897
 23
961.3
 33
0
 14
-626.1780198673897
 24
961.3
 34
0
100
AcDbRotatedDimension
  0
DIMENSION
  5
260
100
AcDbEntity
  8
dimension
  6
ByLayer
 62
  256
370
   -1
100
AcDbDimension
  2
*D26
 10
-626.1780198673897
 20
589.0306985755806
 30
0
 11
-691.5780198673897
 21
592.1556985755806
 31
0
 70
   32
 71
    5
 72
    0
  3
Standard
 53
0
210
0
220
0
230
1
100
AcDbAlignedDimension
 13
-756.9780198673897
 23
581.3
 33
0
 14
-626.1780198673897
 24
581.3
 34
0
100
AcDbRotatedDimension
  0
DIMENSION
  5
261
100
AcDbEntity
  8
dimension
  6
ByLayer
 62
  256
370
   -1
100
AcDbDimension
  2
*D27
 10
100.9804598057303
 20
653.6799627306516
 30
0
 11
62.23045980573031
 21
656.8049627306516
 31
0
 70
   32
 71
    5
 72
    0
  3
Standard
 53
0
210
0
220
0
230
1
100
AcDbAlignedDimension
 13
23.48045980573031
 23
663.4539328012524
 33
0
 14
100.9804598057303
 24
663.4539328012524
 34
0
100
AcDbRotatedDimension
  0
DIMENSION
  5
262
100
AcDbEntity
  8
dimension
  6
ByLayer
 62
  256
370
   -1
100
AcDbDimension
  2
*D28
 10
108.9466604551086
 20
509.4539328012524
 30
0
 11
105.8216604551086
 21
586.4539328012524
 31
0
 70
   32
 71
    5
 72
    0
  3
Standard
 53
0
210
0
220
0
230
1
100
AcDbAlignedDimension
 13
100.9804598057303
 23
663.4539328012524
 33
0
 14
100.9804598057303
 24
509.4539328012524
 34
0
 50
90
100
AcDbRotatedDimension
  0
ARC
  5
263
100
AcDbEntity
  8
door
  6
DOTTINY
 62
  256
370
   -1
100
AcDbCircle
 10
-333.505945128245
 20
963.6507679586725
 40
69.166
100
AcDbArc
 50
0.3924479999999863
 51
90.39244799999999
  0
LINE
  5
264
100
AcDbEntity
  8
door
  6
ByLayer
 62
  256
370
  140
100
AcDbLine
 10
-333.505945128245
 20
963.6507679586725
 11
-264.34156761045
 21
964.1245174451393
  0
LINE
  5
265
100
AcDbEntity
  8
kitchen
  6
ByLayer
 62
  256
370
   -1
100
AcDbLine
 10
-148
 20
692
 11
-330
 21
692
  0
LINE
  5
266
100
AcDbEntity
  8
kitchen-stove
  6
ByLayer
 62
  256
370
   -1
100
AcDbLine
 10
-148
 20
948
 11
-148
 21
692
  0
LINE
  5
267
100
AcDbEntity
  8
kitchen
  6
ByLayer
 62
  256
370
   -1
100
AcDbLine
 10
-148
 20
948
 11
-148
 21
692
  0
LINE
  5
268
100
AcDbEntity
  8
kitchen
  6
ByLayer
 62
  256
370
   -1
100
AcDbLine
 10
-330
 20
948
 11
-148
 21
948
  0
LINE
  5
269
100
AcDbEntity
  8
kitchen
  6
ByLayer
 62
  256
370
   -1
100
AcDbLine
 10
-330
 20
692
 11
-330
 21
948
  0
LINE
  5
26A
100
AcDbEntity
  8
kitchen-stove
  6
ByLayer
 62
  256
370
   -1
100
AcDbLine
 10
-148
 20
692
 11
-263
 21
692
  0
LINE
  5
26B
100
AcDbEntity
  8
kitchen-stove
  6
ByLayer
 62
  256
370
   -1
100
AcDbLine
 10
-263
 20
692
 11
-263
 21
752
  0
LINE
  5
26C
100
AcDbEntity
  8
kitchen-stove
  6
ByLayer
 62
  256
370
   -1
100
AcDbLine
 10
-263
 20
752
 11
-208.5
 21
752
  0
LINE
  5
26D
100
AcDbEntity
  8
kitchen-stove
  6
ByLayer
 62
  256
370
   -1
100
AcDbLine
 10
-208.5
 20
752
 11
-208.5
 21
948
  0
LINE
  5
26E
100
AcDbEntity
  8
kitchen-stove
  6
ByLayer
 62
  256
370
   -1
100
AcDbLine
 10
-208.5
 20
948
 11
-148
 21
948
  0
LINE
  5
26F
100
AcDbEntity
  8
pipeline
  6
ByLayer
 62
  256
370
   -1
100
AcDbLine
 10
-148
 20
692
 11
-195.5
 21
692
  0
LINE
  5
270
100
AcDbEntity
  8
pipeline
  6
ByLayer
 62
  256
370
   -1
100
AcDbLine
 10
-195.5
 20
692
 11
-195.5
 21
718
  0
LINE
  5
271
100
AcDbEntity
  8
pipeline
  6
ByLayer
 62
  256
370
   -1
100
AcDbLine
 10
-195.5
 20
718
 11
-168
 21
718
  0
LINE
  5
272
100
AcDbEntity
  8
pipeline
  6
ByLayer
 62
  256
370
   -1
100
AcDbLine
 10
-168
 20
718
 11
-168
 21
737.8
  0
LINE
  5
273
100
AcDbEntity
  8
pipeline
  6
ByLayer
 62
  256
370
   -1
100
AcDbLine
 10
-168
 20
737.8
 11
-148
 21
737.8
  0
LINE
  5
274
100
AcDbEntity
  8
pipeline
  6
ByLayer
 62
  256
370
   -1
100
AcDbLine
 10
-148
 20
737.8
 11
-148
 21
692
  0
LINE
  5
275
100
AcDbEntity
  8
north-balcony
  6
ByLayer
 62
  256
370
   -1
100
AcDbLine
 10
-257.5
 20
948
 11
-257.5
 21
979.5
  0
LINE
  5
276
100
AcDbEntity
  8
north-balcony
  6
ByLayer
 62
  256
370
   -1
100
AcDbLine
 10
-257.5
 20
979.5
 11
-162
 21
979.5
  0
LINE
  5
277
100
AcDbEntity
  8
north-balcony
  6
ByLayer
 62
  256
370
   -1
100
AcDbLine
 10
-162
 20
979.5
 11
-162
 21
1060.5
  0
LINE
  5
278
100
AcDbEntity
  8
north-balcony
  6
ByLayer
 62
  256
370
   -1
100
AcDbLine
 10
-162
 20
1060.5
 11
-341.5
 21
1060.5
  0
LINE
  5
279
100
AcDbEntity
  8
north-balcony
  6
ByLayer
 62
  256
370
   -1
100
AcDbLine
 10
-341.5
 20
1060.5
 11
-341.5
 21
979.5
  0
LINE
  5
27A
100
AcDbEntity
  8
north-balcony
  6
ByLayer
 62
  256
370
   -1
100
AcDbLine
 10
-341.5
 20
979.5
 11
-331.5
 21
979.5
  0
LINE
  5
27B
100
AcDbEntity
  8
north-balcony
  6
ByLayer
 62
  256
370
   -1
100
AcDbLine
 10
-331.5
 20
979.5
 11
-331.5
 21
948
  0
LINE
  5
27C
100
AcDbEntity
  8
north-balcony
  6
ByLayer
 62
  256
370
   -1
100
AcDbLine
 10
-331.5
 20
948
 11
-257.5
 21
948
  0
LINE
  5
27D
100
AcDbEntity
  8
pipeline
  6
ByLayer
 62
  256
370
   -1
100
AcDbLine
 10
-162
 20
979.5
 11
-162
 21
1015
  0
LINE
  5
27E
100
AcDbEntity
  8
pipeline
  6
ByLayer
 62
  256
370
   -1
100
AcDbLine
 10
-162
 20
1015
 11
-177
 21
1015
  0
LINE
  5
27F
100
AcDbEntity
  8
pipeline
  6
ByLayer
 62
  256
370
   -1
100
AcDbLine
 10
-177
 20
1015
 11
-177
 21
979.5
  0
LINE
  5
280
100
AcDbEntity
  8
pipeline
  6
ByLayer
 62
  256
370
   -1
100
AcDbLine
 10
-177
 20
979.5
 11
-162
 21
979.5
  0
LINE
  5
281
100
AcDbEntity
  8
door
  6
ByLayer
 62
  256
370
   -1
100
AcDbLine
 10
-136.4
 20
986
 11
21.5
 21
986
  0
LINE
  5
282
100
AcDbEntity
  8
door
  6
ByLayer
 62
  256
370
   -1
100
AcDbLine
 10
-136.4
 20
979
 11
-136.4
 21
986
  0
LINE
  5
283
100
AcDbEntity
  8
door
  6
ByLayer
 62
  256
370
   -1
100
AcDbLine
 10
21.5
 20
979
 11
-136.4
 21
979
  0
LINE
  5
284
100
AcDbEntity
  8
door
  6
ByLayer
 62
  256
370
   -1
100
AcDbLine
 10
21.5
 20
986
 11
21.5
 21
979
  0
LINE
  5
285
100
AcDbEntity
  8
door
  6
ByLayer
 62
  256
370
   -1
100
AcDbLine
 10
-24.8
 20
890
 11
-24.8
 21
894
  0
LINE
  5
286
100
AcDbEntity
  8
door
  6
ByLayer
 62
  256
370
   -1
100
AcDbLine
 10
-24.8
 20
894
 11
-99.3
 21
894
  0
LINE
  5
287
100
AcDbEntity
  8
door
  6
ByLayer
 62
  256
370
   -1
100
AcDbLine
 10
-99.3
 20
890
 11
-24.8
 21
890
  0
LINE
  5
288
100
AcDbEntity
  8
door
  6
ByLayer
 62
  256
370
   -1
100
AcDbLine
 10
-99.3
 20
894
 11
-99.3
 21
890
  0
INSERT
  5
289
100
AcDbEntity
  8
bathroom-washstand
  6
ByLayer
 62
  256
370
   -1
100
AcDbBlockReference
  2
washstand
 10
-97.12693197456254
 20
745.4699565227107
 30
0
 41
1
 42
1
 43
0
 50
0
 70
    1
 71
    1
 44
0
 45
0
  0
ELLIPSE
  5
28A
100
AcDbEntity
  8
bathroom-washstand
  6
ByLayer
 62
  256
370
   -1
100
AcDbEllipse
 10
-106.8217124124944
 20
805.4701702071154
 30
0
 11
0.4307327113407098
 21
38.76594402066326
 31
0
 40
0.4889519812368847
 41
0
 42
6.283185307179586
  0
LINE
  5
28B
100
AcDbEntity
  8
bathroom
  6
ByLayer
 62
  256
370
   -1
100
AcDbLine
 10
-136.4336701975354
 20
1060.938750067548
 11
-136.3986520914438
 21
983.0000003028096
  0
LINE
  5
28C
100
AcDbEntity
  8
bathroom
  6
ByLayer
 62
  256
370
   -1
100
AcDbLine
 10
-136.4
 20
982
 11
-136.4
 21
890
  0
LINE
  5
28D
100
AcDbEntity
  8
pipeline
  6
ByLayer
 62
  256
370
   -1
100
AcDbLine
 10
328.4
 20
649.8
 11
254.9
 21
649.8
  0
LINE
  5
28E
100
AcDbEntity
  8
pipeline
  6
ByLayer
 62
  256
370
   -1
100
AcDbLine
 10
254.9
 20
649.8
 11
254.9
 21
632.8
  0
LINE
  5
28F
100
AcDbEntity
  8
pipeline
  6
ByLayer
 62
  256
370
   -1
100
AcDbLine
 10
254.9
 20
632.8
 11
328.4
 21
632.8
  0
LINE
  5
290
100
AcDbEntity
  8
pipeline
  6
ByLayer
 62
  256
370
   -1
100
AcDbLine
 10
328.4
 20
632.8
 11
328.4
 21
649.8
  0
LINE
  5
291
100
AcDbEntity
  8
pipeline
  6
ByLayer
 62
  256
370
   -1
100
AcDbLine
 10
254.9
 20
451.0115622482465
 11
328.3713793006613
 21
451.0115622482465
  0
DIMENSION
  5
292
100
AcDbEntity
  8
dimension
  6
ByLayer
 62
  256
370
   -1
100
AcDbDimension
  2
*D29
 10
249.3156193191474
 20
474
 30
0
 11
246.1906193191474
 21
462.5057811241232
 31
0
 70
   32
 71
    5
 72
    0
  3
Standard
 53
0
210
0
220
0
230
1
100
AcDbAlignedDimension
 13
254.9
 23
451.0115622482465
 33
0
 14
254.9
 24
474
 34
0
 50
90
100
AcDbRotatedDimension
  0
LINE
  5
293
100
AcDbEntity
  8
bathroom-washstand
  6
ByLayer
 62
  256
370
   -1
100
AcDbLine
 10
328.4
 20
474
 11
254.9
 21
474
  0
LINE
  5
294
100
AcDbEntity
  8
bathroom-washstand
  6
ByLayer
 62
  256
370
   -1
100
AcDbLine
 10
254.9
 20
474
 11
254.9
 21
451.012
  0
LINE
  5
295
100
AcDbEntity
  8
bathroom-washstand
  6
ByLayer
 62
  256
370
   -1
100
AcDbLine
 10
328.371
 20
451.012
 11
328.4
 21
474
  0
LINE
  5
296
100
AcDbEntity
  8
bathroom-washstand
  6
ByLayer
 62
  256
370
   -1
100
AcDbLine
 10
254.9
 20
632.8
 11
328.4
 21
632.8
  0
LINE
  5
297
100
AcDbEntity
  8
bathroom-washstand
  6
ByLayer
 62
  256
370
   -1
100
AcDbLine
 10
328.4
 20
632.8
 11
328.4
 21
474
  0
LINE
  5
298
100
AcDbEntity
  8
bathroom-washstand
  6
ByLayer
 62
  256
370
   -1
100
AcDbLine
 10
328.4
 20
474
 11
254.9
 21
474
  0
LINE
  5
299
100
AcDbEntity
  8
bathroom-washstand
  6
ByLayer
 62
  256
370
   -1
100
AcDbLine
 10
254.9
 20
474
 11
254.9
 21
632.8
  0
ARC
  5
29A
100
AcDbEntity
  8
bathroom-washstand
  6
ByLayer
 62
  256
370
   -1
100
AcDbCircle
 10
267.2592647715425
 20
619.3664156018094
 40
10
100
AcDbArc
 50
90
 51
180
  0
LINE
  5
29B
100
AcDbEntity
  8
bathroom-washstand
  6
ByLayer
 62
  256
370
   -1
100
AcDbLine
 10
267.2592647715425
 20
629.3664156018094
 11
315.2109306896211
 21
629.3664156018094
  0
ARC
  5
29C
100
AcDbEntity
  8
bathroom-washstand
  6
ByLayer
 62
  256
370
   -1
100
AcDbCircle
 10
315.2109306896211
 20
619.3664156018094
 40
10
100
AcDbArc
 50
0
 51
90
  0
LINE
  5
29D
100
AcDbEntity
  8
bathroom-washstand
  6
ByLayer
 62
  256
370
   -1
100
AcDbLine
 10
325.2109306896211
 20
619.3664156018094
 11
325.2109306896211
 21
488.1500322911558
  0
ARC
  5
29E
100
AcDbEntity
  8
bathroom-washstand
  6
ByLayer
 62
  256
370
   -1
100
AcDbCircle
 10
315.2109306896211
 20
488.1500322911558
 40
10
100
AcDbArc
 50
270
 51
0
  0
LINE
  5
29F
100
AcDbEntity
  8
bathroom-washstand
  6
ByLayer
 62
  256
370
   -1
100
AcDbLine
 10
315.2109306896211
 20
478.1500322911557
 11
267.2592647715425
 21
478.1500322911557
  0
LINE
  5
2A0
100
AcDbEntity
  8
bathroom-washstand
  6
ByLayer
 62
  256
370
   -1
100
AcDbLine
 10
257.2592647715425
 20
488.1500322911557
 11
257.2592647715425
 21
619.3664156018094
  0
ARC
  5
2A1
100
AcDbEntity
  8
bathroom-washstand
  6
ByLayer
 62
  256
370
   -1
100
AcDbCircle
 10
267.2592647715425
 20
488.1500322911557
 40
10
100
AcDbArc
 50
180
 51
270
  0
LINE
  5
2A2
100
AcDbEntity
  8
bathroom-washstand
  6
ByLayer
 62
  256
370
   -1
100
AcDbLine
 10
124.8970760888627
 20
591.9451460610081
 11
124.8970760888627
 21
536.4353344659581
  0
LINE
  5
2A3
100
AcDbEntity
  8
bathroom-washstand
  6
ByLayer
 62
  256
370
   -1
100
AcDbLine
 10
124.8970760888627
 20
536.4353344659581
 11
140.6886604219373
 21
536.4353344659581
  0
LINE
  5
2A4
100
AcDbEntity
  8
bathroom-washstand
  6
ByLayer
 62
  256
370
   -1
100
AcDbLine
 10
140.6886604219373
 20
536.4353344659581
 11
140.6886604219373
 21
591.9451460610081
  0
LINE
  5
2A5
100
AcDbEntity
  8
bathroom-washstand
  6
ByLayer
 62
  256
370
   -1
100
AcDbLine
 10
140.6886604219373
 20
591.9451460610081
 11
124.8970760888627
 21
591.9451460610081
  0
LINE
  5
2A6
100
AcDbEntity
  8
bathroom-washstand
  6
ByLayer
 62
  256
370
   -1
100
AcDbLine
 10
140.6886604219373
 20
536.4353344659581
 11
140.6886604219373
 21
591.9451460610081
  0
LINE
  5
2A7
100
AcDbEntity
  8
bathroom-washstand
  6
ByLayer
 62
  256
370
   -1
100
AcDbLine
 10
140.6886604219373
 20
591.9451460610081
 11
142.7503619466645
 21
591.9451460610081
  0
ARC
  5
2A8
100
AcDbEntity
  8
bathroom-washstand
  6
ByLayer
 62
  256
370
   -1
100
AcDbCircle
 10
142.7503619466645
 20
561.9451460610081
 40
30
100
AcDbArc
 50
0
 51
90
  0
LINE
  5
2A9
100
AcDbEntity
  8
bathroom-washstand
  6
ByLayer
 62
  256
370
   -1
100
AcDbLine
 10
172.7503619466645
 20
561.9451460610081
 11
172.7503619466645
 21
566.4353344659581
  0
LINE
  5
2AA
100
AcDbEntity
  8
bathroom-washstand
  6
ByLayer
 62
  256
370
   -1
100
AcDbLine
 10
142.7503619466645
 20
536.4353344659581
 11
140.6886604219373
 21
536.4353344659581
  0
ARC
  5
2AB
100
AcDbEntity
  8
bathroom-washstand
  6
ByLayer
 62
  256
370
   -1
100
AcDbCircle
 10
142.7503619466645
 20
566.4353344659581
 40
30
100
AcDbArc
 50
270
 51
0
  0
DIMENSION
  5
2AC
100
AcDbEntity
  8
dimension
  6
ByLayer
 62
  256
370
   -1
100
AcDbDimension
  2
*D30
 10
-288.0831233927689
 20
509.4539328012524
 30
0
 11
-291.2081233927689
 21
565.9539328012524
 31
0
 70
   32
 71
    5
  3
Standard
 53
0
210
0
220
0
230
1
100
AcDbAlignedDimension
 13
-288.0831233927689
 23
622.4539328012524
 33
0
 14
-288.0831233927689
 24
509.4539328012524
 34
0
 50
90
100
AcDbRotatedDimension
  0
LINE
  5
2AD
100
AcDbEntity
  8
hall
  6
ByLayer
 62
  256
370
   -1
100
AcDbLine
 10
-365.7
 20
961.3
 11
-365.7
 21
621
  0
LINE
  5
2AE
100
AcDbEntity
  8
hall
  6
ByLayer
 62
  256
370
   -1
100
AcDbLine
 10
-365.7
 20
508
 11
-365.7
 21
0
  0
DIMENSION
  5
2AF
100
AcDbEntity
  8
dimension
  6
ByLayer
 62
  256
370
   -1
100
AcDbDimension
  2
*D31
 10
-352.7959345507165
 20
621
 30
0
 11
-355.9209345507165
 21
791.15
 31
0
 70
   32
 71
    5
  3
Standard
 53
0
210
0
220
0
230
1
100
AcDbAlignedDimension
 13
-365.7
 23
961.3
 33
0
 14
-365.7
 24
621
 34
0
 50
90
100
AcDbRotatedDimension
  0
DIMENSION
  5
2B0
100
AcDbEntity
  8
dimension
  6
ByLayer
 62
  256
370
   -1
100
AcDbDimension
  2
*D32
 10
-351.362111501206
 20
-1.755884925657975e-15
 30
0
 11
-354.487111501206
 21
254
 31
0
 70
   32
 71
    5
  3
Standard
 53
0
210
0
220
0
230
1
100
AcDbAlignedDimension
 13
-365.7
 23
508
 33
0
 14
-365.7
 24
0
 34
0
 50
90
100
AcDbRotatedDimension
  0
DIMENSION
  5
2B1
100
AcDbEntity
  8
dimension
  6
ByLayer
 62
  256
370
   -1
100
AcDbDimension
  2
*D33
 10
-370.9125523897065
 20
748.6479109270497
 30
0
 11
-374.0375523897065
 21
684.8239554635248
 31
0
 70
   32
 71
    5
  3
Standard
 53
0
210
0
220
0
230
1
100
AcDbAlignedDimension
 13
-365.7
 23
621
 33
0
 14
-365.7
 24
748.6479109270497
 34
0
 50
90
100
AcDbRotatedDimension
  0
LINE
  5
2B2
100
AcDbEntity
  8
door
  6
ByLayer
 62
  256
370
   -1
100
AcDbLine
 10
-351.064
 20
833.0029999999998
 11
-355.406
 21
833.0029999999999
  0
LINE
  5
2B3
100
AcDbEntity
  8
door
  6
ByLayer
 62
  256
370
   -1
100
AcDbLine
 10
-351.064
 20
747.407
 11
-351.064
 21
833.0029999999998
  0
LINE
  5
2B4
100
AcDbEntity
  8
door
  6
ByLayer
 62
  256
370
   -1
100
AcDbLine
 10
-355.406
 20
833.0029999999999
 11
-355.406
 21
747.407
  0
LINE
  5
2B5
100
AcDbEntity
  8
door
  6
ByLayer
 62
  256
370
   -1
100
AcDbLine
 10
-355.406
 20
747.407
 11
-351.064
 21
747.407
  0
LINE
  5
2B6
100
AcDbEntity
  8
door
  6
ByLayer
 62
  256
370
   -1
100
AcDbLine
 10
-355.4061747814412
 20
905.5724523226949
 11
-359.7479605117555
 21
905.5724523226949
  0
LINE
  5
2B7
100
AcDbEntity
  8
door
  6
ByLayer
 62
  256
370
   -1
100
AcDbLine
 10
-355.4061747814411
 20
819.9770000000001
 11
-355.4061747814412
 21
905.5724523226949
  0
LINE
  5
2B8
100
AcDbEntity
  8
door
  6
ByLayer
 62
  256
370
   -1
100
AcDbLine
 10
-359.7479605117555
 20
905.5724523226949
 11
-359.7479605117555
 21
819.9770000000001
  0
LINE
  5
2B9
100
AcDbEntity
  8
door
  6
ByLayer
 62
  256
370
   -1
100
AcDbLine
 10
-359.7479605117555
 20
819.9770000000001
 11
-355.4061747814411
 21
819.9770000000001
  0
ENDSEC
  0
SECTION
  2
OBJECTS
  0
DICTIONARY
  5
C
330
0
100
AcDbDictionary
281
    1
  3
ACAD_GROUP
350
D
  0
DICTIONARY
  5
D
330
C
100
AcDbDictionary
281
    1
  0
ENDSEC
  0
EOF
