999
dxfrw 0.6.3
  0
SECTION
  2
HEADER
  9
$ACADVER
  1
AC1021
  9
$DWGCODEPAGE
  3
ANSI_1252
  9
$INSBASE
 10
0
 20
0
 30
0
  9
$EXTMIN
 10
-34.6696345102282
 20
-77.5
 30
0
  9
$EXTMAX
 10
415.8621144240983
 20
649.8115622482466
 30
0
  9
$LIMMIN
 10
0
 20
0
  9
$LIMMAX
 10
420
 20
297
  9
$ORTHOMODE
 70
    0
  9
$REGENMODE
 70
    1
  9
$FILLMODE
 70
    1
  9
$QTEXTMODE
 70
    0
  9
$MIRRTEXT
 70
    0
  9
$LTSCALE
 40
1
  9
$ATTMODE
 70
    0
  9
$TEXTSIZE
 40
2.5
  9
$TRACEWID
 40
15.68
  9
$TEXTSTYLE
  7
STANDARD
  9
$CLAYER
  8
door
  9
$CELTYPE
  6
BYLAYER
  9
$CECOLOR
 62
  256
  9
$CELTSCALE
 40
1
  9
$DISPSILH
 70
    0
  9
$DIMSCALE
 40
1
  9
$DIMASZ
 40
5
  9
$DIMEXO
 40
0.625
  9
$DIMDLI
 40
3.75
  9
$DIMRND
 40
0
  9
$DIMDLE
 40
0
  9
$DIMEXE
 40
1.25
  9
$DIMTP
 40
0
  9
$DIMTM
 40
0
  9
$DIMTXT
 40
5
  9
$DIMCEN
 40
2.5
  9
$DIMTSZ
 40
0
  9
$DIMTOL
 70
    0
  9
$DIMLIM
 70
    0
  9
$DIMTIH
 70
    0
  9
$DIMTOH
 70
    0
  9
$DIMSE1
 70
    0
  9
$DIMSE2
 70
    0
  9
$DIMTAD
 70
    1
  9
$DIMZIN
 70
    1
  9
$DIMBLK
  1

  9
$DIMASO
 70
    1
  9
$DIMSHO
 70
    1
  9
$DIMPOST
  1

  9
$DIMAPOST
  1

  9
$DIMALT
 70
    0
  9
$DIMALTD
 70
    3
  9
$DIMALTF
 40
0.03937
  9
$DIMLFAC
 40
1
  9
$DIMTOFL
 70
    1
  9
$DIMTVP
 40
0
  9
$DIMTIX
 70
    0
  9
$DIMSOXD
 70
    0
  9
$DIMSAH
 70
    0
  9
$DIMBLK1
  1

  9
$DIMBLK2
  1

  9
$DIMSTYLE
  2
STANDARD
  9
$DIMCLRD
 70
    0
  9
$DIMCLRE
 70
    0
  9
$DIMCLRT
 70
    0
  9
$DIMTFAC
 40
1
  9
$DIMGAP
 40
0.625
  9
$DIMJUST
 70
    0
  9
$DIMSD1
 70
    0
  9
$DIMSD2
 70
    0
  9
$DIMTOLJ
 70
    0
  9
$DIMTZIN
 70
    8
  9
$DIMALTZ
 70
    0
  9
$DIMALTTZ
 70
    0
  9
$DIMUPT
 70
    0
  9
$DIMDEC
 70
    1
  9
$DIMTDEC
 70
    2
  9
$DIMALTU
 70
    2
  9
$DIMALTTD
 70
    3
  9
$DIMTXSTY
  7
standard
  9
$DIMAUNIT
 70
    0
  9
$DIMADEC
 70
    2
  9
$DIMALTRND
 40
0
  9
$DIMAZIN
 70
    0
  9
$DIMDSEP
 70
    0
  9
$DIMATFIT
 70
    3
  9
$DIMFRAC
 70
    0
  9
$DIMLDRBLK
  1
STANDARD
  9
$DIMLUNIT
 70
    2
  9
$DIMLWD
 70
   -2
  9
$DIMLWE
 70
   -2
  9
$DIMTMOVE
 70
    0
  9
$DIMFXL
 40
1
  9
$DIMFXLON
 70
    0
  9
$DIMJOGANG
 40
0.7854
  9
$DIMTFILL
 70
    0
  9
$DIMTFILLCLR
 70
    0
  9
$DIMARCSYM
 70
    0
  9
$DIMLTYPE
  6

  9
$DIMLTEX1
  6

  9
$DIMLTEX2
  6

  9
$LUNITS
 70
    2
  9
$LUPREC
 70
    1
  9
$SKETCHINC
 40
1
  9
$FILLETRAD
 40
0
  9
$AUNITS
 70
    0
  9
$AUPREC
 70
    2
  9
$MENU
  1
.
  9
$ELEVATION
 40
0
  9
$PELEVATION
 40
0
  9
$THICKNESS
 40
0
  9
$LIMCHECK
 70
    0
  9
$CHAMFERA
 40
0
  9
$CHAMFERB
 40
0
  9
$CHAMFERC
 40
0
  9
$CHAMFERD
 40
0
  9
$SKPOLY
 70
    0
  9
$USRTIMER
 70
    1
  9
$ANGBASE
 50
0
  9
$ANGDIR
 70
    0
  9
$PDMODE
 70
   34
  9
$PDSIZE
 40
0
  9
$PLINEWID
 40
0
  9
$SPLFRAME
 70
    0
  9
$SPLINETYPE
 70
    2
  9
$SPLINESEGS
 70
    8
  9
$HANDSEED
  5
20000
  9
$SURFTAB1
 70
    6
  9
$SURFTAB2
 70
    6
  9
$SURFTYPE
 70
    6
  9
$SURFU
 70
    6
  9
$SURFV
 70
    6
  9
$UCSBASE
  2

  9
$UCSNAME
  2

  9
$UCSORG
 10
0
 20
0
 30
0
  9
$UCSXDIR
 10
1
 20
0
 30
0
  9
$UCSYDIR
 10
0
 20
1
 30
0
  9
$UCSORTHOREF
  2

  9
$UCSORTHOVIEW
 70
    0
  9
$UCSORGTOP
 10
0
 20
0
 30
0
  9
$UCSORGBOTTOM
 10
0
 20
0
 30
0
  9
$UCSORGLEFT
 10
0
 20
0
 30
0
  9
$UCSORGRIGHT
 10
0
 20
0
 30
0
  9
$UCSORGFRONT
 10
0
 20
0
 30
0
  9
$UCSORGBACK
 10
0
 20
0
 30
0
  9
$PUCSBASE
  2

  9
$PUCSNAME
  2

  9
$PUCSORG
 10
0
 20
0
 30
0
  9
$PUCSXDIR
 10
1
 20
0
 30
0
  9
$PUCSYDIR
 10
0
 20
1
 30
0
  9
$PUCSORTHOREF
  2

  9
$PUCSORTHOVIEW
 70
    0
  9
$PUCSORGTOP
 10
0
 20
0
 30
0
  9
$PUCSORGBOTTOM
 10
0
 20
0
 30
0
  9
$PUCSORGLEFT
 10
0
 20
0
 30
0
  9
$PUCSORGRIGHT
 10
0
 20
0
 30
0
  9
$PUCSORGFRONT
 10
0
 20
0
 30
0
  9
$PUCSORGBACK
 10
0
 20
0
 30
0
  9
$USERI1
 70
    0
  9
$USERI2
 70
    0
  9
$USERI3
 70
    0
  9
$USERI4
 70
    0
  9
$USERI5
 70
    0
  9
$USERR1
 40
0
  9
$USERR2
 40
0
  9
$USERR3
 40
0
  9
$USERR4
 40
0
  9
$USERR5
 40
0
  9
$WORLDVIEW
 70
    1
  9
$SHADEDGE
 70
    3
  9
$SHADEDIF
 70
   70
  9
$TILEMODE
 70
    1
  9
$MAXACTVP
 70
   64
  9
$PINSBASE
 10
0
 20
0
 30
0
  9
$PLIMCHECK
 70
    0
  9
$PEXTMIN
 10
0
 20
0
 30
0
  9
$PEXTMAX
 10
0
 20
0
 30
0
  9
$GRIDMODE
 70
    1
  9
$SNAPSTYLE
 70
    0
  9
$GRIDUNIT
 10
0
 20
0
  9
$PLIMMIN
 10
0
 20
0
  9
$PLIMMAX
 10
29.7
 20
21
  9
$UNITMODE
 70
    0
  9
$VISRETAIN
 70
    1
  9
$PLINEGEN
 70
    0
  9
$PSLTSCALE
 70
    1
  9
$TREEDEPTH
 70
 3020
  9
$CMLSTYLE
  2
Standard
  9
$CMLJUST
 70
    0
  9
$CMLSCALE
 40
20
  9
$PROXYGRAPHICS
 70
    1
  9
$MEASUREMENT
 70
    1
  9
$CELWEIGHT
370
   -1
  9
$ENDCAPS
280
    0
  9
$JOINSTYLE
280
    0
  9
$LWDISPLAY
290
    0
  9
$INSUNITS
 70
    5
  9
$HYPERLINKBASE
  1

  9
$STYLESHEET
  1

  9
$XEDIT
290
    1
  9
$CEPSNTYPE
380
    0
  9
$PSTYLEMODE
290
    1
  9
$EXTNAMES
290
    1
  9
$PSVPSCALE
 40
1
  9
$OLESTARTUP
290
    0
  9
$SORTENTS
280
  127
  9
$INDEXCTL
280
    0
  9
$HIDETEXT
280
    1
  9
$XCLIPFRAME
290
    0
  9
$HALOGAP
280
    0
  9
$OBSCOLOR
 70
  257
  9
$OBSLTYPE
280
    0
  9
$INTERSECTIONDISPLAY
280
    0
  9
$INTERSECTIONCOLOR
 70
  257
  9
$DIMASSOC
280
    1
  9
$PROJECTNAME
  1

  9
$CAMERADISPLAY
290
    0
  9
$LENSLENGTH
 40
50
  9
$CAMERAHEIGHT
 40
0
  9
$STEPSPERSEC
 40
2
  9
$STEPSIZE
 40
50
  9
$3DDWFPREC
 40
2
  9
$PSOLWIDTH
 40
5
  9
$PSOLHEIGHT
 40
80
  9
$LOFTANG1
 40
1.570796326794897
  9
$LOFTANG2
 40
1.570796326794897
  9
$LOFTMAG1
 40
0
  9
$LOFTMAG2
 40
0
  9
$LOFTPARAM
 70
    7
  9
$LOFTNORMALS
280
    1
  9
$LATITUDE
 40
1
  9
$LONGITUDE
 40
1
  9
$NORTHDIRECTION
 40
0
  9
$TIMEZONE
 70
-8000
  9
$LIGHTGLYPHDISPLAY
280
    1
  9
$TILEMODELIGHTSYNCH
280
    1
  9
$SOLIDHIST
280
    1
  9
$SHOWHIST
280
    1
  9
$DWFFRAME
280
    2
  9
$DGNFRAME
280
    0
  9
$REALWORLDSCALE
290
    1
  9
$INTERFERECOLOR
 62
    1
  9
$CSHADOW
280
    0
  9
$SHADOWPLANELOCATION
 40
0
  0
ENDSEC
  0
SECTION
  2
CLASSES
  0
ENDSEC
  0
SECTION
  2
TABLES
  0
TABLE
  2
VPORT
  5
8
330
0
100
AcDbSymbolTable
 70
    1
  0
VPORT
  5
31
330
2
100
AcDbSymbolTableRecord
100
AcDbViewportTableRecord
  2
*ACTIVE
 70
    0
 10
0
 20
0
 11
1
 21
1
 12
296.2141635338314
 22
371.7268874888844
 13
0
 23
0
 14
10
 24
10
 15
10
 25
10
 16
0
 26
0
 36
1
 17
0
 27
0
 37
0
 40
480.0712305548302
 41
1.656534954407295
 42
50
 43
0
 44
0
 50
0
 51
0
 71
    0
 72
  100
 73
    1
 74
    3
 75
    0
 76
    1
 77
    0
 78
    0
281
    0
 65
    1
110
0
120
0
130
0
111
1
121
0
131
0
112
0
122
1
132
0
 79
    0
146
0
348
10020
 60
    7
 61
    5
292
1
282
    1
141
0
142
0
 63
  250
421
3358443
  0
ENDTAB
  0
TABLE
  2
LTYPE
  5
5
330
0
100
AcDbSymbolTable
 70
    4
  0
LTYPE
  5
14
330
5
100
AcDbSymbolTableRecord
100
AcDbLinetypeTableRecord
  2
ByBlock
 70
    0
  3

 72
   65
 73
    0
 40
0
  0
LTYPE
  5
15
330
5
100
AcDbSymbolTableRecord
100
AcDbLinetypeTableRecord
  2
ByLayer
 70
    0
  3

 72
   65
 73
    0
 40
0
  0
LTYPE
  5
16
330
5
100
AcDbSymbolTableRecord
100
AcDbLinetypeTableRecord
  2
Continuous
 70
    0
  3
Solid line
 72
   65
 73
    0
 40
0
  0
LTYPE
  5
32
330
5
100
AcDbSymbolTableRecord
100
AcDbLinetypeTableRecord
  2
DOT
 70
    0
  3
Dot . . . . . . . . . . . . . . . . . . . . . .
 72
   65
 73
    2
 40
6.35
 49
0
 74
    0
 49
-6.35
 74
    0
  0
LTYPE
  5
33
330
5
100
AcDbSymbolTableRecord
100
AcDbLinetypeTableRecord
  2
DOTTINY
 70
    0
  3
Dot (.15x) .....................................
 72
   65
 73
    2
 40
0.9525
 49
0
 74
    0
 49
-0.9525
 74
    0
  0
LTYPE
  5
34
330
5
100
AcDbSymbolTableRecord
100
AcDbLinetypeTableRecord
  2
DOT2
 70
    0
  3
Dot (.5x) .....................................
 72
   65
 73
    2
 40
3.175
 49
0
 74
    0
 49
-3.175
 74
    0
  0
LTYPE
  5
35
330
5
100
AcDbSymbolTableRecord
100
AcDbLinetypeTableRecord
  2
DOTX2
 70
    0
  3
Dot (2x) .  .  .  .  .  .  .  .  .  .  .  .  .
 72
   65
 73
    2
 40
12.7
 49
0
 74
    0
 49
-12.7
 74
    0
  0
LTYPE
  5
36
330
5
100
AcDbSymbolTableRecord
100
AcDbLinetypeTableRecord
  2
DASHED
 70
    0
  3
Dashed _ _ _ _ _ _ _ _ _ _ _ _ _ _ _ _ _
 72
   65
 73
    2
 40
19.05
 49
12.7
 74
    0
 49
-6.35
 74
    0
  0
LTYPE
  5
37
330
5
100
AcDbSymbolTableRecord
100
AcDbLinetypeTableRecord
  2
DASHEDTINY
 70
    0
  3
Dashed (.15x) _ _ _ _ _ _ _ _ _ _ _ _ _ _ _ _ _
 72
   65
 73
    2
 40
2.8575
 49
1.905
 74
    0
 49
-0.9525
 74
    0
  0
LTYPE
  5
38
330
5
100
AcDbSymbolTableRecord
100
AcDbLinetypeTableRecord
  2
DASHED2
 70
    0
  3
Dashed (.5x) _ _ _ _ _ _ _ _ _ _ _ _ _ _ _ _ _
 72
   65
 73
    2
 40
9.524999999999999
 49
6.35
 74
    0
 49
-3.175
 74
    0
  0
LTYPE
  5
39
330
5
100
AcDbSymbolTableRecord
100
AcDbLinetypeTableRecord
  2
DASHEDX2
 70
    0
  3
Dashed (2x) ____  ____  ____  ____  ____  ___
 72
   65
 73
    2
 40
38.09999999999999
 49
25.4
 74
    0
 49
-12.7
 74
    0
  0
LTYPE
  5
3A
330
5
100
AcDbSymbolTableRecord
100
AcDbLinetypeTableRecord
  2
DASHDOT
 70
    0
  3
Dash dot __ . __ . __ . __ . __ . __ . __ . __
 72
   65
 73
    4
 40
25.4
 49
12.7
 74
    0
 49
-6.35
 74
    0
 49
0
 74
    0
 49
-6.35
 74
    0
  0
LTYPE
  5
3B
330
5
100
AcDbSymbolTableRecord
100
AcDbLinetypeTableRecord
  2
DASHDOTTINY
 70
    0
  3
Dash dot (.15x) _._._._._._._._._._._._._._._.
 72
   65
 73
    4
 40
3.81
 49
1.905
 74
    0
 49
-0.9525
 74
    0
 49
0
 74
    0
 49
-0.9525
 74
    0
  0
LTYPE
  5
3C
330
5
100
AcDbSymbolTableRecord
100
AcDbLinetypeTableRecord
  2
DASHDOT2
 70
    0
  3
Dash dot (.5x) _._._._._._._._._._._._._._._.
 72
   65
 73
    4
 40
12.7
 49
6.35
 74
    0
 49
-3.175
 74
    0
 49
0
 74
    0
 49
-3.175
 74
    0
  0
LTYPE
  5
3D
330
5
100
AcDbSymbolTableRecord
100
AcDbLinetypeTableRecord
  2
DASHDOTX2
 70
    0
  3
Dash dot (2x) ____  .  ____  .  ____  .  ___
 72
   65
 73
    4
 40
50.8
 49
25.4
 74
    0
 49
-12.7
 74
    0
 49
0
 74
    0
 49
-12.7
 74
    0
  0
LTYPE
  5
3E
330
5
100
AcDbSymbolTableRecord
100
AcDbLinetypeTableRecord
  2
DIVIDE
 70
    0
  3
Divide ____ . . ____ . . ____ . . ____ . . ____
 72
   65
 73
    6
 40
31.75
 49
12.7
 74
    0
 49
-6.35
 74
    0
 49
0
 74
    0
 49
-6.35
 74
    0
 49
0
 74
    0
 49
-6.35
 74
    0
  0
LTYPE
  5
3F
330
5
100
AcDbSymbolTableRecord
100
AcDbLinetypeTableRecord
  2
DIVIDETINY
 70
    0
  3
Divide (.15x) __..__..__..__..__..__..__..__.._
 72
   65
 73
    6
 40
4.7625
 49
1.905
 74
    0
 49
-0.9525
 74
    0
 49
0
 74
    0
 49
-0.9525
 74
    0
 49
0
 74
    0
 49
-0.9525
 74
    0
  0
LTYPE
  5
40
330
5
100
AcDbSymbolTableRecord
100
AcDbLinetypeTableRecord
  2
DIVIDE2
 70
    0
  3
Divide (.5x) __..__..__..__..__..__..__..__.._
 72
   65
 73
    6
 40
15.875
 49
6.35
 74
    0
 49
-3.175
 74
    0
 49
0
 74
    0
 49
-3.175
 74
    0
 49
0
 74
    0
 49
-3.175
 74
    0
  0
LTYPE
  5
41
330
5
100
AcDbSymbolTableRecord
100
AcDbLinetypeTableRecord
  2
DIVIDEX2
 70
    0
  3
Divide (2x) ________  .  .  ________  .  .  _
 72
   65
 73
    6
 40
63.5
 49
25.4
 74
    0
 49
-12.7
 74
    0
 49
0
 74
    0
 49
-12.7
 74
    0
 49
0
 74
    0
 49
-12.7
 74
    0
  0
LTYPE
  5
42
330
5
100
AcDbSymbolTableRecord
100
AcDbLinetypeTableRecord
  2
BORDER
 70
    0
  3
Border __ __ . __ __ . __ __ . __ __ . __ __ .
 72
   65
 73
    6
 40
44.45
 49
12.7
 74
    0
 49
-6.35
 74
    0
 49
12.7
 74
    0
 49
-6.35
 74
    0
 49
0
 74
    0
 49
-6.35
 74
    0
  0
LTYPE
  5
43
330
5
100
AcDbSymbolTableRecord
100
AcDbLinetypeTableRecord
  2
BORDERTINY
 70
    0
  3
Border (.15x) __.__.__.__.__.__.__.__.__.__.__.
 72
   65
 73
    6
 40
6.6675
 49
1.905
 74
    0
 49
-0.9525
 74
    0
 49
1.905
 74
    0
 49
-0.9525
 74
    0
 49
0
 74
    0
 49
-0.9525
 74
    0
  0
LTYPE
  5
44
330
5
100
AcDbSymbolTableRecord
100
AcDbLinetypeTableRecord
  2
BORDER2
 70
    0
  3
Border (.5x) __.__.__.__.__.__.__.__.__.__.__.
 72
   65
 73
    6
 40
22.225
 49
6.35
 74
    0
 49
-3.175
 74
    0
 49
6.35
 74
    0
 49
-3.175
 74
    0
 49
0
 74
    0
 49
-3.175
 74
    0
  0
LTYPE
  5
45
330
5
100
AcDbSymbolTableRecord
100
AcDbLinetypeTableRecord
  2
BORDERX2
 70
    0
  3
Border (2x) ____  ____  .  ____  ____  .  ___
 72
   65
 73
    6
 40
88.89999999999999
 49
25.4
 74
    0
 49
-12.7
 74
    0
 49
25.4
 74
    0
 49
-12.7
 74
    0
 49
0
 74
    0
 49
-12.7
 74
    0
  0
LTYPE
  5
46
330
5
100
AcDbSymbolTableRecord
100
AcDbLinetypeTableRecord
  2
CENTER
 70
    0
  3
Center ____ _ ____ _ ____ _ ____ _ ____ _ ____
 72
   65
 73
    4
 40
50.8
 49
31.75
 74
    0
 49
-6.35
 74
    0
 49
6.35
 74
    0
 49
-6.35
 74
    0
  0
LTYPE
  5
47
330
5
100
AcDbSymbolTableRecord
100
AcDbLinetypeTableRecord
  2
CENTERTINY
 70
    0
  3
Center (.15x) ___ _ ___ _ ___ _ ___ _ ___ _ ___
 72
   65
 73
    4
 40
7.619999999999999
 49
4.7625
 74
    0
 49
-0.9525
 74
    0
 49
0.9525
 74
    0
 49
-0.9525
 74
    0
  0
LTYPE
  5
48
330
5
100
AcDbSymbolTableRecord
100
AcDbLinetypeTableRecord
  2
CENTER2
 70
    0
  3
Center (.5x) ___ _ ___ _ ___ _ ___ _ ___ _ ___
 72
   65
 73
    4
 40
28.575
 49
19.05
 74
    0
 49
-3.175
 74
    0
 49
3.175
 74
    0
 49
-3.175
 74
    0
  0
LTYPE
  5
49
330
5
100
AcDbSymbolTableRecord
100
AcDbLinetypeTableRecord
  2
CENTERX2
 70
    0
  3
Center (2x) ________  __  ________  __  _____
 72
   65
 73
    4
 40
101.6
 49
63.5
 74
    0
 49
-12.7
 74
    0
 49
12.7
 74
    0
 49
-12.7
 74
    0
  0
ENDTAB
  0
TABLE
  2
LAYER
  5
2
330
0
100
AcDbSymbolTable
 70
    1
  0
LAYER
  5
10
330
2
100
AcDbSymbolTableRecord
100
AcDbLayerTableRecord
  2
0
 70
    0
 62
    7
  6
CONTINUOUS
370
    0
390
F
  0
LAYER
  5
4A
330
2
100
AcDbSymbolTableRecord
100
AcDbLayerTableRecord
  2
bed
 70
    0
 62
    2
  6
CONTINUOUS
370
    0
390
F
  0
LAYER
  5
4B
330
2
100
AcDbSymbolTableRecord
100
AcDbLayerTableRecord
  2
dimension
 70
    0
 62
    1
  6
CONTINUOUS
370
    0
390
F
  0
LAYER
  5
4C
330
2
100
AcDbSymbolTableRecord
100
AcDbLayerTableRecord
  2
door
 70
    0
 62
    7
  6
CONTINUOUS
370
    0
390
F
  0
LAYER
  5
4D
330
2
100
AcDbSymbolTableRecord
100
AcDbLayerTableRecord
  2
sockets
 70
    0
 62
    7
  6
CONTINUOUS
370
    0
390
F
  0
LAYER
  5
4E
330
2
100
AcDbSymbolTableRecord
100
AcDbLayerTableRecord
  2
wall
 70
    0
 62
    7
  6
BORDERTINY
290
0
370
  200
390
F
  0
LAYER
  5
4F
330
2
100
AcDbSymbolTableRecord
100
AcDbLayerTableRecord
  2
windows
 70
    0
 62
    7
  6
CONTINUOUS
370
    0
390
F
  0
ENDTAB
  0
TABLE
  2
STYLE
  5
3
330
0
100
AcDbSymbolTable
 70
    3
  0
STYLE
  5
50
330
2
100
AcDbSymbolTableRecord
100
AcDbTextStyleTableRecord
  2
Standard
 70
    0
 40
0
 41
1
 50
0
 71
    0
 42
1
  3
txt
  4

  0
ENDTAB
  0
TABLE
  2
VIEW
  5
6
330
0
100
AcDbSymbolTable
 70
    0
  0
ENDTAB
  0
TABLE
  2
UCS
  5
7
330
0
100
AcDbSymbolTable
 70
    0
  0
ENDTAB
  0
TABLE
  2
APPID
  5
9
330
0
100
AcDbSymbolTable
 70
    1
  0
APPID
  5
12
330
9
100
AcDbSymbolTableRecord
100
AcDbRegAppTableRecord
  2
ACAD
 70
    0
  0
APPID
  5
51
330
9
100
AcDbSymbolTableRecord
100
AcDbRegAppTableRecord
  2
LibreCad
 70
    0
  0
ENDTAB
  0
TABLE
  2
DIMSTYLE
  5
A
330
0
100
AcDbSymbolTable
 70
    1
100
AcDbDimStyleTable
 71
    1
  0
DIMSTYLE
105
52
330
A
100
AcDbSymbolTableRecord
100
AcDbDimStyleTableRecord
  2
Standard
 70
    0
 40
1
 41
5
 42
0.625
 43
0.38
 44
1.25
 45
0
 46
0
 47
0
 48
0
 49
1
140
5
141
0.09
142
0
143
25.4
144
1
145
0
146
1
147
0.625
148
0
 71
    0
 72
    0
 73
    0
 74
    1
 75
    0
 76
    0
 77
    0
 78
    1
 79
    0
170
    0
171
    2
172
    0
173
    0
174
    0
175
    0
176
    0
177
    0
178
    0
179
    2
271
    1
272
    4
273
    2
274
    2
275
    0
276
    0
277
    2
278
    0
279
    0
280
    0
281
    0
282
    0
283
    1
284
    0
285
    0
286
    0
288
    0
289
    3
340
standard
341

371
   -2
372
   -2
  0
ENDTAB
  0
TABLE
  2
BLOCK_RECORD
  5
1
330
0
100
AcDbSymbolTable
 70
    2
  0
BLOCK_RECORD
  5
1F
330
1
100
AcDbSymbolTableRecord
100
AcDbBlockTableRecord
  2
*Model_Space
 70
    0
280
    1
281
    0
  0
BLOCK_RECORD
  5
1E
330
1
100
AcDbSymbolTableRecord
100
AcDbBlockTableRecord
  2
*Paper_Space
 70
    0
280
    1
281
    0
  0
BLOCK_RECORD
  5
53
330
1
100
AcDbSymbolTableRecord
100
AcDbBlockTableRecord
  2
*D4
 70
    0
280
    1
281
    0
  0
BLOCK_RECORD
  5
56
330
1
100
AcDbSymbolTableRecord
100
AcDbBlockTableRecord
  2
*D8
 70
    0
280
    1
281
    0
  0
BLOCK_RECORD
  5
59
330
1
100
AcDbSymbolTableRecord
100
AcDbBlockTableRecord
  2
*D3
 70
    0
280
    1
281
    0
  0
BLOCK_RECORD
  5
5C
330
1
100
AcDbSymbolTableRecord
100
AcDbBlockTableRecord
  2
*D11
 70
    0
280
    1
281
    0
  0
BLOCK_RECORD
  5
5F
330
1
100
AcDbSymbolTableRecord
100
AcDbBlockTableRecord
  2
*D7
 70
    0
280
    1
281
    0
  0
BLOCK_RECORD
  5
62
330
1
100
AcDbSymbolTableRecord
100
AcDbBlockTableRecord
  2
*D9
 70
    0
280
    1
281
    0
  0
BLOCK_RECORD
  5
65
330
1
100
AcDbSymbolTableRecord
100
AcDbBlockTableRecord
  2
*D6
 70
    0
280
    1
281
    0
  0
BLOCK_RECORD
  5
68
330
1
100
AcDbSymbolTableRecord
100
AcDbBlockTableRecord
  2
*D5
 70
    0
280
    1
281
    0
  0
BLOCK_RECORD
  5
6B
330
1
100
AcDbSymbolTableRecord
100
AcDbBlockTableRecord
  2
*D1
 70
    0
280
    1
281
    0
  0
BLOCK_RECORD
  5
6E
330
1
100
AcDbSymbolTableRecord
100
AcDbBlockTableRecord
  2
*D2
 70
    0
280
    1
281
    0
  0
BLOCK_RECORD
  5
71
330
1
100
AcDbSymbolTableRecord
100
AcDbBlockTableRecord
  2
*D10
 70
    0
280
    1
281
    0
  0
BLOCK_RECORD
  5
74
330
1
100
AcDbSymbolTableRecord
100
AcDbBlockTableRecord
  2
*D12
 70
    0
280
    1
281
    0
  0
BLOCK_RECORD
  5
77
330
1
100
AcDbSymbolTableRecord
100
AcDbBlockTableRecord
  2
wall
 70
    0
280
    1
281
    0
  0
BLOCK_RECORD
  5
7A
330
1
100
AcDbSymbolTableRecord
100
AcDbBlockTableRecord
  2
d3
 70
    0
280
    1
281
    0
  0
BLOCK_RECORD
  5
7D
330
1
100
AcDbSymbolTableRecord
100
AcDbBlockTableRecord
  2
d3-0
 70
    0
280
    1
281
    0
  0
BLOCK_RECORD
  5
80
330
1
100
AcDbSymbolTableRecord
100
AcDbBlockTableRecord
  2
d3-1
 70
    0
280
    1
281
    0
  0
BLOCK_RECORD
  5
83
330
1
100
AcDbSymbolTableRecord
100
AcDbBlockTableRecord
  2
bed
 70
    0
280
    1
281
    0
  0
BLOCK_RECORD
  5
86
330
1
100
AcDbSymbolTableRecord
100
AcDbBlockTableRecord
  2
bathroom1
 70
    0
280
    1
281
    0
  0
ENDTAB
  0
ENDSEC
  0
SECTION
  2
BLOCKS
  0
BLOCK
  5
20
330
1F
100
AcDbEntity
  8
0
100
AcDbBlockBegin
  2
*Model_Space
 70
    0
 10
0
 20
0
 30
0
  3
*Model_Space
  1

  0
ENDBLK
  5
21
330
1F
100
AcDbEntity
  8
0
100
AcDbBlockEnd
  0
BLOCK
  5
1C
330
1B
100
AcDbEntity
  8
0
100
AcDbBlockBegin
  2
*Paper_Space
 70
    0
 10
0
 20
0
 30
0
  3
*Paper_Space
  1

  0
ENDBLK
  5
1D
330
1F
100
AcDbEntity
  8
0
100
AcDbBlockEnd
  0
BLOCK
  5
54
330
53
100
AcDbEntity
  8
0
100
AcDbBlockBegin
  2
*D4
 70
    1
 10
0
 20
0
  3
*D4
  1

  0
LINE
  5
89
100
AcDbEntity
  8
dimension
  6
ByBlock
 62
    0
370
   -2
100
AcDbLine
 10
-0.6249999999999893
 20
477.6709972605304
 11
-30.29463451022819
 21
477.6709972605304
  0
LINE
  5
8A
100
AcDbEntity
  8
dimension
  6
ByBlock
 62
    0
370
   -2
100
AcDbLine
 10
-0.6250000000000053
 20
-0.3583428336538076
 11
-30.29463451022821
 21
-0.358342833653804
  0
LINE
  5
8B
100
AcDbEntity
  8
dimension
  6
ByBlock
 62
    0
370
   -2
100
AcDbLine
 10
-29.04463451022819
 20
477.6709972605304
 11
-29.04463451022821
 21
-0.3583428336538041
  0
SOLID
  5
8C
100
AcDbEntity
  8
dimension
  6
ByBlock
 62
    0
370
   -2
100
AcDbTrace
 10
-29.04463451022819
 20
477.6709972605304
 30
0
 11
-28.21206519468251
 21
472.6709972605304
 31
0
 12
-29.87720382577387
 22
472.6709972605304
 32
0
 13
-29.87720382577387
 23
472.6709972605304
 33
0
  0
SOLID
  5
8D
100
AcDbEntity
  8
dimension
  6
ByBlock
 62
    0
370
   -2
100
AcDbTrace
 10
-29.04463451022821
 20
-0.3583428336538041
 30
0
 11
-29.87720382577389
 21
4.641657166346196
 31
0
 12
-28.21206519468253
 22
4.641657166346196
 32
0
 13
-28.21206519468253
 23
4.641657166346196
 33
0
  0
MTEXT
  5
8E
100
AcDbEntity
  8
dimension
  6
CONTINUOUS
 62
    0
370
   -2
100
AcDbMText
 10
-32.1696345102282
 20
238.6563272134383
 30
0
 40
5
 41
16.11111111111111
 71
    5
 72
    1
  1
478.0
  7
standard
210
0
220
0
230
1
 50
90
 73
    2
 44
1
  0
ENDBLK
  5
55
330
53
100
AcDbEntity
  8
0
100
AcDbBlockEnd
  0
BLOCK
  5
57
330
56
100
AcDbEntity
  8
0
100
AcDbBlockBegin
  2
*D8
 70
    1
 10
0
 20
0
  3
*D8
  1

  0
LINE
  5
8F
100
AcDbEntity
  8
dimension
  6
ByBlock
 62
    0
370
   -2
100
AcDbLine
 10
-1.378206027474025
 20
390.5373844773495
 11
-18.61417627759211
 21
390.5389796783564
  0
LINE
  5
90
100
AcDbEntity
  8
dimension
  6
ByBlock
 62
    0
370
   -2
100
AcDbLine
 10
-1.396466208895677
 20
193.2381460906956
 11
-18.63243645901376
 21
193.2397412917025
  0
LINE
  5
91
100
AcDbEntity
  8
dimension
  6
ByBlock
 62
    0
370
   -2
100
AcDbLine
 10
-17.36417628294563
 20
390.5388639899895
 11
-17.38243646436728
 21
193.2396256033356
  0
SOLID
  5
92
100
AcDbEntity
  8
dimension
  6
ByBlock
 62
    0
370
   -2
100
AcDbTrace
 10
-17.36417628294563
 20
390.5388639899895
 30
0
 11
-16.53206972443329
 21
385.5387869565361
 31
0
 12
-18.19720834839317
 22
385.5389410662711
 32
0
 13
-18.19720834839317
 23
385.5389410662711
 33
0
  0
SOLID
  5
93
100
AcDbEntity
  8
dimension
  6
ByBlock
 62
    0
370
   -2
100
AcDbTrace
 10
-17.38243646436728
 20
193.2396256033356
 30
0
 11
-18.21454302287962
 21
198.2397026367891
 31
0
 12
-16.54940439891974
 22
198.239548527054
 32
0
 13
-16.54940439891974
 23
198.239548527054
 33
0
  0
MTEXT
  5
94
100
AcDbEntity
  8
dimension
  6
CONTINUOUS
 62
    0
370
   -2
100
AcDbMText
 10
-20.49830636027266
 20
291.8895340175799
 30
0
 40
5
 41
14.44444444444476
 71
    5
 72
    1
  1
197.3
  7
standard
210
0
220
0
230
1
 50
89.99469723586279
 73
    2
 44
1
  0
ENDBLK
  5
58
330
56
100
AcDbEntity
  8
0
100
AcDbBlockEnd
  0
BLOCK
  5
5A
330
59
100
AcDbEntity
  8
0
100
AcDbBlockBegin
  2
*D3
 70
    1
 10
0
 20
0
  3
*D3
  1

  0
LINE
  5
95
100
AcDbEntity
  8
dimension
  6
ByBlock
 62
    0
370
   -2
100
AcDbLine
 10
-0.625
 20
477.3126544268766
 11
-18.09211318172911
 21
477.3126544268766
  0
LINE
  5
96
100
AcDbEntity
  8
dimension
  6
ByBlock
 62
    0
370
   -2
100
AcDbLine
 10
-0.6250000000000209
 20
390.9520315163081
 11
-18.09211318172913
 21
390.9520315163081
  0
LINE
  5
97
100
AcDbEntity
  8
dimension
  6
ByBlock
 62
    0
370
   -2
100
AcDbLine
 10
-16.84211318172911
 20
477.3126544268766
 11
-16.84211318172913
 21
390.9520315163081
  0
SOLID
  5
98
100
AcDbEntity
  8
dimension
  6
ByBlock
 62
    0
370
   -2
100
AcDbTrace
 10
-16.84211318172911
 20
477.3126544268766
 30
0
 11
-16.00954386618343
 21
472.3126544268766
 31
0
 12
-17.67468249727479
 22
472.3126544268766
 32
0
 13
-17.67468249727479
 23
472.3126544268766
 33
0
  0
SOLID
  5
99
100
AcDbEntity
  8
dimension
  6
ByBlock
 62
    0
370
   -2
100
AcDbTrace
 10
-16.84211318172913
 20
390.9520315163081
 30
0
 11
-17.67468249727481
 21
395.9520315163081
 31
0
 12
-16.00954386618345
 22
395.9520315163081
 32
0
 13
-16.00954386618345
 23
395.9520315163081
 33
0
  0
MTEXT
  5
9A
100
AcDbEntity
  8
dimension
  6
CONTINUOUS
 62
    0
370
   -2
100
AcDbMText
 10
-19.96711318172912
 20
434.1323429715924
 30
0
 40
5
 41
12.22222222222253
 71
    5
 72
    1
  1
86.4
  7
standard
210
0
220
0
230
1
 50
90
 73
    2
 44
1
  0
ENDBLK
  5
5B
330
59
100
AcDbEntity
  8
0
100
AcDbBlockEnd
  0
BLOCK
  5
5D
330
5C
100
AcDbEntity
  8
0
100
AcDbBlockBegin
  2
*D11
 70
    1
 10
0
 20
0
  3
*D11
  1

  0
LINE
  5
9B
100
AcDbEntity
  8
dimension
  6
ByBlock
 62
    0
370
   -2
100
AcDbLine
 10
327.9762557881127
 20
441.4631325196719
 11
410.8609665714562
 21
441.6902139190783
  0
LINE
  5
9C
100
AcDbEntity
  8
dimension
  6
ByBlock
 62
    0
370
   -2
100
AcDbLine
 10
329.1859665319143
 20
-0.0812889679314055
 11
412.0706773152579
 21
0.1457924314749676
  0
LINE
  5
9D
100
AcDbEntity
  8
dimension
  6
ByBlock
 62
    0
370
   -2
100
AcDbLine
 10
409.6109712627414
 20
441.6867892743969
 11
410.8206820065431
 21
0.1423677867935581
  0
SOLID
  5
9E
100
AcDbEntity
  8
dimension
  6
ByBlock
 62
    0
370
   -2
100
AcDbTrace
 10
409.6109712627414
 20
441.6867892743969
 30
0
 11
410.4572360323566
 21
436.6890890428007
 31
0
 12
408.7921036505775
 22
436.6845270362753
 32
0
 13
408.7921036505775
 23
436.6845270362753
 33
0
  0
SOLID
  5
9F
100
AcDbEntity
  8
dimension
  6
ByBlock
 62
    0
370
   -2
100
AcDbTrace
 10
410.8206820065431
 20
0.1423677867935581
 30
0
 11
409.9744172369279
 21
5.140068018389724
 31
0
 12
411.639549618707
 22
5.144630024915147
 32
0
 13
411.639549618707
 23
5.144630024915147
 33
0
  0
MTEXT
  5
A0
100
AcDbEntity
  8
dimension
  6
CONTINUOUS
 62
    0
370
   -2
100
AcDbMText
 10
413.340814906429
 20
220.9231401422988
 30
0
 40
5
 41
15.55555555555587
 71
    5
 72
    1
  1
441.5
  7
standard
210
0
220
0
230
1
 50
270.1569743456378
 73
    2
 44
1
  0
ENDBLK
  5
5E
330
5C
100
AcDbEntity
  8
0
100
AcDbBlockEnd
  0
BLOCK
  5
60
330
5F
100
AcDbEntity
  8
0
100
AcDbBlockBegin
  2
*D7
 70
    1
 10
0
 20
0
  3
*D7
  1

  0
LINE
  5
A1
100
AcDbEntity
  8
dimension
  6
ByBlock
 62
    0
370
   -2
100
AcDbLine
 10
329.0227091551728
 20
51.60685944426941
 11
370.8042869433432
 21
52.42569350310683
  0
LINE
  5
A2
100
AcDbEntity
  8
dimension
  6
ByBlock
 62
    0
370
   -2
100
AcDbLine
 10
330.0428053385691
 20
-0.4442583347081593
 11
371.8243831267395
 21
0.3745757241292595
  0
LINE
  5
A3
100
AcDbEntity
  8
dimension
  6
ByBlock
 62
    0
370
   -2
100
AcDbLine
 10
369.5545269244552
 20
52.40120074522135
 11
370.5746231078514
 21
0.3500829662437829
  0
SOLID
  5
A4
100
AcDbEntity
  8
dimension
  6
ByBlock
 62
    0
370
   -2
100
AcDbTrace
 10
369.5545269244552
 20
52.40120074522135
 30
0
 11
370.4849074308147
 21
47.41847420460382
 31
0
 12
368.8200884811795
 22
47.38584713473416
 32
0
 13
368.8200884811795
 23
47.38584713473416
 33
0
  0
SOLID
  5
A5
100
AcDbEntity
  8
dimension
  6
ByBlock
 62
    0
370
   -2
100
AcDbTrace
 10
370.5746231078514
 20
0.3500829662437829
 30
0
 11
369.6442426014918
 21
5.332809506861321
 31
0
 12
371.3090615511271
 22
5.36543657673098
 32
0
 13
371.3090615511271
 23
5.36543657673098
 33
0
  0
MTEXT
  5
A6
100
AcDbEntity
  8
dimension
  6
CONTINUOUS
 62
    0
370
   -2
100
AcDbMText
 10
373.1889750633736
 20
26.43687375044622
 30
0
 40
5
 41
10.55555555555587
 71
    5
 72
    1
  1
52.1
  7
standard
210
0
220
0
230
1
 50
271.1227371748226
 73
    2
 44
1
  0
ENDBLK
  5
61
330
5F
100
AcDbEntity
  8
0
100
AcDbBlockEnd
  0
BLOCK
  5
63
330
62
100
AcDbEntity
  8
0
100
AcDbBlockBegin
  2
*D9
 70
    1
 10
0
 20
0
  3
*D9
  1

  0
LINE
  5
A7
100
AcDbEntity
  8
dimension
  6
ByBlock
 62
    0
370
   -2
100
AcDbLine
 10
0.726873045387371
 20
-2.096045254722288
 11
0.3952469950650796
 21
-25.97312087792476
  0
LINE
  5
A8
100
AcDbEntity
  8
dimension
  6
ByBlock
 62
    0
370
   -2
100
AcDbLine
 10
53.68667204036224
 20
-2.831598018541402
 11
53.35504599003994
 21
-26.70867364174388
  0
LINE
  5
A9
100
AcDbEntity
  8
dimension
  6
ByBlock
 62
    0
370
   -2
100
AcDbLine
 10
0.4126064319285286
 20
-24.72324142375657
 11
53.37240542690339
 21
-25.45879418757568
  0
SOLID
  5
AA
100
AcDbEntity
  8
dimension
  6
ByBlock
 62
    0
370
   -2
100
AcDbTrace
 10
0.4126064319285286
 20
-24.72324142375657
 30
0
 11
5.423686596175434
 21
-23.96019014587322
 31
0
 12
5.40056190102718
 22
-25.6251681965475
 32
0
 13
5.40056190102718
 23
-25.6251681965475
 33
0
  0
SOLID
  5
AB
100
AcDbEntity
  8
dimension
  6
ByBlock
 62
    0
370
   -2
100
AcDbTrace
 10
53.37240542690339
 20
-25.45879418757568
 30
0
 11
48.36132526265649
 21
-26.22184546545903
 31
0
 12
48.38444995780474
 22
-24.55686741478475
 32
0
 13
48.38444995780474
 23
-24.55686741478475
 33
0
  0
MTEXT
  5
AC
100
AcDbEntity
  8
dimension
  6
CONTINUOUS
 62
    0
370
   -2
100
AcDbMText
 10
26.93590452157458
 20
-21.96631917024564
 30
0
 40
5
 41
11.66666666666729
 71
    5
 72
    1
  1
53.0
  7
standard
210
0
220
0
230
1
 50
359.2042764472607
 73
    2
 44
1
  0
ENDBLK
  5
64
330
62
100
AcDbEntity
  8
0
100
AcDbBlockEnd
  0
BLOCK
  5
66
330
65
100
AcDbEntity
  8
0
100
AcDbBlockBegin
  2
*D6
 70
    1
 10
0
 20
0
  3
*D6
  1

  0
LINE
  5
AD
100
AcDbEntity
  8
dimension
  6
ByBlock
 62
    0
370
   -2
100
AcDbLine
 10
329.3994309903356
 20
295.6345764144418
 11
370.1406328820921
 21
295.7134241685319
  0
LINE
  5
AE
100
AcDbEntity
  8
dimension
  6
ByBlock
 62
    0
370
   -2
100
AcDbLine
 10
329.4923552082262
 20
247.6199643889901
 11
370.2335570999827
 21
247.6988121430802
  0
LINE
  5
AF
100
AcDbEntity
  8
dimension
  6
ByBlock
 62
    0
370
   -2
100
AcDbLine
 10
368.8906352230294
 20
295.7110050079903
 11
368.98355944092
 21
247.6963929825386
  0
SOLID
  5
B0
100
AcDbEntity
  8
dimension
  6
ByBlock
 62
    0
370
   -2
100
AcDbTrace
 10
368.8906352230294
 20
295.7110050079903
 30
0
 11
369.7328796215475
 21
290.7126256668084
 31
0
 12
368.0677441088442
 22
290.7094030766703
 32
0
 13
368.0677441088442
 23
290.7094030766703
 33
0
  0
SOLID
  5
B1
100
AcDbEntity
  8
dimension
  6
ByBlock
 62
    0
370
   -2
100
AcDbTrace
 10
368.98355944092
 20
247.6963929825386
 30
0
 11
368.1413150424019
 21
252.6947723237204
 31
0
 12
369.8064505551051
 22
252.6979949138585
 32
0
 13
369.8064505551051
 23
252.6979949138585
 33
0
  0
MTEXT
  5
B2
100
AcDbEntity
  8
dimension
  6
CONTINUOUS
 62
    0
370
   -2
100
AcDbMText
 10
372.0620914796315
 20
271.7097468966186
 30
0
 40
5
 41
12.22222222222222
 71
    5
 72
    1
  1
48.0
  7
standard
210
0
220
0
230
1
 50
270.1108862204205
 73
    2
 44
1
  0
ENDBLK
  5
67
330
65
100
AcDbEntity
  8
0
100
AcDbBlockEnd
  0
BLOCK
  5
69
330
68
100
AcDbEntity
  8
0
100
AcDbBlockBegin
  2
*D5
 70
    1
 10
0
 20
0
  3
*D5
  1

  0
LINE
  5
B3
100
AcDbEntity
  8
dimension
  6
ByBlock
 62
    0
370
   -2
100
AcDbLine
 10
329.0228279810952
 20
247.8059904810563
 11
370.5697475465631
 21
247.8861968894839
  0
LINE
  5
B4
100
AcDbEntity
  8
dimension
  6
ByBlock
 62
    0
370
   -2
100
AcDbLine
 10
329.3994309961707
 20
52.72562867201105
 11
370.9463505616386
 21
52.80583508043862
  0
LINE
  5
B5
100
AcDbEntity
  8
dimension
  6
ByBlock
 62
    0
370
   -2
100
AcDbLine
 10
369.3197498758301
 20
247.8837837665674
 11
369.6963528909056
 21
52.80342195752215
  0
SOLID
  5
B6
100
AcDbEntity
  8
dimension
  6
ByBlock
 62
    0
370
   -2
100
AcDbTrace
 10
369.3197498758301
 20
247.8837837665674
 30
0
 11
370.1619701316206
 21
242.8854003573116
 31
0
 12
368.4968346033713
 22
242.8821858099597
 32
0
 13
368.4968346033713
 23
242.8821858099597
 33
0
  0
SOLID
  5
B7
100
AcDbEntity
  8
dimension
  6
ByBlock
 62
    0
370
   -2
100
AcDbTrace
 10
369.6963528909056
 20
52.80342195752215
 30
0
 11
368.854132635115
 21
57.80180536677801
 31
0
 12
370.5192681633644
 22
57.80501991412984
 32
0
 13
370.5192681633644
 23
57.80501991412984
 33
0
  0
MTEXT
  5
B8
100
AcDbEntity
  8
dimension
  6
CONTINUOUS
 62
    0
370
   -2
100
AcDbMText
 10
372.6330455602003
 20
150.349635669336
 30
0
 40
5
 41
13.33333333333364
 71
    5
 72
    1
  1
195.1
  7
standard
210
0
220
0
230
1
 50
270.1106094755519
 73
    2
 44
1
  0
ENDBLK
  5
6A
330
68
100
AcDbEntity
  8
0
100
AcDbBlockEnd
  0
BLOCK
  5
6C
330
6B
100
AcDbEntity
  8
0
100
AcDbBlockBegin
  2
*D1
 70
    1
 10
0
 20
0
  3
*D1
  1

  0
LINE
  5
B9
100
AcDbEntity
  8
dimension
  6
ByBlock
 62
    0
370
   -2
100
AcDbLine
 10
329.8152936666376
 20
441.1532644153673
 11
329.8106036358948
 21
453.1901711215388
  0
LINE
  5
BA
100
AcDbEntity
  8
dimension
  6
ByBlock
 62
    0
370
   -2
100
AcDbLine
 10
199.4672383939103
 20
441.1024759194997
 11
199.4625483631675
 21
453.1393826256712
  0
LINE
  5
BB
100
AcDbEntity
  8
dimension
  6
ByBlock
 62
    0
370
   -2
100
AcDbLine
 10
329.8110906827854
 20
451.9401712164246
 11
199.463035410058
 21
451.8893827205571
  0
SOLID
  5
BC
100
AcDbEntity
  8
dimension
  6
ByBlock
 62
    0
370
   -2
100
AcDbTrace
 10
329.8110906827854
 20
451.9401712164246
 30
0
 11
324.8114154625659
 21
451.1056537765159
 31
0
 12
324.8107666620918
 22
452.7707922812087
 32
0
 13
324.8107666620918
 23
452.7707922812087
 33
0
  0
SOLID
  5
BD
100
AcDbEntity
  8
dimension
  6
ByBlock
 62
    0
370
   -2
100
AcDbTrace
 10
199.463035410058
 20
451.8893827205571
 30
0
 11
204.4627106302775
 21
452.7239001604659
 31
0
 12
204.4633594307516
 22
451.058761655773
 32
0
 13
204.4633594307516
 23
451.058761655773
 33
0
  0
MTEXT
  5
BE
100
AcDbEntity
  8
dimension
  6
CONTINUOUS
 62
    0
370
   -2
100
AcDbMText
 10
264.6358454291952
 20
455.0397767312762
 30
0
 40
5
 41
14.44444444444506
 71
    5
 72
    1
  1
130.3
  7
standard
210
0
220
0
230
1
 50
0.02232458556955849
 73
    2
 44
1
  0
ENDBLK
  5
6D
330
6B
100
AcDbEntity
  8
0
100
AcDbBlockEnd
  0
BLOCK
  5
6F
330
6E
100
AcDbEntity
  8
0
100
AcDbBlockBegin
  2
*D2
 70
    1
 10
0
 20
0
  3
*D2
  1

  0
LINE
  5
BF
100
AcDbEntity
  8
dimension
  6
ByBlock
 62
    0
370
   -2
100
AcDbLine
 10
-0.625
 20
137.31227292562
 11
-17.10592066115705
 21
137.31227292562
  0
LINE
  5
C0
100
AcDbEntity
  8
dimension
  6
ByBlock
 62
    0
370
   -2
100
AcDbLine
 10
-0.625
 20
3.540961811029987e-16
 11
-17.10592066115705
 21
9.69142588858655e-15
  0
LINE
  5
C1
100
AcDbEntity
  8
dimension
  6
ByBlock
 62
    0
370
   -2
100
AcDbLine
 10
-15.85592066115705
 20
137.31227292562
 11
-15.85592066115705
 21
8.983233526380553e-15
  0
SOLID
  5
C2
100
AcDbEntity
  8
dimension
  6
ByBlock
 62
    0
370
   -2
100
AcDbTrace
 10
-15.85592066115705
 20
137.31227292562
 30
0
 11
-15.02335134561137
 21
132.31227292562
 31
0
 12
-16.68848997670273
 22
132.31227292562
 32
0
 13
-16.68848997670273
 23
132.31227292562
 33
0
  0
SOLID
  5
C3
100
AcDbEntity
  8
dimension
  6
ByBlock
 62
    0
370
   -2
100
AcDbTrace
 10
-15.85592066115705
 20
8.983233526380553e-15
 30
0
 11
-16.68848997670273
 21
5.000000000000009
 31
0
 12
-15.02335134561137
 22
5.000000000000009
 32
0
 13
-15.02335134561137
 23
5.000000000000009
 33
0
  0
MTEXT
  5
C4
100
AcDbEntity
  8
dimension
  6
CONTINUOUS
 62
    0
370
   -2
100
AcDbMText
 10
-18.98092066115705
 20
68.65613646281
 30
0
 40
5
 41
14.44444444444506
 71
    5
 72
    1
  1
137.3
  7
standard
210
0
220
0
230
1
 50
90
 73
    2
 44
1
  0
ENDBLK
  5
70
330
6E
100
AcDbEntity
  8
0
100
AcDbBlockEnd
  0
BLOCK
  5
72
330
71
100
AcDbEntity
  8
0
100
AcDbBlockBegin
  2
*D10
 70
    1
 10
0
 20
0
  3
*D10
  1

  0
LINE
  5
C5
100
AcDbEntity
  8
dimension
  6
ByBlock
 62
    0
370
   -2
100
AcDbLine
 10
277.2044398749223
 20
-0.625000000000028
 11
277.2044398749223
 21
-21.3999443553869
  0
LINE
  5
C6
100
AcDbEntity
  8
dimension
  6
ByBlock
 62
    0
370
   -2
100
AcDbLine
 10
330.0052855653836
 20
-0.6250000000000262
 11
330.0052855653836
 21
-21.3999443553869
  0
LINE
  5
C7
100
AcDbEntity
  8
dimension
  6
ByBlock
 62
    0
370
   -2
100
AcDbLine
 10
277.2044398749223
 20
-20.1499443553869
 11
330.0052855653836
 21
-20.1499443553869
  0
SOLID
  5
C8
100
AcDbEntity
  8
dimension
  6
ByBlock
 62
    0
370
   -2
100
AcDbTrace
 10
277.2044398749223
 20
-20.1499443553869
 30
0
 11
282.2044398749223
 21
-19.31737503984122
 31
0
 12
282.2044398749223
 22
-20.98251367093259
 32
0
 13
282.2044398749223
 23
-20.98251367093259
 33
0
  0
SOLID
  5
C9
100
AcDbEntity
  8
dimension
  6
ByBlock
 62
    0
370
   -2
100
AcDbTrace
 10
330.0052855653836
 20
-20.1499443553869
 30
0
 11
325.0052855653836
 21
-20.98251367093258
 31
0
 12
325.0052855653836
 22
-19.31737503984122
 32
0
 13
325.0052855653836
 23
-19.31737503984122
 33
0
  0
MTEXT
  5
CA
100
AcDbEntity
  8
dimension
  6
CONTINUOUS
 62
    0
370
   -2
100
AcDbMText
 10
303.6048627201529
 20
-17.02494435538691
 30
0
 40
5
 41
11.66666666666698
 71
    5
 72
    1
  1
52.8
  7
standard
210
0
220
0
230
1
 50
0
 73
    2
 44
1
  0
ENDBLK
  5
73
330
71
100
AcDbEntity
  8
0
100
AcDbBlockEnd
  0
BLOCK
  5
75
330
74
100
AcDbEntity
  8
0
100
AcDbBlockBegin
  2
*D12
 70
    1
 10
0
 20
0
  3
*D12
  1

  0
LINE
  5
CB
100
AcDbEntity
  8
dimension
  6
ByBlock
 62
    0
370
   -2
100
AcDbLine
 10
328.9279009544131
 20
441.7540188105269
 11
370.0860389844455
 21
441.8713508529785
  0
LINE
  5
CC
100
AcDbEntity
  8
dimension
  6
ByBlock
 62
    0
370
   -2
100
AcDbLine
 10
329.3424805276296
 20
296.3263679970834
 11
370.5006185576621
 21
296.443700039535
  0
LINE
  5
CD
100
AcDbEntity
  8
dimension
  6
ByBlock
 62
    0
370
   -2
100
AcDbLine
 10
368.8360440636908
 20
441.8677874153663
 11
369.2506236369074
 21
296.4401366019228
  0
SOLID
  5
CE
100
AcDbEntity
  8
dimension
  6
ByBlock
 62
    0
370
   -2
100
AcDbTrace
 10
368.8360440636908
 20
441.8677874153663
 30
0
 11
369.6828637466264
 21
436.8701811793989
 31
0
 12
368.0177318816532
 22
436.8654342852967
 32
0
 13
368.0177318816532
 23
436.8654342852967
 33
0
  0
SOLID
  5
CF
100
AcDbEntity
  8
dimension
  6
ByBlock
 62
    0
370
   -2
100
AcDbTrace
 10
369.2506236369074
 20
296.4401366019228
 30
0
 11
368.4038039539718
 21
301.4377428378903
 31
0
 12
370.068935818945
 22
301.4424897319924
 32
0
 13
370.068935818945
 23
301.4424897319924
 33
0
  0
MTEXT
  5
D0
100
AcDbEntity
  8
dimension
  6
CONTINUOUS
 62
    0
370
   -2
100
AcDbMText
 10
372.1683211521857
 20
369.1628706026751
 30
0
 40
5
 41
15.55555555555587
 71
    5
 72
    1
  1
145.4
  7
standard
210
0
220
0
230
1
 50
270.1633361698252
 73
    2
 44
1
  0
ENDBLK
  5
76
330
74
100
AcDbEntity
  8
0
100
AcDbBlockEnd
  0
BLOCK
  5
78
330
77
100
AcDbEntity
  8
0
100
AcDbBlockBegin
  2
wall
 70
    0
 10
0
 20
0
  3
wall
  1

  0
LINE
  5
D1
100
AcDbEntity
  8
wall
  6
ByLayer
 62
  256
370
   -1
100
AcDbLine
 10
-63.1404958677686
 20
-207.1797520661157
 11
266.2595041322314
 21
-207.1797520661157
  0
LINE
  5
D2
100
AcDbEntity
  8
wall
  6
ByLayer
 62
  256
370
   -1
100
AcDbLine
 10
-63.1404958677686
 20
-207.1797520661157
 11
-63.1404958677686
 21
270.3202479338843
  0
LINE
  5
D3
100
AcDbEntity
  8
wall
  6
ByLayer
 62
  256
370
   -1
100
AcDbLine
 10
266.2595041322314
 20
-207.1797520661157
 11
266.2595041322314
 21
234.3202479338843
  0
LINE
  5
D4
100
AcDbEntity
  8
wall
  6
ByLayer
 62
  256
370
   -1
100
AcDbLine
 10
266.2595041322314
 20
234.3202479338843
 11
44.8595041322314
 21
234.3202479338843
  0
LINE
  5
D5
100
AcDbEntity
  8
wall
  6
ByLayer
 62
  256
370
   -1
100
AcDbLine
 10
44.8595041322314
 20
234.3202479338843
 11
44.8595041322314
 21
270.3202479338843
  0
LINE
  5
D6
100
AcDbEntity
  8
wall
  6
ByLayer
 62
  256
370
   -1
100
AcDbLine
 10
44.8595041322314
 20
270.3202479338843
 11
-63.1404958677686
 21
270.3202479338843
  0
ENDBLK
  5
79
330
77
100
AcDbEntity
  8
0
100
AcDbBlockEnd
  0
BLOCK
  5
7B
330
7A
100
AcDbEntity
  8
0
100
AcDbBlockBegin
  2
d3
 70
    0
 10
0
 20
0
  3
d3
  1

  0
LINE
  5
D7
100
AcDbEntity
  8
0
  6
CONTINUOUS
 62
    7
370
   70
100
AcDbLine
 10
5.15
 20
-61.5
 11
5.15
 21
-60.75
  0
LINE
  5
D8
100
AcDbEntity
  8
0
  6
CONTINUOUS
 62
    7
370
   70
100
AcDbLine
 10
5.15
 20
-60.75
 11
5.600000000000001
 21
-60.75
  0
LINE
  5
D9
100
AcDbEntity
  8
0
  6
CONTINUOUS
 62
    7
370
   70
100
AcDbLine
 10
5.600000000000001
 20
-60.75
 11
5.600000000000001
 21
-61.08000000000004
  0
LINE
  5
DA
100
AcDbEntity
  8
0
  6
CONTINUOUS
 62
    7
370
   70
100
AcDbLine
 10
5.600000000000001
 20
-61.08000000000004
 11
5.48
 21
-61.08000000000004
  0
LINE
  5
DB
100
AcDbEntity
  8
0
  6
CONTINUOUS
 62
    7
370
   70
100
AcDbLine
 10
5.48
 20
-61.08000000000004
 11
5.48
 21
-61.48000000000002
  0
LINE
  5
DC
100
AcDbEntity
  8
0
  6
CONTINUOUS
 62
    7
370
   70
100
AcDbLine
 10
5.460000000000001
 20
-61.5
 11
5.15
 21
-61.5
  0
LINE
  5
DD
100
AcDbEntity
  8
0
  6
CONTINUOUS
 62
    7
370
   70
100
AcDbLine
 10
11.85
 20
-61.5
 11
11.85
 21
-60.75
  0
LINE
  5
DE
100
AcDbEntity
  8
0
  6
CONTINUOUS
 62
    7
370
   70
100
AcDbLine
 10
11.85
 20
-60.75
 11
11.4
 21
-60.75
  0
LINE
  5
DF
100
AcDbEntity
  8
0
  6
CONTINUOUS
 62
    7
370
   70
100
AcDbLine
 10
11.4
 20
-60.75
 11
11.4
 21
-61.08000000000004
  0
LINE
  5
E0
100
AcDbEntity
  8
0
  6
CONTINUOUS
 62
    7
370
   70
100
AcDbLine
 10
11.4
 20
-61.08000000000004
 11
11.52
 21
-61.08000000000004
  0
LINE
  5
E1
100
AcDbEntity
  8
0
  6
CONTINUOUS
 62
    7
370
   70
100
AcDbLine
 10
11.52
 20
-61.08000000000004
 11
11.52
 21
-61.5
  0
LINE
  5
E2
100
AcDbEntity
  8
0
  6
CONTINUOUS
 62
    7
370
   70
100
AcDbLine
 10
11.52
 20
-61.5
 11
11.85
 21
-61.5
  0
ARC
  5
E3
100
AcDbEntity
  8
0
  6
CONTINUOUS
 62
    7
370
   70
100
AcDbCircle
 10
5.5
 20
-61.5
 40
6
100
AcDbArc
 50
270
 51
0
  0
LINE
  5
E4
100
AcDbEntity
  8
0
  6
CONTINUOUS
 62
    7
370
   70
100
AcDbLine
 10
5.15
 20
-60.75
 11
4.95
 21
-60.75
  0
LINE
  5
E5
100
AcDbEntity
  8
0
  6
CONTINUOUS
 62
    7
370
   70
100
AcDbLine
 10
4.95
 20
-60.75
 11
4.95
 21
-61.5
  0
LINE
  5
E6
100
AcDbEntity
  8
0
  6
CONTINUOUS
 62
    7
370
   70
100
AcDbLine
 10
4.95
 20
-61.5
 11
5.15
 21
-61.5
  0
LINE
  5
E7
100
AcDbEntity
  8
0
  6
CONTINUOUS
 62
    7
370
   70
100
AcDbLine
 10
5.15
 20
-61.5
 11
5.15
 21
-60.75
  0
LINE
  5
E8
100
AcDbEntity
  8
0
  6
CONTINUOUS
 62
    7
370
   70
100
AcDbLine
 10
11.85
 20
-60.75
 11
12.05
 21
-60.75
  0
LINE
  5
E9
100
AcDbEntity
  8
0
  6
CONTINUOUS
 62
    7
370
   70
100
AcDbLine
 10
12.05
 20
-60.75
 11
12.05
 21
-61.5
  0
LINE
  5
EA
100
AcDbEntity
  8
0
  6
CONTINUOUS
 62
    7
370
   70
100
AcDbLine
 10
12.05
 20
-61.5
 11
11.85
 21
-61.5
  0
LINE
  5
EB
100
AcDbEntity
  8
0
  6
CONTINUOUS
 62
    7
370
   70
100
AcDbLine
 10
11.85
 20
-61.5
 11
11.85
 21
-60.75
  0
LINE
  5
EC
100
AcDbEntity
  8
0
  6
CONTINUOUS
 62
    7
370
   70
100
AcDbLine
 10
5.48
 20
-67.5
 11
5.48
 21
-61.51999999999998
  0
LINE
  5
ED
100
AcDbEntity
  8
0
  6
CONTINUOUS
 62
    7
370
   70
100
AcDbLine
 10
5.48
 20
-61.51999999999998
 11
5.88
 21
-61.51999999999998
  0
LINE
  5
EE
100
AcDbEntity
  8
0
  6
CONTINUOUS
 62
    7
370
   70
100
AcDbLine
 10
5.88
 20
-61.51999999999998
 11
5.88
 21
-67.5
  0
LINE
  5
EF
100
AcDbEntity
  8
0
  6
CONTINUOUS
 62
    7
370
   70
100
AcDbLine
 10
5.88
 20
-67.5
 11
5.48
 21
-67.5
  0
ENDBLK
  5
7C
330
7A
100
AcDbEntity
  8
0
100
AcDbBlockEnd
  0
BLOCK
  5
7E
330
7D
100
AcDbEntity
  8
0
100
AcDbBlockBegin
  2
d3-0
 70
    0
 10
0
 20
0
  3
d3-0
  1

  0
LINE
  5
F0
100
AcDbEntity
  8
0
  6
CONTINUOUS
 62
    7
370
   70
100
AcDbLine
 10
5.15
 20
-61.5
 11
5.15
 21
-60.75
  0
LINE
  5
F1
100
AcDbEntity
  8
0
  6
CONTINUOUS
 62
    7
370
   70
100
AcDbLine
 10
5.15
 20
-60.75
 11
5.600000000000001
 21
-60.75
  0
LINE
  5
F2
100
AcDbEntity
  8
0
  6
CONTINUOUS
 62
    7
370
   70
100
AcDbLine
 10
5.600000000000001
 20
-60.75
 11
5.600000000000001
 21
-61.07999999999998
  0
LINE
  5
F3
100
AcDbEntity
  8
0
  6
CONTINUOUS
 62
    7
370
   70
100
AcDbLine
 10
5.600000000000001
 20
-61.07999999999998
 11
5.48
 21
-61.07999999999998
  0
LINE
  5
F4
100
AcDbEntity
  8
0
  6
CONTINUOUS
 62
    7
370
   70
100
AcDbLine
 10
5.48
 20
-61.07999999999998
 11
5.48
 21
-61.48000000000002
  0
LINE
  5
F5
100
AcDbEntity
  8
0
  6
CONTINUOUS
 62
    7
370
   70
100
AcDbLine
 10
5.460000000000001
 20
-61.5
 11
5.15
 21
-61.5
  0
LINE
  5
F6
100
AcDbEntity
  8
0
  6
CONTINUOUS
 62
    7
370
   70
100
AcDbLine
 10
11.85
 20
-61.5
 11
11.85
 21
-60.75
  0
LINE
  5
F7
100
AcDbEntity
  8
0
  6
CONTINUOUS
 62
    7
370
   70
100
AcDbLine
 10
11.85
 20
-60.75
 11
11.4
 21
-60.75
  0
LINE
  5
F8
100
AcDbEntity
  8
0
  6
CONTINUOUS
 62
    7
370
   70
100
AcDbLine
 10
11.4
 20
-60.75
 11
11.4
 21
-61.07999999999998
  0
LINE
  5
F9
100
AcDbEntity
  8
0
  6
CONTINUOUS
 62
    7
370
   70
100
AcDbLine
 10
11.4
 20
-61.07999999999998
 11
11.52
 21
-61.07999999999998
  0
LINE
  5
FA
100
AcDbEntity
  8
0
  6
CONTINUOUS
 62
    7
370
   70
100
AcDbLine
 10
11.52
 20
-61.07999999999998
 11
11.52
 21
-61.5
  0
LINE
  5
FB
100
AcDbEntity
  8
0
  6
CONTINUOUS
 62
    7
370
   70
100
AcDbLine
 10
11.52
 20
-61.5
 11
11.85
 21
-61.5
  0
ARC
  5
FC
100
AcDbEntity
  8
0
  6
CONTINUOUS
 62
    7
370
   70
100
AcDbCircle
 10
5.5
 20
-61.5
 40
6
100
AcDbArc
 50
270
 51
0
  0
LINE
  5
FD
100
AcDbEntity
  8
0
  6
CONTINUOUS
 62
    7
370
   70
100
AcDbLine
 10
5.15
 20
-60.75
 11
4.949999999999999
 21
-60.75
  0
LINE
  5
FE
100
AcDbEntity
  8
0
  6
CONTINUOUS
 62
    7
370
   70
100
AcDbLine
 10
4.949999999999999
 20
-60.75
 11
4.949999999999999
 21
-61.5
  0
LINE
  5
FF
100
AcDbEntity
  8
0
  6
CONTINUOUS
 62
    7
370
   70
100
AcDbLine
 10
4.949999999999999
 20
-61.5
 11
5.15
 21
-61.5
  0
LINE
  5
100
100
AcDbEntity
  8
0
  6
CONTINUOUS
 62
    7
370
   70
100
AcDbLine
 10
5.15
 20
-61.5
 11
5.15
 21
-60.75
  0
LINE
  5
101
100
AcDbEntity
  8
0
  6
CONTINUOUS
 62
    7
370
   70
100
AcDbLine
 10
11.85
 20
-60.75
 11
12.05
 21
-60.75
  0
LINE
  5
102
100
AcDbEntity
  8
0
  6
CONTINUOUS
 62
    7
370
   70
100
AcDbLine
 10
12.05
 20
-60.75
 11
12.05
 21
-61.5
  0
LINE
  5
103
100
AcDbEntity
  8
0
  6
CONTINUOUS
 62
    7
370
   70
100
AcDbLine
 10
12.05
 20
-61.5
 11
11.85
 21
-61.5
  0
LINE
  5
104
100
AcDbEntity
  8
0
  6
CONTINUOUS
 62
    7
370
   70
100
AcDbLine
 10
11.85
 20
-61.5
 11
11.85
 21
-60.75
  0
LINE
  5
105
100
AcDbEntity
  8
0
  6
CONTINUOUS
 62
    7
370
   70
100
AcDbLine
 10
5.48
 20
-67.5
 11
5.48
 21
-61.51999999999998
  0
LINE
  5
106
100
AcDbEntity
  8
0
  6
CONTINUOUS
 62
    7
370
   70
100
AcDbLine
 10
5.48
 20
-61.51999999999998
 11
5.879999999999999
 21
-61.51999999999998
  0
LINE
  5
107
100
AcDbEntity
  8
0
  6
CONTINUOUS
 62
    7
370
   70
100
AcDbLine
 10
5.879999999999999
 20
-61.51999999999998
 11
5.879999999999999
 21
-67.5
  0
LINE
  5
108
100
AcDbEntity
  8
0
  6
CONTINUOUS
 62
    7
370
   70
100
AcDbLine
 10
5.879999999999999
 20
-67.5
 11
5.48
 21
-67.5
  0
ENDBLK
  5
7F
330
7D
100
AcDbEntity
  8
0
100
AcDbBlockEnd
  0
BLOCK
  5
81
330
80
100
AcDbEntity
  8
0
100
AcDbBlockBegin
  2
d3-1
 70
    0
 10
0
 20
0
  3
d3-1
  1

  0
LINE
  5
109
100
AcDbEntity
  8
0
  6
CONTINUOUS
 62
    7
370
   70
100
AcDbLine
 10
5.150000000000006
 20
-61.5
 11
5.150000000000006
 21
-60.75
  0
LINE
  5
10A
100
AcDbEntity
  8
0
  6
CONTINUOUS
 62
    7
370
   70
100
AcDbLine
 10
5.150000000000006
 20
-60.75
 11
5.599999999999994
 21
-60.75
  0
LINE
  5
10B
100
AcDbEntity
  8
0
  6
CONTINUOUS
 62
    7
370
   70
100
AcDbLine
 10
5.599999999999994
 20
-60.75
 11
5.599999999999994
 21
-61.08000000000004
  0
LINE
  5
10C
100
AcDbEntity
  8
0
  6
CONTINUOUS
 62
    7
370
   70
100
AcDbLine
 10
5.599999999999994
 20
-61.08000000000004
 11
5.480000000000004
 21
-61.08000000000004
  0
LINE
  5
10D
100
AcDbEntity
  8
0
  6
CONTINUOUS
 62
    7
370
   70
100
AcDbLine
 10
5.480000000000004
 20
-61.08000000000004
 11
5.480000000000004
 21
-61.48000000000002
  0
LINE
  5
10E
100
AcDbEntity
  8
0
  6
CONTINUOUS
 62
    7
370
   70
100
AcDbLine
 10
5.460000000000008
 20
-61.5
 11
5.150000000000006
 21
-61.5
  0
LINE
  5
10F
100
AcDbEntity
  8
0
  6
CONTINUOUS
 62
    7
370
   70
100
AcDbLine
 10
11.84999999999999
 20
-61.5
 11
11.84999999999999
 21
-60.75
  0
LINE
  5
110
100
AcDbEntity
  8
0
  6
CONTINUOUS
 62
    7
370
   70
100
AcDbLine
 10
11.84999999999999
 20
-60.75
 11
11.40000000000001
 21
-60.75
  0
LINE
  5
111
100
AcDbEntity
  8
0
  6
CONTINUOUS
 62
    7
370
   70
100
AcDbLine
 10
11.40000000000001
 20
-60.75
 11
11.40000000000001
 21
-61.08000000000004
  0
LINE
  5
112
100
AcDbEntity
  8
0
  6
CONTINUOUS
 62
    7
370
   70
100
AcDbLine
 10
11.40000000000001
 20
-61.08000000000004
 11
11.52
 21
-61.08000000000004
  0
LINE
  5
113
100
AcDbEntity
  8
0
  6
CONTINUOUS
 62
    7
370
   70
100
AcDbLine
 10
11.52
 20
-61.08000000000004
 11
11.52
 21
-61.5
  0
LINE
  5
114
100
AcDbEntity
  8
0
  6
CONTINUOUS
 62
    7
370
   70
100
AcDbLine
 10
11.52
 20
-61.5
 11
11.84999999999999
 21
-61.5
  0
ARC
  5
115
100
AcDbEntity
  8
0
  6
CONTINUOUS
 62
    7
370
   70
100
AcDbCircle
 10
5.5
 20
-61.5
 40
6
100
AcDbArc
 50
270
 51
0
  0
LINE
  5
116
100
AcDbEntity
  8
0
  6
CONTINUOUS
 62
    7
370
   70
100
AcDbLine
 10
5.150000000000006
 20
-60.75
 11
4.950000000000003
 21
-60.75
  0
LINE
  5
117
100
AcDbEntity
  8
0
  6
CONTINUOUS
 62
    7
370
   70
100
AcDbLine
 10
4.950000000000003
 20
-60.75
 11
4.950000000000003
 21
-61.5
  0
LINE
  5
118
100
AcDbEntity
  8
0
  6
CONTINUOUS
 62
    7
370
   70
100
AcDbLine
 10
4.950000000000003
 20
-61.5
 11
5.150000000000006
 21
-61.5
  0
LINE
  5
119
100
AcDbEntity
  8
0
  6
CONTINUOUS
 62
    7
370
   70
100
AcDbLine
 10
5.150000000000006
 20
-61.5
 11
5.150000000000006
 21
-60.75
  0
LINE
  5
11A
100
AcDbEntity
  8
0
  6
CONTINUOUS
 62
    7
370
   70
100
AcDbLine
 10
11.84999999999999
 20
-60.75
 11
12.05
 21
-60.75
  0
LINE
  5
11B
100
AcDbEntity
  8
0
  6
CONTINUOUS
 62
    7
370
   70
100
AcDbLine
 10
12.05
 20
-60.75
 11
12.05
 21
-61.5
  0
LINE
  5
11C
100
AcDbEntity
  8
0
  6
CONTINUOUS
 62
    7
370
   70
100
AcDbLine
 10
12.05
 20
-61.5
 11
11.84999999999999
 21
-61.5
  0
LINE
  5
11D
100
AcDbEntity
  8
0
  6
CONTINUOUS
 62
    7
370
   70
100
AcDbLine
 10
11.84999999999999
 20
-61.5
 11
11.84999999999999
 21
-60.75
  0
LINE
  5
11E
100
AcDbEntity
  8
0
  6
CONTINUOUS
 62
    7
370
   70
100
AcDbLine
 10
5.480000000000004
 20
-67.5
 11
5.480000000000004
 21
-61.51999999999998
  0
LINE
  5
11F
100
AcDbEntity
  8
0
  6
CONTINUOUS
 62
    7
370
   70
100
AcDbLine
 10
5.480000000000004
 20
-61.51999999999998
 11
5.879999999999995
 21
-61.51999999999998
  0
LINE
  5
120
100
AcDbEntity
  8
0
  6
CONTINUOUS
 62
    7
370
   70
100
AcDbLine
 10
5.879999999999995
 20
-61.51999999999998
 11
5.879999999999995
 21
-67.5
  0
LINE
  5
121
100
AcDbEntity
  8
0
  6
CONTINUOUS
 62
    7
370
   70
100
AcDbLine
 10
5.879999999999995
 20
-67.5
 11
5.480000000000004
 21
-67.5
  0
ENDBLK
  5
82
330
80
100
AcDbEntity
  8
0
100
AcDbBlockEnd
  0
BLOCK
  5
84
330
83
100
AcDbEntity
  8
0
100
AcDbBlockBegin
  2
bed
 70
    0
 10
0
 20
0
  3
bed
  1

  0
LINE
  5
122
100
AcDbEntity
  8
bed
  6
ByLayer
 62
  256
370
   -1
100
AcDbLine
 10
-70.16322314049587
 20
-193.5537190082645
 11
138.8367768595041
 21
-193.5537190082645
  0
LINE
  5
123
100
AcDbEntity
  8
bed
  6
ByLayer
 62
  256
370
   -1
100
AcDbLine
 10
138.8367768595041
 20
-193.5537190082645
 11
138.8367768595041
 21
2.446280991735534
  0
LINE
  5
124
100
AcDbEntity
  8
bed
  6
ByLayer
 62
  256
370
   -1
100
AcDbLine
 10
138.8367768595041
 20
2.446280991735534
 11
-70.16322314049587
 21
2.446280991735534
  0
LINE
  5
125
100
AcDbEntity
  8
bed
  6
ByLayer
 62
  256
370
   -1
100
AcDbLine
 10
-70.16322314049587
 20
2.446280991735534
 11
-70.16322314049587
 21
-193.5537190082645
  0
ENDBLK
  5
85
330
83
100
AcDbEntity
  8
0
100
AcDbBlockEnd
  0
BLOCK
  5
87
330
86
100
AcDbEntity
  8
0
100
AcDbBlockBegin
  2
bathroom1
 70
    0
 10
0
 20
0
  3
bathroom1
  1

  0
LINE
  5
126
100
AcDbEntity
  8
0
  6
ByLayer
 62
  256
370
   -1
100
AcDbLine
 10
-142.4686028257457
 20
-200.3751962323391
 11
61.03139717425432
 21
-200.3751962323391
  0
LINE
  5
127
100
AcDbEntity
  8
0
  6
ByLayer
 62
  256
370
   -1
100
AcDbLine
 10
61.03139717425432
 20
-200.3751962323391
 11
61.03139717425432
 21
-1.575196232339067
  0
LINE
  5
128
100
AcDbEntity
  8
0
  6
ByLayer
 62
  256
370
   -1
100
AcDbLine
 10
61.03139717425432
 20
-1.575196232339067
 11
-142.4686028257457
 21
-1.575196232339067
  0
LINE
  5
129
100
AcDbEntity
  8
0
  6
ByLayer
 62
  256
370
   -1
100
AcDbLine
 10
-142.4686028257457
 20
-1.575196232339067
 11
-142.4686028257457
 21
-200.3751962323391
  0
ENDBLK
  5
88
330
86
100
AcDbEntity
  8
0
100
AcDbBlockEnd
  0
ENDSEC
  0
SECTION
  2
ENTITIES
  0
LINE
  5
12A
100
AcDbEntity
  8
windows
  6
ByLayer
 62
  256
370
   -1
100
AcDbLine
 10
53.5
 20
0
 11
53.5
 21
4.5
  0
LINE
  5
12B
100
AcDbEntity
  8
windows
  6
ByLayer
 62
  256
370
   -1
100
AcDbLine
 10
53.5
 20
4.5
 11
277.1
 21
4.5
  0
LINE
  5
12C
100
AcDbEntity
  8
windows
  6
ByLayer
 62
  256
370
   -1
100
AcDbLine
 10
277.1
 20
4.5
 11
277.1
 21
0
  0
LINE
  5
12D
100
AcDbEntity
  8
windows
  6
ByLayer
 62
  256
370
   -1
100
AcDbLine
 10
277.1
 20
0
 11
270.4
 21
0
  0
LINE
  5
12E
100
AcDbEntity
  8
windows
  6
ByLayer
 62
  256
370
   -1
100
AcDbLine
 10
270.4
 20
0
 11
270.4
 21
-77.5
  0
LINE
  5
12F
100
AcDbEntity
  8
windows
  6
ByLayer
 62
  256
370
   -1
100
AcDbLine
 10
270.4
 20
-77.5
 11
64.8
 21
-77.5
  0
LINE
  5
130
100
AcDbEntity
  8
windows
  6
ByLayer
 62
  256
370
   -1
100
AcDbLine
 10
64.8
 20
-77.5
 11
64.8
 21
0
  0
LINE
  5
131
100
AcDbEntity
  8
windows
  6
ByLayer
 62
  256
370
   -1
100
AcDbLine
 10
64.8
 20
0
 11
53.5
 21
0
  0
LWPOLYLINE
  5
132
100
AcDbEntity
  8
sockets
  6
ByLayer
 62
  256
370
   -1
100
AcDbPolyline
 90
    4
 70
    1
 43
0
 10
327.4
 20
12.3
 10
331.4
 20
12.3
 10
331.4
 20
52.6
 10
327.4
 20
52.6
  0
LWPOLYLINE
  5
133
100
AcDbEntity
  8
sockets
  6
ByLayer
 62
  256
370
   -1
100
AcDbPolyline
 90
    4
 70
    1
 43
0
 10
327.4
 20
247.6
 10
331.4
 20
247.6
 10
331.4
 20
295.1
 10
327.4
 20
295.1
  0
LWPOLYLINE
  5
134
100
AcDbEntity
  8
sockets
  6
ByLayer
 62
  256
370
   -1
100
AcDbPolyline
 90
    4
 70
    1
 43
0
 10
-2
 20
138
 10
2
 20
138
 10
2
 20
190
 10
-2
 20
190
  0
INSERT
  5
135
100
AcDbEntity
  8
wall
  6
ByLayer
 62
  256
370
   -1
100
AcDbBlockReference
  2
wall
 10
63.1404958677686
 20
207.1797520661157
 30
0
 41
1
 42
1
 43
0
 50
0
 70
    1
 71
    1
 44
0
 45
0
  0
DIMENSION
  5
136
100
AcDbEntity
  8
dimension
  6
ByLayer
 62
  256
370
   -1
100
AcDbDimension
  2
*D1
 10
199.463035410058
 20
451.8893827205571
 30
0
 11
264.6358454291952
 21
455.0397767312762
 31
0
 70
   33
 71
    5
 72
    0
  3
Standard
 53
0
210
0
220
0
230
1
100
AcDbAlignedDimension
 13
329.8155371900829
 23
440.5282644628102
 33
0
 14
199.4674819173556
 24
440.4774759669427
 34
0
  0
INSERT
  5
137
100
AcDbEntity
  8
bed
  6
ByLayer
 62
  256
370
   -1
100
AcDbBlockReference
  2
bed
 10
189.9245867768595
 20
245.5712809917355
 30
0
 41
1
 42
1
 43
0
 50
0
 70
    1
 71
    1
 44
0
 45
0
  0
DIMENSION
  5
138
100
AcDbEntity
  8
dimension
  6
ByLayer
 62
  256
370
   -1
100
AcDbDimension
  2
*D2
 10
-15.85592066115705
 20
3.883580497044073e-15
 30
0
 11
-18.98092066115705
 21
68.65613646281
 31
0
 70
   33
 71
    5
 72
    0
  3
Standard
 53
0
210
0
220
0
230
1
100
AcDbAlignedDimension
 13
0
 23
137.31227292562
 33
0
 14
0
 24
0
 34
0
  0
DIMENSION
  5
139
100
AcDbEntity
  8
dimension
  6
ByLayer
 62
  256
370
   -1
100
AcDbDimension
  2
*D3
 10
-16.84211318172913
 20
390.9520315163081
 30
0
 11
-19.96711318172912
 21
434.1323429715924
 31
0
 70
   33
 71
    5
 72
    0
  3
Standard
 53
0
210
0
220
0
230
1
100
AcDbAlignedDimension
 13
0
 23
477.3126544268766
 33
0
 14
-2.083292370856478e-14
 24
390.9520315163081
 34
0
  0
DIMENSION
  5
13A
100
AcDbEntity
  8
dimension
  6
ByLayer
 62
  256
370
   -1
100
AcDbDimension
  2
*D4
 10
-29.04463451022821
 20
-0.3583428336538077
 30
0
 11
-32.1696345102282
 21
238.6563272134383
 31
0
 70
   33
 71
    5
 72
    0
  3
Standard
 53
0
210
0
220
0
230
1
100
AcDbAlignedDimension
 13
1.06581410364015e-14
 23
477.6709972605304
 33
0
 14
-5.338550491327978e-15
 24
-0.3583428336538077
 34
0
  0
LINE
  5
13B
100
AcDbEntity
  8
door
  6
ByLayer
 62
  256
370
  140
100
AcDbLine
 10
20
 20
477.5
 11
20
 21
392.5
  0
ARC
  5
13C
100
AcDbEntity
  8
door
  6
DOTTINY
 62
  256
370
   50
100
AcDbCircle
 10
20
 20
477.5
 40
85
100
AcDbArc
 50
270
 51
0
  0
DIMENSION
  5
13D
100
AcDbEntity
  8
dimension
  6
ByLayer
 62
  256
370
   -1
100
AcDbDimension
  2
*D5
 10
369.6963528909056
 20
52.80342195752215
 30
0
 11
372.6330455602003
 21
150.349635669336
 31
0
 70
   33
 71
    5
 72
    0
  3
Standard
 53
0
210
0
220
0
230
1
100
AcDbAlignedDimension
 13
328.3978291457288
 23
247.8047839195981
 33
0
 14
328.7744321608043
 24
52.72442211055281
 34
0
  0
DIMENSION
  5
13E
100
AcDbEntity
  8
dimension
  6
ByLayer
 62
  256
370
   -1
100
AcDbDimension
  2
*D6
 10
368.98355944092
 20
247.6963929825386
 30
0
 11
372.0620914796315
 21
271.7097468966186
 31
0
 70
   33
 71
    5
 72
    0
  3
Standard
 53
0
210
0
220
0
230
1
100
AcDbAlignedDimension
 13
328.7744321608042
 23
295.633366834171
 33
0
 14
328.8673563786948
 24
247.6187548087193
 34
0
  0
DIMENSION
  5
13F
100
AcDbEntity
  8
dimension
  6
ByLayer
 62
  256
370
   -1
100
AcDbDimension
  2
*D7
 10
370.5746231078514
 20
0.350082966243788
 30
0
 11
373.1889750633736
 21
26.43687375044622
 31
0
 70
   33
 71
    5
 72
    0
  3
Standard
 53
0
210
0
220
0
230
1
100
AcDbAlignedDimension
 13
328.3978291457288
 23
51.59461306532667
 33
0
 14
329.417925329125
 24
-0.4565047136508977
 34
0
  0
DIMENSION
  5
140
100
AcDbEntity
  8
dimension
  6
ByLayer
 62
  256
370
   -1
100
AcDbDimension
  2
*D8
 10
-17.38243646436728
 20
193.2396256033356
 30
0
 11
-20.49830636027266
 21
291.8895340175799
 31
0
 70
   33
 71
    5
 72
    0
  3
Standard
 53
0
210
0
220
0
230
1
100
AcDbAlignedDimension
 13
-0.7532060301507849
 23
390.537326633166
 33
0
 14
-0.7714662115724361
 24
193.2380882465121
 34
0
  0
DIMENSION
  5
141
100
AcDbEntity
  8
dimension
  6
ByLayer
 62
  256
370
   -1
100
AcDbDimension
  2
*D9
 10
53.37240542690341
 20
-25.45879418757568
 30
0
 11
26.93590452157458
 21
-21.96631917024564
 31
0
 70
   33
 71
    5
  3
Standard
 53
0
210
0
220
0
230
1
100
AcDbAlignedDimension
 13
0.7355527638190954
 23
-1.471105527638191
 33
0
 14
53.69535175879396
 24
-2.206658291457305
 34
0
  0
DIMENSION
  5
142
100
AcDbEntity
  8
dimension
  6
ByLayer
 62
  256
370
   -1
100
AcDbDimension
  2
*D10
 10
330.0052855653836
 20
-20.1499443553869
 30
0
 11
303.6048627201529
 21
-17.02494435538691
 31
0
 70
   33
 71
    5
  3
Standard
 53
0
210
0
220
0
230
1
100
AcDbAlignedDimension
 13
277.2044398749223
 23
-2.797762022055394e-14
 33
0
 14
330.0052855653836
 24
-2.618642617629959e-14
 34
0
  0
DIMENSION
  5
143
100
AcDbEntity
  8
dimension
  6
ByLayer
 62
  256
370
   -1
100
AcDbDimension
  2
*D11
 10
410.8206820065431
 20
0.1423677867935716
 30
0
 11
413.340814906429
 21
220.9231401422988
 31
0
 70
   33
 71
    5
 72
    0
  3
Standard
 53
0
210
0
220
0
230
1
100
AcDbAlignedDimension
 13
327.3512581337553
 23
441.4614201973312
 33
0
 14
328.560968877557
 24
-0.08300129027211023
 34
0
  0
DIMENSION
  5
144
100
AcDbEntity
  8
dimension
  6
ByLayer
 62
  256
370
   -1
100
AcDbDimension
  2
*D12
 10
369.2506236369074
 20
296.4401366019228
 30
0
 11
372.1683211521857
 21
369.1628706026751
 31
0
 70
   33
 71
    5
 72
    0
  3
Standard
 53
0
210
0
220
0
230
1
100
AcDbAlignedDimension
 13
328.3029034940358
 23
441.7522370917208
 33
0
 14
328.7174830672523
 24
296.3245862782773
 34
0
  0
INSERT
  5
145
100
AcDbEntity
  8
wall
  6
ByLayer
 62
  256
370
   -1
100
AcDbBlockReference
  2
bathroom1
 10
267.339982126407
 20
651.3867584805856
 30
0
 41
1
 42
1
 43
0
 50
0
 70
    1
 71
    1
 44
0
 45
0
  0
LINE
  5
146
100
AcDbEntity
  8
door
  6
ByLayer
 62
  256
370
  140
100
AcDbLine
 10
132.2295915357976
 20
452.4438730369642
 11
132.2295915357976
 21
518.9438730369642
  0
ARC
  5
147
100
AcDbEntity
  8
door
  6
DOTTINY
 62
  256
370
   50
100
AcDbCircle
 10
132.2295915357976
 20
452.4438730369642
 40
66.5
100
AcDbArc
 50
0
 51
90
  0
ENDSEC
  0
SECTION
  2
OBJECTS
  0
DICTIONARY
  5
C
330
0
100
AcDbDictionary
281
    1
  3
ACAD_GROUP
350
D
  0
DICTIONARY
  5
D
330
C
100
AcDbDictionary
281
    1
  0
ENDSEC
  0
EOF
